<svg id="Layer_1" data-name="Layer 1" xmlns="http://www.w3.org/2000/svg" width="7.6in" height="2.5in" viewBox="0 0 548 178"><title>Artboard 4 copy 2</title><rect x="-2" y="-2" width="550" height="180" fill="#231f20"/><path d="M245.6,108.2a10,10,0,0,0,1-2.9,10.6,10.6,0,0,0,.4-3.1,10.3,10.3,0,0,0-.6-3.5,7.9,7.9,0,0,0-1.7-3.1l-1.9-.3-1-.2-.5-.3a.5.5,0,0,1-.2-.4.8.8,0,0,1,.2-.4l.6-.5.7-.5.8-.3a11,11,0,0,1,2.9,1.2h2.8l2.6-.2,2.4-.2,2.6-.3a2.6,2.6,0,0,1,.3,1.1,1,1,0,0,1-.4.9,1.9,1.9,0,0,1-1,.5l-1.5.3h-5.8l.8,1.3a10.3,10.3,0,0,1,.4,1.4,5,5,0,0,1,.2,1.2,3.8,3.8,0,0,1,.1,1,13.1,13.1,0,0,1-.8,4.3,22,22,0,0,1-2.1,4.4l2.8,2.1a28.5,28.5,0,0,0,2.6,1.7,14.6,14.6,0,0,0,2.3,1,4.6,4.6,0,0,0,1.9.4h1.7l1.4-.4.5,1.3-1.4.6-1.6.6-1.8.5-1.9.3a8.1,8.1,0,0,1-1.9-.4l-2.1-.9-2.5-1.5a21.9,21.9,0,0,1-2.5-2,15,15,0,0,1-2.4,2,14,14,0,0,1-2.6,1.6,10,10,0,0,1-2.9,1,9.2,9.2,0,0,1-2.9.4,12.2,12.2,0,0,1-4.3-.8,10.2,10.2,0,0,1-3.5-2.1,10.9,10.9,0,0,1-2.4-3.5,10.6,10.6,0,0,1-.9-4.5,13.1,13.1,0,0,1,.6-4.1,12,12,0,0,1,1.7-3.4,14.8,14.8,0,0,1,2.4-2.6,25.5,25.5,0,0,1,2.8-2.1,44.3,44.3,0,0,1-1.5-4.3,14.4,14.4,0,0,1-.6-4,9.1,9.1,0,0,1,.8-3.7,7.9,7.9,0,0,1,2-3,8.6,8.6,0,0,1,2.9-2.1,8,8,0,0,1,3.4-.7,7.1,7.1,0,0,1,2.6.4,5.2,5.2,0,0,1,1.9,1.2,4.6,4.6,0,0,1,1.3,1.8,6.1,6.1,0,0,1,.4,2.4,6.3,6.3,0,0,1-.5,2.6,10.5,10.5,0,0,1-1.5,3,23.8,23.8,0,0,1-2.7,3.1,29.1,29.1,0,0,1-4.1,3,37.3,37.3,0,0,0,2.3,3.7,31.8,31.8,0,0,0,2.7,3.7l3,3.4A23.3,23.3,0,0,0,245.6,108.2Zm-14.7-12a13.7,13.7,0,0,0-1.7,1.7,12.7,12.7,0,0,0-1.3,1.9,14.3,14.3,0,0,0-.8,2.2,10.9,10.9,0,0,0-.3,2.6,9.9,9.9,0,0,0,.8,4.4,8.7,8.7,0,0,0,2,3.1,10,10,0,0,0,2.9,1.8,9.6,9.6,0,0,0,3.3.6l2-.2,1.9-.6,1.8-.9,1.5-1.2c-1.1-1.1-2.3-2.2-3.4-3.4l-3.3-3.7-3-4.1A44.9,44.9,0,0,1,230.9,96.2Zm2.7-3.5a13.9,13.9,0,0,0,2.7-2.1,18.8,18.8,0,0,0,1.8-2.4,12.2,12.2,0,0,0,1-2.4,9.6,9.6,0,0,0,.3-2.2,5.2,5.2,0,0,0-.3-1.8,6.1,6.1,0,0,0-.7-1.4,5.8,5.8,0,0,0-1.2-1,4,4,0,0,0-1.5-.3,3.9,3.9,0,0,0-2,.5,2.7,2.7,0,0,0-1.3,1.3,4.9,4.9,0,0,0-.8,1.8,15,15,0,0,0-.2,2.2,12.4,12.4,0,0,0,.6,3.7A26.6,26.6,0,0,0,233.6,92.7Z" fill="#ffd12d"/><path d="M240.8,146.7h-.9c-.1,0,0-.3,0-.2h.8l4.3-1.2,2.8-.8,3-1.1a21.1,21.1,0,0,0,3-1.6,5.6,5.6,0,0,0,2.2-2.1,5,5,0,0,0,.2-1.2.4.4,0,0,0-.1-.3h0v-1a5.8,5.8,0,0,0-1.8-2.3,9.4,9.4,0,0,0-2.6-1.4l-2.8-.6c-1.7-.3-3.3-.3-4.3-.4h-1.7l1.6-.5a23.5,23.5,0,0,1,4.5-.5l3.1.3a10.6,10.6,0,0,1,3.3,1.4,6.9,6.9,0,0,1,2.6,3.2l.2.5.2.4v.4h0c0,.2.1.4.1.6a4.5,4.5,0,0,1-.4,2.3,7.8,7.8,0,0,1-3,3,16.8,16.8,0,0,1-3.4,1.5l-3.3.9-3,.5-4.4.4H240c0,.1.1-.2,0-.2h.8Z" fill="#ffd12d"/><path d="M258.2,121.1a1.5,1.5,0,0,0-1.3,0c-10.2,5.3-24.9,7.8-34.1-1.1a1.5,1.5,0,0,0-2.2.5c-3.8,8.6-6,19.9-2.2,28.8s14.1,9.8,22.4,8.6c9.9-1.5,20.8-6.8,24.3-16.8A17.1,17.1,0,0,0,258.2,121.1Zm3.9,8.4a14.5,14.5,0,0,1-.1,12.2c-5.2,11.2-22.5,16.6-33.8,12.9s-9.8-21.4-5.9-31.4c5.3,4.1,12.8,5.8,19.2,5.4a39.7,39.7,0,0,0,11.2-2.6,35.1,35.1,0,0,0,4.2-2.5A12.9,12.9,0,0,1,262.1,129.5Z" fill="#ffd12d"/><path d="M222,119.7a1.3,1.3,0,0,0-1.4.8c0-.1.1-.1.1-.2A1,1,0,0,1,222,119.7Z" fill="#ffd12d"/><path d="M253,91.6l-1.5-1.4c.4-.5,10.6-11.3,1.5-20.6l-3.2-3.2c-7.6-7.5-8.6-9-2.5-17.7L249,50c-5.2,7.4-4.8,7.8,2.3,14.9,1,.9,2,2,3.2,3.2C265.1,78.9,253.1,91.5,253,91.6Z" fill="#ffd12d"/><path d="M295.3,126.9c5.4,0,8.7.7,10.1,2.3s2,5.5,2,11.8-.7,10.9-2,12.5-4.6,2.4-10.1,2.4-8.9-.8-10.2-2.4-1.9-5.6-1.9-12.2v-4.6c0-3.8.9-6.4,2.6-7.8S290.6,126.9,295.3,126.9Zm0,2.7c-4.5,0-7.2.5-7.9,1.5s-1.2,4.4-1.2,10.2.4,9.4,1.2,10.4,3.4,1.5,7.9,1.5,7.1-.5,7.9-1.5,1.1-4.5,1.1-10.4v-4.5c0-3.1-.5-5.1-1.6-6S299.2,129.6,295.3,129.6Z" fill="#ffd12d"/><path d="M321,130.1v25.5h-3.3V130.1h-9.2v-2.9h21.6v2.9Z" fill="#ffd12d"/><path d="M342.9,130.1v25.5h-3.2V130.1h-9.3v-2.9h21.7v2.9Z" fill="#ffd12d"/><path d="M372.4,149.6H358l-2.2,6h-3.4l10.4-28.4h4.5l10.6,28.4h-3.3Zm-.9-2.5-6.4-17.3-6.2,17.3Z" fill="#ffd12d"/><path d="M420.6,127.2l-8.9,28.4h-4.9l-6-20.5-.7-2.6c0-.1-.2-.5-.4-1.2l-.3-1.3h-.1l-.4,1.3-.3,1.3-.8,2.5-6.1,20.5h-4.8l-8.7-28.4h3.3l6.1,20.4.9,2.7a8.2,8.2,0,0,0,.4,1.4l.4,1.4h0l.4-1.4.4-1.4.8-2.7,6.1-20.4h4.7l6,20.4.8,2.7.4,1.4.4,1.4h.1l.4-1.4.4-1.4.8-2.8,6.3-20.3Z" fill="#ffd12d"/><path d="M440.9,149.6H426.5l-2.2,6h-3.4l10.4-28.4h4.5l10.7,28.4h-3.4Zm-.9-2.5-6.4-17.3-6.2,17.3Z" fill="#ffd12d"/><path d="M143.6,107.7H131.4l-1.8,5.5h-5.7l9.4-28.4h8.1l9.6,28.4h-5.6Zm-1.2-3.9L137.5,89l-4.9,14.8Z" fill="#ffd12d"/><path d="M153.5,113.2V84.8h14q5.3,0,7.2,1.8c1.3,1.2,2,3.4,2,6.6s-.3,4.8-1,5.8-2,1.8-4.1,2.2v.2c3.2.2,4.8,2,4.8,5.5v6.3H171V108c0-2.9-1.5-4.4-4.3-4.4h-7.8v9.6Zm5.4-14.1h7.7c1.9,0,3.1-.3,3.7-1s.9-2,.9-4-.2-3.3-.8-3.9-1.6-.9-3.4-.9h-8.1Z" fill="#ffd12d"/><path d="M202.1,93.1h-5.3v-.6c-.2-1.6-.5-2.6-1.1-3s-2-.6-4.1-.6-4.3.2-5,.7-1.2,1.4-1.2,2.9.3,2.9.9,3.3a27,27,0,0,0,6.4.8c4.2.2,6.9.8,8.2,1.8s1.8,3,1.8,6.1-.7,6.2-2.1,7.3-4.7,1.6-9.7,1.6-7.4-.5-8.9-1.6-2.2-3.3-2.2-6.6v-1h5.3v.6c0,2,.3,3.2,1,3.7s2.6.6,5.7.6,4-.2,4.6-.8,1-1.7,1-3.5-.2-2.3-.7-2.7-1.6-.8-3.3-.9l-3-.2c-4.5-.2-7.4-.8-8.6-1.8s-1.9-3.1-1.9-6.4.8-5.5,2.3-6.6,4.5-1.7,9-1.7,7.1.5,8.6,1.6,2.3,2.9,2.3,5.9Z" fill="#ffd12d"/><path d="M311.4,88.2h-1.7c.1-1.6.2-2.9.2-3.9,0-2.9-.6-5-1.8-6.1a6.4,6.4,0,0,0-4.6-1.7,13.2,13.2,0,0,0-7.8,3,23.6,23.6,0,0,0-6.8,9.4A31.6,31.6,0,0,0,286,102c0,4.4.9,7.7,2.7,10a8.1,8.1,0,0,0,6.7,3.5c3.6,0,7-2.2,10-6.6a1.2,1.2,0,0,1,1-.6l.6.2a.9.9,0,0,1,.3.7q0,.8-2.1,3.3a16.6,16.6,0,0,1-5.2,4.1,13.3,13.3,0,0,1-6.2,1.6,12.8,12.8,0,0,1-11.7-7.4,18.7,18.7,0,0,1-1.8-8.5,31.2,31.2,0,0,1,12.5-24,18.4,18.4,0,0,1,10.5-3.7,15,15,0,0,1,3.7.4l6.4,2.1A41.8,41.8,0,0,0,311.4,88.2Z" fill="#ffd12d"/><path d="M123.5,88.2h-1.7c.1-1.6.1-2.9.1-3.9,0-2.9-.6-5-1.8-6.1a6.1,6.1,0,0,0-4.6-1.7c-2.5,0-5,1-7.7,3s-5,5.1-6.9,9.4A31.5,31.5,0,0,0,98.1,102c0,4.4.8,7.7,2.6,10a8.2,8.2,0,0,0,6.7,3.5c3.7,0,7-2.2,10-6.6.4-.4.7-.6,1-.6l.7.2a.9.9,0,0,1,.3.7q0,.8-2.1,3.3a17.8,17.8,0,0,1-5.2,4.1,13.3,13.3,0,0,1-6.2,1.6,12.8,12.8,0,0,1-6.9-1.9,13.1,13.1,0,0,1-4.9-5.5,20.1,20.1,0,0,1-1.7-8.5,29.9,29.9,0,0,1,3.5-13.6,28,28,0,0,1,9-10.4,18.4,18.4,0,0,1,10.5-3.7,14.7,14.7,0,0,1,3.6.4l6.5,2.1A38.1,38.1,0,0,0,123.5,88.2Z" fill="#ffd12d"/><path d="M326.8,84.5c5.1,0,8.5.9,10,2.6s2.2,5.6,2.2,11.5-.8,10.6-2.3,12.3-5.1,2.5-10.8,2.5-8.5-.8-10-2.5-2.3-5.3-2.3-11,.8-11,2.3-12.8S321,84.5,326.8,84.5Zm-.4,4.7c-3.7,0-5.8.4-6.4,1.4s-.9,4.1-.9,9.6.4,6.5,1.1,7.4,2.8,1.2,6.3,1.2,5.3-.4,6-1.4,1-3.8,1-8.5-.3-7.6-.9-8.4S329.9,89.2,326.4,89.2Z" fill="#ffd12d"/><path d="M348,89.3V97h12.8v4.5H348v11.7h-5.4V84.8h18.8v4.5Z" fill="#ffd12d"/><path d="M370.1,89.3V97h12.8v4.5H370.1v11.7h-5.4V84.8h18.8v4.5Z" fill="#ffd12d"/><path d="M391.7,89.3v7.3H405v4H391.7v8.1h14.1v4.5H386.3V84.8h19.4v4.5Z" fill="#ffd12d"/><path d="M414.7,89.3v7.3H428v4H414.7v8.1h14.2v4.5H409.3V84.8h19.4v4.5Z" fill="#ffd12d"/><path d="M527.8,69.3c-5.1,3.9-14.5,2.8-20.3,2.5-26.1-1.5-52.1-8.6-77.2-15.7-45.8-13-90-32.1-138.2-33.3-30.1-.8-60.6,4.6-87.5,18.5-8.5,4.4-16.7,8.9-23.7,15.3,11.7.9,23.3,2.2,34.9,3.9,3.3.5,1.9,5.7-1.5,5.2-25.4-3.8-51.1-5.7-76.8-4.6-28.9,1.2-58,6.1-85,16.8a148.3,148.3,0,0,0-20.9,10l-5.2,3.3-1.6,1.2.3-.3c-2.7,2.1-6.5-1.6-3.8-3.7a82.7,82.7,0,0,1,9.3-6.1C49.6,71.6,71,65,92.3,60.9c26.8-5.1,54.2-6.3,81.5-4.8,9.3-9.6,22.1-16.8,34.1-22.3,28-13,59.3-17.7,90-16.1,47.6,2.4,91.4,21.4,136.8,34.1,24.2,6.7,49.5,13.8,74.8,14.8,4.2.1,8.9.2,12.3-.6l2.2-.6c-.1,0,1-.7.2,0C526.9,63.6,530.4,67.2,527.8,69.3Z" fill="#ffd12d"/></svg>