<svg id="Layer_1" data-name="Layer 1" xmlns="http://www.w3.org/2000/svg" width="7.6in" height="2.5in" viewBox="0 0 546 178"><title>Artboard 4</title><path d="M242,108.4a10.2,10.2,0,0,0,1.1-2.9,16.3,16.3,0,0,0,.3-3.1,13.4,13.4,0,0,0-.5-3.5,10.1,10.1,0,0,0-1.8-3.2l-1.9-.2-1-.2-.5-.3c-.1-.1-.1-.2-.1-.4a.6.6,0,0,1,.2-.5l.6-.5.7-.4.7-.3a11,11,0,0,1,2.9,1.2h2.9l2.5-.2,2.5-.2,2.5-.4a3.5,3.5,0,0,1,.3,1.2,1.2,1.2,0,0,1-.3.9l-1,.5-1.6.2h-5.8a4.6,4.6,0,0,1,.8,1.3,7.8,7.8,0,0,1,.5,1.4,5,5,0,0,1,.2,1.2v.9a13.1,13.1,0,0,1-.7,4.4,19,19,0,0,1-2.1,4.3,26.1,26.1,0,0,0,2.7,2.2l2.6,1.6a11.7,11.7,0,0,0,2.3,1.1,5.4,5.4,0,0,0,1.9.4l1.7-.2a5.8,5.8,0,0,0,1.4-.3l.5,1.3-1.3.6-1.6.6-1.9.5a5.5,5.5,0,0,1-1.8.2l-1.9-.3-2.2-.9c-.8-.5-1.6-.9-2.4-1.5l-2.6-2-2.3,2-2.7,1.6a13.3,13.3,0,0,1-2.8,1,10.3,10.3,0,0,1-3,.4,12.6,12.6,0,0,1-4.3-.8,9.9,9.9,0,0,1-3.5-2.2,9.5,9.5,0,0,1-2.4-3.4,10.6,10.6,0,0,1-.9-4.5,11.2,11.2,0,0,1,.7-4.2,12.9,12.9,0,0,1,1.7-3.3,12,12,0,0,1,2.4-2.6l2.8-2.2a27.5,27.5,0,0,1-1.6-4.2,19.9,19.9,0,0,1-.5-4,8.7,8.7,0,0,1,.7-3.7,11,11,0,0,1,2-3.1,11.5,11.5,0,0,1,2.9-2,8.4,8.4,0,0,1,3.5-.7,7.5,7.5,0,0,1,2.6.4,6.2,6.2,0,0,1,1.9,1.2,5.7,5.7,0,0,1,1.2,1.8,6,6,0,0,1,.5,2.4,8.5,8.5,0,0,1-.5,2.6,12,12,0,0,1-1.5,3,23.8,23.8,0,0,1-2.7,3.1,36.4,36.4,0,0,1-4.1,3,36,36,0,0,0,2.2,3.7c.9,1.3,1.8,2.5,2.8,3.7a31.7,31.7,0,0,0,3,3.4C239.9,106.4,241,107.5,242,108.4Zm-14.7-12c-.6.5-1.1,1.1-1.6,1.6a8.6,8.6,0,0,0-1.3,2,8.5,8.5,0,0,0-.9,2.2,10.9,10.9,0,0,0-.3,2.6,11.5,11.5,0,0,0,.8,4.4,7.7,7.7,0,0,0,2.1,3.1,7.9,7.9,0,0,0,2.9,1.8,8.6,8.6,0,0,0,3.2.5,6.5,6.5,0,0,0,2-.2l1.9-.5,1.8-1a6.1,6.1,0,0,0,1.6-1.2,35.1,35.1,0,0,1-3.4-3.3,30,30,0,0,1-3.3-3.8,37.9,37.9,0,0,1-3-4A46.4,46.4,0,0,1,227.3,96.4Zm2.7-3.5a9.7,9.7,0,0,0,2.7-2.1,9.4,9.4,0,0,0,1.8-2.4,8.2,8.2,0,0,0,1-2.4,9.7,9.7,0,0,0,.3-2.3,8.8,8.8,0,0,0-.2-1.7,4.7,4.7,0,0,0-.8-1.4,2.9,2.9,0,0,0-1.2-1,4.1,4.1,0,0,0-3.5.2,3.3,3.3,0,0,0-1.3,1.3,4.8,4.8,0,0,0-.7,1.8,7.8,7.8,0,0,0-.2,2.2,17.2,17.2,0,0,0,.5,3.7A43,43,0,0,0,230,92.9Z" fill="#ffd12d"/><path d="M237.3,146.9h-1c-.1,0,0-.3,0-.2h.2l.7-.2,4.3-1.1,2.8-.9,3-1.1,3-1.5a6,6,0,0,0,2.1-2.1,1.7,1.7,0,0,0,.2-1.2v-.4h0v-.7l-.2-.3a5.5,5.5,0,0,0-1.7-2.3,8.7,8.7,0,0,0-2.7-1.4l-2.7-.7-4.4-.3H239a6.9,6.9,0,0,1,1.7-.5,22.5,22.5,0,0,1,4.5-.5l3.1.3a11.7,11.7,0,0,1,3.3,1.4,8.8,8.8,0,0,1,2.6,3.1l.2.5v.9h0a1.3,1.3,0,0,1,.1.6,3.7,3.7,0,0,1-.4,2.3,7.8,7.8,0,0,1-3,3,20.7,20.7,0,0,1-3.4,1.5l-3.2.9-3,.5-4.5.3h-.7v-.2h.8Z" fill="#ffd12d"/><path d="M254.7,121.3a1.7,1.7,0,0,0-1.4,0c-10.2,5.3-24.9,7.8-34.1-1.1a2,2,0,0,0-.8-.4,1.5,1.5,0,0,0-1.3.9c-3.8,8.6-6.1,19.9-2.2,28.8s14,9.8,22.3,8.5c9.9-1.4,20.9-6.7,24.4-16.7A17.3,17.3,0,0,0,254.7,121.3Zm3.9,8.4a14.5,14.5,0,0,1-.2,12.2c-5.1,11.2-22.5,16.6-33.7,12.9s-9.9-21.4-5.9-31.5c5.3,4.2,12.7,5.9,19.2,5.4a35.8,35.8,0,0,0,11.1-2.5c.4-.2,3.5-1.9,4.3-2.5A13.5,13.5,0,0,1,258.6,129.7Z" fill="#ffd12d"/><path d="M218.4,119.8a1.5,1.5,0,0,0-1.3.9v-.2A1.1,1.1,0,0,1,218.4,119.8Z" fill="#ffd12d"/><path d="M249.4,91.8l-1.5-1.5c.4-.4,10.7-11.2,1.5-20.6-1.2-1.1-2.2-2.2-3.1-3.1-7.6-7.5-8.7-9-2.6-17.7l1.8,1.2c-5.3,7.5-4.9,7.9,2.3,15l3.1,3.1C261.6,79.1,249.6,91.7,249.4,91.8Z" fill="#ffd12d"/><path d="M291.7,127c5.4,0,8.8.8,10.1,2.4s2,5.5,2,11.8-.6,10.9-1.9,12.5-4.7,2.3-10.2,2.3-8.8-.7-10.1-2.3-2-5.6-2-12.2v-4.7c0-3.7.8-6.3,2.5-7.7S287.1,127,291.7,127Zm0,2.7c-4.5,0-7.1.5-7.9,1.5s-1.1,4.5-1.1,10.3.4,9.3,1.1,10.3,3.4,1.5,7.9,1.5,7.2-.5,7.9-1.5,1.2-4.4,1.2-10.3V137q0-4.6-1.5-6C298.1,130.2,295.6,129.7,291.7,129.7Z" fill="#ffd12d"/><path d="M317.4,130.3v25.4h-3.2V130.3h-9.3v-3h21.7v3Z" fill="#ffd12d"/><path d="M339.3,130.3v25.4h-3.2V130.3h-9.2v-3h21.6v3Z" fill="#ffd12d"/><path d="M368.8,149.7H354.5l-2.2,6h-3.4l10.4-28.4h4.5l10.6,28.4H371Zm-.9-2.4L361.6,130l-6.2,17.3Z" fill="#ffd12d"/><path d="M417.1,127.3l-9,28.4h-4.8l-6-20.4-.8-2.6-.3-1.2-.4-1.3h0l-.4,1.3-.4,1.2-.7,2.6-6.1,20.4h-4.8l-8.7-28.4H378l6.1,20.5.8,2.7c.1.2.2.7.4,1.4l.4,1.4h.1l.4-1.4.4-1.4.8-2.7,6-20.5h4.8l6,20.5.8,2.7.4,1.4.3,1.4h.1l.4-1.4.4-1.4.9-2.8,6.2-20.4Z" fill="#ffd12d"/><path d="M437.3,149.7H423l-2.2,6h-3.4l10.4-28.4h4.5l10.6,28.4h-3.3Zm-.9-2.4L430.1,130l-6.2,17.3Z" fill="#ffd12d"/><path d="M140.1,107.9H127.8l-1.7,5.5h-5.8L129.8,85h8.1l9.6,28.4h-5.6Zm-1.3-4-4.9-14.8-4.8,14.8Z" fill="#ffd12d"/><path d="M149.9,113.4V85H164q5.1,0,7.2,1.8c1.3,1.2,1.9,3.4,1.9,6.5s-.3,4.9-1,5.9-2,1.8-4,2.2v.2c3.2.2,4.7,2,4.7,5.5v6.3h-5.4v-5.2c0-2.9-1.4-4.4-4.3-4.4h-7.8v9.6Zm5.4-14.1h7.8a5.5,5.5,0,0,0,3.7-1c.6-.7.9-2,.9-4s-.3-3.3-.8-3.9-1.7-.9-3.4-.9h-8.2Z" fill="#ffd12d"/><path d="M198.5,93.2h-5.3v-.5c-.1-1.6-.5-2.6-1.1-3s-1.9-.7-4.1-.7-4.2.3-5,.8-1.2,1.4-1.2,2.9.4,2.9,1,3.3,2.7.6,6.3.8,7,.8,8.2,1.8,1.9,3,1.9,6.1-.7,6.2-2.2,7.3-4.7,1.6-9.6,1.6-7.5-.5-8.9-1.6-2.2-3.3-2.2-6.6v-1h5.2v.6c0,2,.4,3.2,1.1,3.6s2.6.7,5.6.7,4-.3,4.7-.8,1-1.7,1-3.5a3.9,3.9,0,0,0-.8-2.8,6.4,6.4,0,0,0-3.3-.8l-2.9-.2c-4.5-.2-7.4-.9-8.7-1.9s-1.8-3.1-1.8-6.3.7-5.5,2.2-6.6,4.5-1.7,9-1.7,7.2.5,8.7,1.5,2.2,3,2.2,6Z" fill="#ffd12d"/><path d="M307.9,88.4h-1.7c.1-1.6.1-2.9.1-3.9,0-2.9-.6-5-1.8-6.1a6.2,6.2,0,0,0-4.6-1.8c-2.5,0-5,1-7.7,3.1s-5,5.1-6.9,9.3a32.3,32.3,0,0,0-2.8,13.2c0,4.3.8,7.7,2.6,10a8.2,8.2,0,0,0,6.7,3.5c3.7,0,7-2.2,10-6.6.4-.4.7-.6,1-.6a.8.8,0,0,1,.7.2.9.9,0,0,1,.3.6q0,.9-2.1,3.3a15,15,0,0,1-5.2,4.1,13.5,13.5,0,0,1-6.2,1.7,13.8,13.8,0,0,1-6.9-1.9,13.1,13.1,0,0,1-4.9-5.5,20.1,20.1,0,0,1-1.7-8.5,29.9,29.9,0,0,1,3.5-13.6,29.2,29.2,0,0,1,9-10.5,19,19,0,0,1,10.5-3.6,14.7,14.7,0,0,1,3.6.4l6.5,2.1A38.1,38.1,0,0,0,307.9,88.4Z" fill="#ffd12d"/><path d="M119.9,88.4h-1.7c.1-1.6.2-2.9.2-3.9,0-2.9-.6-5-1.8-6.1a6.5,6.5,0,0,0-4.6-1.8,12.8,12.8,0,0,0-7.8,3.1A23.9,23.9,0,0,0,97.4,89a32.4,32.4,0,0,0-2.9,13.2c0,4.3.9,7.7,2.7,10a8.2,8.2,0,0,0,6.7,3.5c3.6,0,7-2.2,10-6.6a1.2,1.2,0,0,1,1-.6,1,1,0,0,1,.7.2,1.4,1.4,0,0,1,.2.6c0,.6-.7,1.7-2,3.3a15.4,15.4,0,0,1-5.3,4.1,13.2,13.2,0,0,1-6.2,1.7,13.7,13.7,0,0,1-6.8-1.9,12.5,12.5,0,0,1-4.9-5.5,18.7,18.7,0,0,1-1.8-8.5,28.8,28.8,0,0,1,3.6-13.6,30,30,0,0,1,8.9-10.5,19,19,0,0,1,10.5-3.6,15,15,0,0,1,3.7.4l6.4,2.1A41.8,41.8,0,0,0,119.9,88.4Z" fill="#ffd12d"/><path d="M323.2,84.7c5.2,0,8.5.9,10,2.6s2.2,5.5,2.2,11.5-.7,10.6-2.2,12.3-5.1,2.5-10.8,2.5-8.5-.8-10.1-2.5-2.2-5.3-2.2-11,.7-11,2.2-12.8S317.4,84.7,323.2,84.7Zm-.4,4.6c-3.6,0-5.7.5-6.3,1.4s-.9,4.2-.9,9.7.3,6.5,1,7.4,2.8,1.2,6.3,1.2,5.4-.5,6.1-1.4,1-3.8,1-8.5-.4-7.6-1-8.5S326.3,89.3,322.8,89.3Z" fill="#ffd12d"/><path d="M344.5,89.5v7.7h12.7v4.5H344.5v11.7h-5.4V85h18.8v4.5Z" fill="#ffd12d"/><path d="M366.6,89.5v7.7h12.7v4.5H366.6v11.7h-5.4V85H380v4.5Z" fill="#ffd12d"/><path d="M388.1,89.5v7.3h13.3v4H388.1v8h14.2v4.6H382.7V85h19.5v4.5Z" fill="#ffd12d"/><path d="M411.1,89.5v7.3h13.4v4H411.1v8h14.2v4.6H405.7V85h19.5v4.5Z" fill="#ffd12d"/><path d="M524.2,69.5c-5.1,3.9-14.4,2.8-20.2,2.5-26.2-1.5-52.2-8.6-77.2-15.7-45.8-13-90-32.1-138.3-33.4-30-.7-60.6,4.7-87.4,18.6-8.6,4.4-16.7,8.8-23.7,15.3,11.6.8,23.3,2.2,34.8,3.9,3.4.5,2,5.6-1.4,5.1-25.4-3.7-51.1-5.6-76.8-4.5-28.9,1.2-58.1,6-85.1,16.7A160.9,160.9,0,0,0,28,88.1c-1.7,1.1-3.5,2.1-5.2,3.3a8.3,8.3,0,0,1-1.5,1.1l.2-.2c-2.6,2.1-6.4-1.6-3.7-3.8a82,82,0,0,1,9.3-6C46,71.8,67.4,65.2,88.7,61.1c26.9-5.2,54.3-6.3,81.5-4.8,9.4-9.6,22.1-16.8,34.1-22.4,28-13,59.3-17.7,90.1-16.1,47.6,2.5,91.3,21.5,136.7,34.1,24.2,6.8,49.6,13.9,74.8,14.9,4.2.1,8.9.2,12.4-.6l2.2-.6c-.2,0,1-.7.2-.1C523.3,63.8,526.9,67.4,524.2,69.5Z" fill="#ffd12d"/></svg>