<svg xmlns="http://www.w3.org/2000/svg" width="7.6in" height="240" viewBox="0 0 546 178"><path fill="#231f20" d="M242.2 108.8a10.2 10.2 0 0 0 1.1-2.9 17.3 17.3 0 0 0 .3-3.2 13.4 13.4 0 0 0-.5-3.5 10.1 10.1 0 0 0-1.8-3.2l-1.9-.2-1-.2-.5-.3-.2-.4c0-.2.1-.3.2-.5l.6-.5.7-.4.8-.3a11 11 0 0 1 2.9 1.1h5.5l2.5-.3 2.5-.3a3.5 3.5 0 0 1 .3 1.2 1.6 1.6 0 0 1-.3.9l-1 .5-1.6.2H245a9.1 9.1 0 0 1 .7 1.4 7.8 7.8 0 0 1 .5 1.4 5 5 0 0 1 .2 1.2 3.8 3.8 0 0 1 .1 1 14.1 14.1 0 0 1-.8 4.4 21.3 21.3 0 0 1-2.1 4.3 26.9 26.9 0 0 0 2.8 2.2 28.5 28.5 0 0 0 2.6 1.7l2.3 1.1 1.9.3h1.7l1.5-.4.4 1.4-1.3.6-1.6.6-1.9.5-1.9.2-1.9-.3-2.2-1a15.8 15.8 0 0 1-2.4-1.5 22.6 22.6 0 0 1-2.6-2 12.1 12.1 0 0 1-2.4 2.1 22.6 22.6 0 0 1-2.6 1.3l-2.9 1a15.4 15.4 0 0 1-3 .4 12.2 12.2 0 0 1-4.3-.8 10.1 10.1 0 0 1-6-5.7 11.1 11.1 0 0 1-.9-4.6 10.7 10.7 0 0 1 .7-4.1 9.9 9.9 0 0 1 1.7-3.4 15.5 15.5 0 0 1 2.4-2.7 25.5 25.5 0 0 1 2.8-2.1 27.6 27.6 0 0 1-1.5-4.3 15.1 15.1 0 0 1-.6-4.1 9.4 9.4 0 0 1 .7-3.7 8.1 8.1 0 0 1 2.1-3 8.6 8.6 0 0 1 2.9-2.1 8.4 8.4 0 0 1 3.5-.7 7.1 7.1 0 0 1 2.6.4 6.7 6.7 0 0 1 2 1.2 5.7 5.7 0 0 1 1.2 1.8 6.1 6.1 0 0 1 .4 2.4 9.3 9.3 0 0 1-.4 2.7 14.8 14.8 0 0 1-1.6 3 23.8 23.8 0 0 1-2.7 3.1 20.6 20.6 0 0 1-4.2 3c.7 1.3 1.5 2.5 2.3 3.8s1.8 2.5 2.8 3.7l3 3.5zm-14.8-12.1a12.9 12.9 0 0 0-1.7 1.6 13.7 13.7 0 0 0-1.3 2 8.5 8.5 0 0 0-.9 2.2 11.5 11.5 0 0 0-.3 2.6 11.7 11.7 0 0 0 .8 4.5 10.5 10.5 0 0 0 2.1 3.1 10 10 0 0 0 2.9 1.8 9.6 9.6 0 0 0 3.3.6l2-.2 2-.6 1.8-.9 1.5-1.2-3.4-3.4a39 39 0 0 1-3.3-3.8 39.1 39.1 0 0 1-3-4.1 30.9 30.9 0 0 1-2.5-4.2zm2.7-3.6a9.7 9.7 0 0 0 2.7-2.1 9.4 9.4 0 0 0 1.8-2.4 11.2 11.2 0 0 0 1.1-2.5 8.9 8.9 0 0 0 .3-2.2 5.7 5.7 0 0 0-.3-1.8 3.9 3.9 0 0 0-.8-1.4 5.2 5.2 0 0 0-1.1-1 4.1 4.1 0 0 0-1.6-.3 3.1 3.1 0 0 0-2 .5 3.3 3.3 0 0 0-1.3 1.3 5.4 5.4 0 0 0-.8 1.9 14.9 14.9 0 0 0-.2 2.1 13.1 13.1 0 0 0 .6 3.8 26.6 26.6 0 0 0 1.6 4.1zm7.3 54.5h-.9c-.1 0 0-.2 0-.2h.1l.7-.2 4.3-1.2 2.9-.8 3-1.1a21.1 21.1 0 0 0 3-1.6 5.6 5.6 0 0 0 2.2-2.1 1.9 1.9 0 0 0 .2-1.3v-1l-.2-.3a4.8 4.8 0 0 0-1.8-2.4 9.4 9.4 0 0 0-2.6-1.4l-2.8-.7-4.4-.3h-1.7l1.6-.5a24.7 24.7 0 0 1 4.6-.5l3.1.3a12.2 12.2 0 0 1 3.4 1.4 8.3 8.3 0 0 1 2.6 3.2l.2.5v1.4a4 4 0 0 1-.4 2.4 7.8 7.8 0 0 1-3 3 16.8 16.8 0 0 1-3.4 1.5l-3.3.9-3 .5a29.3 29.3 0 0 1-4.5.4h-.8c0 .1.1-.2 0-.2h.8z"/><path fill="#231f20" d="M255 121.8a1.7 1.7 0 0 0-1.4 0c-10.3 5.3-25.1 7.9-34.4-1.1a1.2 1.2 0 0 0-.8-.4 1.7 1.7 0 0 0-1.4.9c-3.8 8.7-6.1 20.1-2.2 29s14.2 10 22.6 8.7c10-1.5 21-6.8 24.6-16.9a17.5 17.5 0 0 0-7-20.2zm3.9 8.5a14 14 0 0 1-.2 12.3c-5.1 11.3-22.6 16.7-34 13s-9.9-21.6-5.9-31.7c5.3 4.2 12.8 5.8 19.3 5.4a39.4 39.4 0 0 0 11.3-2.5c.4-.2 3.5-2 4.3-2.6a13.5 13.5 0 0 1 5.2 6.1z"/><path fill="#231f20" d="M218.4 120.3a1.7 1.7 0 0 0-1.4.9.3.3 0 0 1 .1-.2 1.1 1.1 0 0 1 1.3-.7zm31.3-28.2l-1.5-1.5c.4-.5 10.7-11.4 1.5-20.8l-3.2-3.2c-7.6-7.6-8.7-9.1-2.5-17.9l1.7 1.3c-5.3 7.5-4.9 7.9 2.3 15l3.2 3.3c10.7 10.9-1.4 23.6-1.5 23.8zm42.7 35.5q8.1 0 10.2 2.4c1.3 1.6 2 5.5 2 11.9s-.7 11-2 12.6-4.7 2.4-10.2 2.4-8.9-.8-10.3-2.4-1.9-5.7-1.9-12.3v-4.7c0-3.8.9-6.4 2.6-7.8s4.9-2.1 9.6-2.1zm0 2.7c-4.6 0-7.2.5-8 1.5s-1.1 4.5-1.1 10.4.3 9.4 1.1 10.4 3.4 1.5 8 1.5 7.2-.5 8-1.5 1.1-4.4 1.1-10.4v-4.6c0-3.1-.5-5.1-1.6-6s-3.6-1.3-7.5-1.3zm25.9.6v25.7h-3.2v-25.7h-9.4v-3h21.9v3zm22.1 0v25.7h-3.2v-25.7h-9.3v-3h21.8v3zm29.8 19.6h-14.5l-2.2 6.1h-3.4l10.5-28.7h4.5l10.7 28.7h-3.4zm-.9-2.4l-6.4-17.6-6.3 17.6zm49.6-20.2l-9 28.7H405l-6.1-20.7-.7-2.6a4.9 4.9 0 0 1-.4-1.2l-.3-1.3h-.1l-.4 1.3-.3 1.3-.8 2.6-6.2 20.6h-4.8l-8.8-28.7h3.3l6.2 20.6.8 2.8a9.3 9.3 0 0 1 .5 1.4l.4 1.4.4-1.4.4-1.4.8-2.8 6.1-20.6h4.8l6.1 20.7.8 2.7.4 1.4.4 1.4.5-1.4.4-1.4.8-2.8 6.3-20.6zm20.5 22.6h-14.5l-2.3 6.1h-3.4l10.5-28.7h4.6l10.7 28.7h-3.4zm-1-2.4l-6.3-17.6-6.3 17.6zm-299.1-39.8h-12.4l-1.7 5.5h-5.8l9.5-28.7h8.2l9.7 28.7h-5.7zm-1.2-4l-5-14.9-4.9 14.9zm11.2 9.5V85.1h14.1c3.5 0 6 .6 7.3 1.9s2 3.4 2 6.6-.4 4.9-1 5.9-2 1.8-4.1 2.2v.2c3.2.2 4.8 2.1 4.8 5.6v6.3h-5.5v-5.2c0-3-1.4-4.5-4.3-4.5h-7.9v9.7zm5.4-14.2h7.8c1.9 0 3.1-.4 3.7-1a6.2 6.2 0 0 0 1-4c0-2.1-.3-3.4-.8-4s-1.7-.9-3.5-.9h-8.2zm43.6-6.1H193a1.8 1.8 0 0 1-.1-.6c-.1-1.6-.4-2.6-1-3s-2-.6-4.2-.6-4.3.2-5 .7-1.2 1.4-1.2 3 .3 2.9.9 3.2 2.8.7 6.4.9 7.1.8 8.3 1.8 1.9 3 1.9 6.1-.7 6.3-2.2 7.4-4.7 1.7-9.7 1.7-7.6-.6-9-1.7-2.2-3.3-2.2-6.6v-1.1h5.3v.6c0 2 .4 3.3 1.1 3.7s2.6.7 5.7.7 4-.3 4.7-.8 1-1.7 1-3.6-.2-2.3-.8-2.7-1.6-.8-3.3-.9l-3-.2c-4.5-.2-7.4-.9-8.7-1.8s-1.9-3.2-1.9-6.5.8-5.5 2.3-6.6 4.6-1.7 9.1-1.7 7.2.5 8.7 1.5 2.3 3 2.3 6zm110.4-4.9H307c.1-1.6.1-2.9.1-3.9 0-3-.6-5.1-1.8-6.2a6.4 6.4 0 0 0-4.7-1.8 12.3 12.3 0 0 0-7.7 3.1c-2.7 2-5 5.2-7 9.5a32.4 32.4 0 0 0-2.9 13.2c0 4.4.9 7.8 2.7 10.1a8.1 8.1 0 0 0 6.8 3.5c3.7 0 7-2.2 10.1-6.6.3-.4.6-.7 1-.7a1.1 1.1 0 0 1 .7.3.7.7 0 0 1 .2.6c0 .6-.7 1.7-2 3.4a18.3 18.3 0 0 1-5.3 4.1 13.5 13.5 0 0 1-6.3 1.7 12.9 12.9 0 0 1-6.9-2 12.5 12.5 0 0 1-4.9-5.5 18.7 18.7 0 0 1-1.8-8.5 29.6 29.6 0 0 1 3.6-13.8 28.4 28.4 0 0 1 9-10.5 18.8 18.8 0 0 1 10.6-3.8 22.1 22.1 0 0 1 3.7.4l6.5 2.2a38.8 38.8 0 0 0-2 11.2zm-189.7 0h-1.7c.1-1.6.1-2.9.1-3.9 0-3-.6-5.1-1.8-6.2a6.6 6.6 0 0 0-4.7-1.8 12.8 12.8 0 0 0-7.8 3.1 24.1 24.1 0 0 0-6.9 9.5 32.4 32.4 0 0 0-2.9 13.2c0 4.4.9 7.8 2.7 10.1a8.1 8.1 0 0 0 6.8 3.5c3.6 0 7-2.2 10.1-6.6.3-.4.6-.7 1-.7a1.1 1.1 0 0 1 .7.3 1.4 1.4 0 0 1 .2.6c0 .6-.7 1.7-2.1 3.4a17.8 17.8 0 0 1-5.2 4.1 13.9 13.9 0 0 1-6.3 1.7 12.9 12.9 0 0 1-6.9-2 13.4 13.4 0 0 1-5-5.5 20.1 20.1 0 0 1-1.7-8.5 29.6 29.6 0 0 1 3.6-13.8 28.4 28.4 0 0 1 9-10.5 18.8 18.8 0 0 1 10.6-3.8 23.3 23.3 0 0 1 3.7.4l6.5 2.2a38.8 38.8 0 0 0-2 11.2zm205.2-3.7c5.2 0 8.6.8 10 2.6s2.3 5.6 2.3 11.6-.8 10.7-2.3 12.4-5.1 2.6-10.9 2.6-8.6-.9-10.1-2.6-2.3-5.4-2.3-11.1.8-11.1 2.3-12.9 5.1-2.6 11-2.6zm-.4 4.6c-3.7 0-5.8.5-6.4 1.5s-1 4.1-1 9.7c0 4.1.4 6.6 1.1 7.4s2.9 1.3 6.4 1.3 5.4-.5 6.1-1.4 1-3.8 1-8.6-.3-7.7-1-8.5-2.7-1.4-6.2-1.4zm21.8.2v7.7h12.9v4.6h-12.9v11.8h-5.4V85.1h19v4.6zm22.3 0v7.7h12.9v4.6h-12.9v11.8h-5.4V85.1h19v4.6zm21.8 0v7.4h13.4v4h-13.4v8.1H404v4.6h-19.8V85.1h19.7v4.6zm23.2 0v7.4h13.5v4h-13.5v8.1h14.3v4.6h-19.7V85.1h19.6v4.6z"/><path fill="#231f20" d="M527.1 69.5c-5.2 3.9-14.6 2.9-20.5 2.5-26.4-1.5-52.6-8.7-77.9-15.8-46.2-13.1-90.8-32.4-139.6-33.7-30.3-.8-61.1 4.7-88.2 18.7-8.6 4.5-16.9 9-23.9 15.5 11.7.9 23.5 2.2 35.1 4 3.4.5 2 5.6-1.4 5.1a419.2 419.2 0 0 0-77.6-4.6c-29.1 1.3-58.6 6.1-85.8 16.9a157.8 157.8 0 0 0-21.1 10.2L21 91.6l-1.6 1.2.3-.2c-2.7 2.1-6.6-1.7-3.8-3.8a58.2 58.2 0 0 1 9.4-6.1C44.4 71.8 66 65.2 87.5 61.1c27.1-5.3 54.7-6.4 82.2-4.9 9.5-9.7 22.3-16.9 34.4-22.6C232.4 20.5 264 15.8 295 17.4c48.1 2.5 92.3 21.6 138.1 34.4 24.4 6.8 50 13.9 75.5 15 4.2.1 9 .2 12.4-.6l2.3-.7c-.2 0 1-.7.2 0 2.7-1.7 6.2 1.9 3.6 4z"/></svg>