<?xml version="1.0" encoding="utf-8"?>
<!-- Generator: Adobe Illustrator 21.1.0, SVG Export Plug-In . SVG Version: 6.00 Build 0)  -->
<svg version="1.1" xmlns="http://www.w3.org/2000/svg" xmlns:xlink="http://www.w3.org/1999/xlink" x="0px" y="0px"
	 viewBox="0 0 1224 792" style="enable-background:new 0 0 1224 792;" xml:space="preserve">
<style type="text/css">
	.st0{fill:#D7EFF3;}
	.st1{opacity:0.65;fill:#95D7DF;}
	.st2{opacity:0.65;fill:url(#SVGID_1_);}
	.st3{fill:#4DA847;}
	.st4{opacity:0.11;fill:url(#SVGID_2_);}
	.st5{opacity:0.11;fill:url(#SVGID_3_);}
	.st6{opacity:0.65;fill:url(#SVGID_4_);}
	.st7{opacity:0.65;fill:#0D696B;}
	.st8{fill:#1D3A1C;}
	.st9{fill:#2D4F25;}
	.st10{fill:#1E351A;}
	.st11{fill:#F7F7F7;}
	.st12{fill:#E2E2E2;}
	.st13{fill:#6A8C61;}
	.st14{fill:#ED1E2B;}
	.st15{fill:#FFFFFF;}
	.st16{opacity:0.28;fill:#4DACD6;}
	.st17{fill:#FCF3C5;}
	.st18{fill:#BCB7A1;}
	.st19{fill:#F7E37E;}
	.st20{fill:#E0CC77;}
	.st21{fill:#F8E69C;}
	.st22{fill:#EF3E3D;}
	.st23{fill:#ED2124;}
	.st24{fill:#EAEAEA;}
	.st25{fill:#F15B5A;}
	.st26{fill:#A09F9F;}
	.st27{fill:#513929;}
	.st28{fill:#5A493D;}
	.st29{fill:#6B8438;}
	.st30{fill:#5E7232;}
	.st31{fill:#505E2A;}
	.st32{fill:#2C4F25;}
	.st33{fill:#319E48;}
	.st34{fill:#3CB54A;}
	.st35{fill:#75C154;}
	.st36{fill:#437F3C;}
	.st37{fill:#5C5C5C;}
	.st38{fill:#707674;}
	.st39{fill:#969291;}
	.st40{fill:#CFC9C9;}
	.st41{fill:#93D9F8;stroke:#A58E7A;stroke-width:0.5;stroke-miterlimit:10;}
	.st42{fill:#5A6333;}
	.st43{fill:#4C5A28;}
	.st44{fill:#3C4420;}
	.st45{fill:#274727;}
	.st46{fill:#233D23;}
	.st47{fill:#747576;}
	.st48{fill:#A49467;}
	.st49{fill:#E0CB8E;}
	.st50{fill:#56422B;}
	.st51{fill:none;stroke:#836B54;stroke-width:0.25;stroke-linecap:round;stroke-linejoin:round;stroke-miterlimit:10;}
	.st52{fill:#80653B;}
	.st53{fill:#785A25;}
	.st54{fill:#9E8152;}
	.st55{fill:none;stroke:#8A6A42;stroke-width:0.25;stroke-linecap:round;stroke-linejoin:round;stroke-miterlimit:10;}
	.st56{fill:none;stroke:#694E22;stroke-width:0.25;stroke-linecap:round;stroke-linejoin:round;stroke-miterlimit:10;}
	.st57{fill:#2A5A7F;}
	.st58{fill:#22506D;}
	.st59{fill:#184777;}
	.st60{fill:#113A5B;}
	.st61{fill:#EF3A24;}
	.st62{display:none;}
	.st63{display:inline;fill:#513929;}
	.st64{display:inline;fill:#5A493D;}
	.st65{display:inline;fill:#4C5A28;}
	.st66{display:inline;fill:#5A6333;}
	.st67{display:inline;fill:#3C4420;}
	.st68{display:inline;fill:#5E7232;}
	.st69{display:inline;fill:#6B8438;}
	.st70{display:inline;fill:#505E2A;}
	.st71{fill:#49C8F0;}
	.st72{fill:#ECEDED;}
	.st73{fill:none;stroke:#DCDBDB;stroke-width:3;stroke-miterlimit:10;}
	.st74{fill:#C1CFD0;}
	.st75{fill:#767878;}
	.st76{fill:none;stroke:#787878;stroke-width:0.75;stroke-miterlimit:10;}
	.st77{fill:#393A3A;}
	.st78{fill:#A5A4A4;stroke:#A5A4A4;stroke-width:3;stroke-linecap:round;stroke-linejoin:round;stroke-miterlimit:10;}
	.st79{fill:#F3C616;}
	.st80{opacity:0.36;fill:#FFFFFF;}
	.st81{fill:#4C4C4D;}
	.st82{fill:#8E8E8E;}
	.st83{fill:#B0B0B0;}
	.st84{fill:#CCCCCD;}
	.st85{fill:#A5A4A4;}
	.st86{fill:#1E2658;}
	.st87{fill:#A2CD3A;}
	.st88{fill:none;stroke:#BCB7A1;stroke-linecap:round;stroke-linejoin:round;stroke-miterlimit:10;}
	.st89{fill:#CFCFCE;}
	.st90{fill:#F48327;}
	.st91{fill:#D67028;}
	.st92{fill:#E9A662;}
	.st93{fill:#D96F27;}
	.st94{fill:#FAAF1C;}
	.st95{fill:#E86924;}
	.st96{fill:#D82F27;}
	.st97{fill:#2B1811;}
	.st98{fill:#331A0F;}
	.st99{fill:#4D2E20;}
	.st100{fill:#472816;}
	.st101{fill:#482718;}
	.st102{fill:#24120C;}
	.st103{fill:#59392F;}
	.st104{fill:#F0EFEF;}
	.st105{fill:#5C382A;}
	.st106{fill:#27140E;}
	.st107{fill:#4D3021;}
	.st108{fill:#22100A;}
	.st109{fill:#704E44;}
	.st110{fill:#FDFEFE;}
	.st111{fill:none;stroke:#845F25;stroke-width:0.5;stroke-linecap:round;stroke-linejoin:round;stroke-miterlimit:10;}
	.st112{fill:#845F25;}
	.st113{fill:#BB8C2D;stroke:#BB8C2D;stroke-linecap:round;stroke-linejoin:round;stroke-miterlimit:10;}
	.st114{fill:#F3B61B;stroke:#F3B61B;stroke-linecap:round;stroke-linejoin:round;stroke-miterlimit:10;}
	.st115{fill:none;stroke:#E8AA22;stroke-width:0.5;stroke-linecap:round;stroke-linejoin:round;stroke-miterlimit:10;}
	.st116{fill:none;stroke:#845F25;stroke-linecap:round;stroke-linejoin:round;stroke-miterlimit:10;}
	.st117{fill:#6C4F1F;stroke:#6C4F1F;stroke-linecap:round;stroke-linejoin:round;stroke-miterlimit:10;}
	.st118{fill:#33A5BF;stroke:#33A5BF;stroke-linecap:round;stroke-linejoin:round;stroke-miterlimit:10;}
	.st119{fill:#134851;stroke:#134851;stroke-linecap:round;stroke-linejoin:round;stroke-miterlimit:10;}
	.st120{fill:#51BFD1;stroke:#51BFD1;stroke-linecap:round;stroke-linejoin:round;stroke-miterlimit:10;}
	.st121{fill:#19A9D5;}
	.st122{fill:#1D9EBC;}
	.st123{fill:#E8EDEE;}
	.st124{fill:#ABAEAF;}
	.st125{fill:#41B8EA;}
	.st126{fill:#EFF6E1;}
	.st127{fill:#999999;}
	.st128{fill:#F26622;}
	.st129{fill:#959696;}
	.st130{fill:#7E7F7F;}
	.st131{fill:#434444;}
	.st132{fill:#7F7F7F;}
	.st133{fill:none;stroke:#E2E3E3;stroke-width:0.75;stroke-miterlimit:10;}
	.st134{fill:#1C1D1D;}
	.st135{fill:none;stroke:#E2E3E3;stroke-width:0.5;stroke-linecap:round;stroke-miterlimit:10;}
	.st136{fill:none;stroke:#E2E3E3;stroke-width:0.5;stroke-linecap:round;stroke-linejoin:round;stroke-miterlimit:10;}
	.st137{fill:#CC773E;}
	.st138{fill:#EB8A42;}
	.st139{fill:#563621;}
	.st140{fill:#8D5934;}
	.st141{fill:#4AB749;}
	.st142{fill:#C4C3C2;}
	.st143{fill:#E8ECEB;}
	.st144{fill:#41BFB4;}
	.st145{fill:#AEADAE;}
	.st146{fill:#41AA9D;}
	.st147{fill:none;stroke:#D3C272;stroke-linecap:round;stroke-linejoin:round;stroke-miterlimit:10;}
	.st148{fill:#3C3D3B;}
	.st149{fill:#333333;}
	.st150{fill:#686866;}
	.st151{fill:#C9A72D;}
	.st152{fill:none;stroke:#8E8E8D;stroke-width:0.5;stroke-miterlimit:10;}
	.st153{fill:#F47820;}
	.st154{fill:#ED2024;}
	.st155{fill:none;stroke:#030403;stroke-width:0.5;stroke-linecap:round;stroke-linejoin:round;stroke-miterlimit:10;}
	.st156{fill:#CCCCCB;}
	.st157{fill:#B0B0AF;}
	
		.st158{clip-path:url(#SVGID_6_);fill:none;stroke:#A3A3A3;stroke-width:0.25;stroke-linecap:round;stroke-linejoin:round;stroke-miterlimit:10;}
	
		.st159{clip-path:url(#SVGID_6_);fill:none;stroke:#CACCCB;stroke-width:0.25;stroke-linecap:round;stroke-linejoin:round;stroke-miterlimit:10;}
	.st160{opacity:0.31;}
	
		.st161{clip-path:url(#SVGID_8_);fill:none;stroke:#A3A3A3;stroke-width:0.25;stroke-linecap:round;stroke-linejoin:round;stroke-miterlimit:10;}
	
		.st162{clip-path:url(#SVGID_8_);fill:none;stroke:#CACCCB;stroke-width:0.25;stroke-linecap:round;stroke-linejoin:round;stroke-miterlimit:10;}
	.st163{fill:none;stroke:#171614;stroke-width:0.25;stroke-miterlimit:10;}
	.st164{fill:#2A6431;}
	.st165{fill:#26512A;}
	.st166{fill:#0276A4;}
	.st167{fill:#00608F;}
	.st168{fill:#0093BD;}
	.st169{fill:none;stroke:#929293;stroke-width:0.25;stroke-linecap:round;stroke-linejoin:round;stroke-miterlimit:10;}
	.st170{fill:#023C49;}
	.st171{fill:none;stroke:#05647B;stroke-width:0.25;stroke-linecap:round;stroke-linejoin:round;stroke-miterlimit:10;}
	.st172{fill:#604A1D;}
	.st173{fill:#AF9465;}
	.st174{fill:#93722E;}
	.st175{fill:#3A3A38;}
	.st176{fill:#727170;}
	.st177{fill:#5E5F5E;}
	.st178{fill:#B58E5A;}
	.st179{fill:#A88051;}
	.st180{fill:#BB9970;}
	.st181{fill:#9B774A;}
	.st182{fill:#4B3623;}
	.st183{fill:#6A4B31;}
	.st184{fill:#CCB48E;}
	.st185{fill:#B89168;}
	.st186{fill:#ECEBD5;}
	.st187{fill:#D3C19B;}
	.st188{fill:#C9A784;}
	.st189{fill:#C3A17E;}
	.st190{fill:#7B5938;}
	.st191{fill:#B08454;}
	.st192{fill:#B78C62;}
	.st193{fill:#3F291D;}
	.st194{fill:#805F3B;}
	.st195{fill:#231D19;}
	.st196{fill:#DDD7C3;}
	.st197{fill:#4DACD6;}
	.st198{fill:none;stroke:#3692B2;stroke-width:0.25;stroke-linecap:round;stroke-linejoin:round;stroke-miterlimit:10;}
	.st199{fill:none;stroke:#076A7F;stroke-linecap:round;stroke-linejoin:round;stroke-miterlimit:10;}
	.st200{fill:#05789B;}
	.st201{fill:#0B515B;}
	.st202{fill:#076A7F;}
	.st203{fill:#0C7887;}
	.st204{fill:#44ABE0;}
	.st205{fill:#67C9F1;}
	.st206{fill:#072933;}
	.st207{fill:#77D1F2;}
	.st208{fill:none;stroke:#072933;stroke-width:0.75;stroke-linecap:round;stroke-linejoin:round;stroke-miterlimit:10;}
	.st209{fill:#4FB1D8;}
	.st210{fill:#55C3F0;}
	.st211{opacity:0.58;fill:#BCB7A1;}
	.st212{fill:#F29368;}
	.st213{fill:#E27247;}
	.st214{fill:#6ECBD6;}
	.st215{fill:#AF489B;}
	.st216{fill:#EFBDB1;}
	.st217{fill:#FEE000;}
	.st218{fill:#E77D24;}
	.st219{fill:#EEB933;}
	.st220{fill:#D7A928;}
	.st221{fill:#CE6B28;}
	.st222{fill:#49575A;}
	.st223{fill:#303D43;}
	.st224{fill:#19783C;}
	.st225{fill:#383C3D;}
	.st226{fill:#45B649;}
	.st227{fill:#CD2027;}
	.st228{fill:#FCB116;}
	.st229{opacity:0.5;fill:#526063;}
	.st230{fill:none;stroke:#E77D24;stroke-width:0.5;stroke-linecap:round;stroke-linejoin:round;stroke-miterlimit:10;}
	.st231{opacity:0.41;}
	.st232{fill:#AF5B27;}
	.st233{fill:#818182;}
	.st234{fill:#595B5C;}
	.st235{fill:#9B9E9F;}
	.st236{opacity:0.87;fill:#A8A8A8;}
	.st237{fill:#0A3250;}
	.st238{fill:none;stroke:#BCB7A1;stroke-width:5;stroke-linecap:round;stroke-linejoin:round;stroke-miterlimit:10;}
	.st239{fill:none;stroke:#D3C272;stroke-width:5;stroke-linecap:round;stroke-linejoin:round;stroke-miterlimit:10;}
	.st240{fill:none;stroke:#030403;stroke-width:3;stroke-linecap:round;stroke-linejoin:round;stroke-miterlimit:10;}
	.st241{fill:none;stroke:#076A7F;stroke-width:3;stroke-linecap:round;stroke-linejoin:round;stroke-miterlimit:10;}
	.st242{fill:#DEDFE0;}
	.st243{fill:none;}
	.st244{clip-path:url(#SVGID_11_);}
	.st245{opacity:0.65;fill:url(#SVGID_12_);}
	.st246{opacity:0.11;fill:url(#SVGID_13_);}
	.st247{opacity:0.11;fill:url(#SVGID_14_);}
	.st248{opacity:0.65;fill:url(#SVGID_15_);}
	
		.st249{clip-path:url(#SVGID_17_);fill:none;stroke:#A3A3A3;stroke-width:0.25;stroke-linecap:round;stroke-linejoin:round;stroke-miterlimit:10;}
	
		.st250{clip-path:url(#SVGID_17_);fill:none;stroke:#CACCCB;stroke-width:0.25;stroke-linecap:round;stroke-linejoin:round;stroke-miterlimit:10;}
	
		.st251{clip-path:url(#SVGID_19_);fill:none;stroke:#A3A3A3;stroke-width:0.25;stroke-linecap:round;stroke-linejoin:round;stroke-miterlimit:10;}
	
		.st252{clip-path:url(#SVGID_19_);fill:none;stroke:#CACCCB;stroke-width:0.25;stroke-linecap:round;stroke-linejoin:round;stroke-miterlimit:10;}
</style>
<g id="Background">
	<g id="Lake">
	</g>
</g>
<g id="Guides">
</g>
<g id="Elements">
	<g>
		<g>
			<path class="st18" d="M864.7,156.1l-4.8,0.5l-15.7,1.8l-3.5,19.9l-19,6.2l-3.2,7l0,0.1l6.7,3.9l18.8-6.1l14.6,14l15.6-8.7
				l2.6-1.4l3,3.2l8.2-5l4.3-2.6l0.1-0.1l3.5,3.9L971,142l-90.8,2.9l-0.5,5.4l0.2,0l-0.2,0l0,0l-4.9,0.4l-9.5,0.8L864.7,156.1z
				 M890.9,153.2L890.9,153.2l0.1-0.1l0,0.1L890.9,153.2z"/>
		</g>
		<g>
			<g>
				<polygon class="st27" points="833.9,191 825.7,195.7 825.6,175.5 833.9,172.7 				"/>
				<polygon class="st28" points="825.6,195.8 817.4,191 817.4,172.8 825.5,175.6 				"/>
				<polygon class="st29" points="792,164.3 797.8,145.9 825.6,153.8 825.5,175.6 				"/>
				<polygon class="st29" points="791.7,144.1 796.5,131.2 825.6,139.2 825.6,153.8 				"/>
				<polygon class="st29" points="825.5,50 825.5,139.3 789.4,129.4 				"/>
				<polygon class="st30" points="825.5,50 825.5,139.3 861.4,129.2 				"/>
				<polygon class="st30" points="859.3,144.1 854.5,131.2 825.5,139.3 825.5,154 				"/>
				<polygon class="st30" points="859.3,164.3 853.5,145.9 825.5,154.1 825.4,175.9 				"/>
				<polygon class="st31" points="796.5,131.2 825.5,139.3 825.5,144.3 794.8,135.6 				"/>
				<polygon class="st31" points="854.4,131.1 825.5,139.3 825.5,144.3 856.1,135.6 				"/>
				<polygon class="st31" points="797.8,145.9 825.5,154.1 825.5,158.6 796.4,150.2 				"/>
				<polygon class="st31" points="853.6,145.7 825.4,154.1 825.4,158.7 854.8,150.2 				"/>
			</g>
		</g>
	</g>
	<g>
		<polygon class="st18" points="323.3,613.1 479,575.2 257.7,535.5 		"/>
		<g>
			<g>
				<path class="st111" d="M366.1,523.9c0,0,6.7,20.8,32.8,38.6"/>
				<polygon class="st112" points="399.8,560.9 396.5,562.5 399.6,563.9 				"/>
			</g>
			<polygon class="st113" points="322.6,611.2 365.1,524.1 397.9,568.6 			"/>
			<polygon class="st114" points="274.4,473.1 365.1,524.1 322.6,611.2 232,560.1 			"/>
			<polyline class="st115" points="232,560.1 326.3,504.3 322.6,611.2 257.7,506.8 			"/>
			<g>
				<path class="st111" d="M274.8,472.5c0,0-26.4,63.4-50.3,87.9"/>
				<polygon class="st112" points="223.1,559.7 226.7,559.7 224.6,562.3 				"/>
			</g>
			<g>
				<path class="st111" d="M364.7,523.6c0,0-26.4,63.4-50.3,87.9"/>
				<polygon class="st112" points="313,610.8 316.6,610.8 314.5,613.4 				"/>
			</g>
			<polygon class="st117" points="342.9,591.3 367.3,541.3 386.2,566.9 			"/>
		</g>
	</g>
	<g>
		<polyline class="st238" points="665.2,633 841,594.1 951.2,656.5 800.9,687.6 		"/>
		<polyline class="st239" points="664.6,633.8 662.7,485.2 800.9,572.3 800.9,688.1 		"/>
		<path class="st149" d="M705.6,577.5c0-18.4,17-11.3,37.1-11.3s35.7-7.1,35.7,11.3c0,18.4-16.3,33.3-36.4,33.3
			C721.9,610.9,705.6,595.9,705.6,577.5z"/>
		<ellipse class="st150" cx="742.6" cy="572.6" rx="35.3" ry="18.4"/>
		<path class="st151" d="M775.5,576.4c0,0-5.4,13.7-34.4,13.9c-28.5,0.2-31.7-14.3-31.7-14.3s6.3-9.9,32.1-9.5
			C741.5,566.6,765.9,566.1,775.5,576.4z"/>
		<ellipse class="st152" cx="742.4" cy="572.6" rx="35.3" ry="18.4"/>
		<ellipse class="st153" cx="724.2" cy="573.2" rx="1.3" ry="1.4"/>
		<ellipse class="st153" cx="757.1" cy="580.2" rx="1.3" ry="1.4"/>
		
			<ellipse transform="matrix(0.9969 -7.868414e-02 7.868414e-02 0.9969 -43.6515 59.2194)" class="st153" cx="729.6" cy="583.5" rx="1.3" ry="1.4"/>
		<path class="st154" d="M748,583.8h-7c-0.1,0-0.1,0-0.1-0.1v-0.9c0-0.1,0-0.1,0.1-0.1h7c0.1,0,0.1,0,0.1,0.1v0.9
			C748.2,583.7,748.1,583.8,748,583.8z"/>
		<path class="st154" d="M765.6,574.8l-7,0c-0.1,0-0.1,0-0.1-0.1v-0.9c0-0.1,0-0.1,0.1-0.1h7c0.1,0,0.1,0,0.1,0.1v0.9
			C765.7,574.8,765.6,574.8,765.6,574.8z"/>
		<path class="st154" d="M741,573h-7c-0.1,0-0.1,0-0.1-0.1V572c0-0.1,0-0.1,0.1-0.1h7c0.1,0,0.1,0,0.1,0.1v0.9
			C741.1,573,741.1,573,741,573z"/>
		<path class="st240" d="M721.3,589.1c0,0-15.7-55.7,9.9-64.1c25.6-8.3,29.8,29.8,29.8,29.8"/>
		<line class="st239" x1="735" y1="530.4" x2="798.7" y2="570.6"/>
	</g>
	<g>
		<polygon class="st18" points="944,438.8 1043.8,414.9 1002.4,391.4 903.3,414.9 		"/>
		<g>
			<polyline class="st241" points="953.7,364.6 966.1,358.9 966.1,414.9 955.2,420.6 			"/>
			<polygon class="st200" points="958.1,429.5 943.2,438.1 943.2,365.3 958.1,356.7 			"/>
			<g>
				<polygon class="st201" points="956,390.5 950.6,393.6 950.6,376.7 956,373.6 				"/>
				<polygon class="st202" points="950.6,393.5 946.8,391.4 946.8,374.5 950.6,376.6 				"/>
				<polygon class="st203" points="956,373.5 950.6,376.7 946.8,374.5 952.4,371.4 				"/>
			</g>
			<g>
				<polygon class="st201" points="956.6,419.5 951.2,422.6 951.2,405.7 956.6,402.6 				"/>
				<polygon class="st202" points="951.2,422.6 947.4,420.4 947.4,403.5 951.2,405.7 				"/>
				<polygon class="st203" points="956.6,402.5 951.2,405.7 947.4,403.5 953,400.4 				"/>
			</g>
			<polygon class="st204" points="943.1,438.1 901.8,414.2 901.8,341.4 943.1,365.3 			"/>
			<polygon class="st205" points="943,386.4 901.7,362.5 901.9,341.4 943.2,365.3 			"/>
			<polygon class="st206" points="912.9,354.3 911.9,353.8 911.9,347.5 912.9,348 			"/>
			<polygon class="st206" points="932.8,365.8 931.8,365.3 931.8,359 932.8,359.6 			"/>
			<polygon class="st207" points="943.2,365.4 901.9,341.6 913.1,335 954.4,358.9 			"/>
			<path class="st200" d="M958,356.7c0,0-7.8-11.3-14.9,8.7L958,356.7z"/>
			<path class="st205" d="M914,330.8l41.1,23.2c0,0-7.5-2.1-11.9,11.4c-4.7-2.7-41.3-23.8-41.3-23.8S906.1,330,914,330.8z"/>
			<line class="st208" x1="901.9" y1="341.6" x2="943.2" y2="365.5"/>
			
				<ellipse transform="matrix(0.9783 -0.207 0.207 0.9783 -53.5263 196.5381)" class="st206" cx="912.5" cy="354.1" rx="1.1" ry="0.9"/>
			
				<ellipse transform="matrix(0.9783 -0.207 0.207 0.9783 -55.5323 200.9081)" class="st206" cx="932.4" cy="365.8" rx="1.1" ry="0.9"/>
			<g>
				<polygon class="st209" points="927.9,413.1 908.3,401.8 908.3,378.6 927.9,389.9 				"/>
				<polygon class="st200" points="933,410.2 927.9,413.1 927.9,389.9 933,387 				"/>
				<polygon class="st210" points="908.3,378.7 913.4,375.7 933,387 927.9,389.9 				"/>
				<line class="st208" x1="908.3" y1="379.1" x2="928.2" y2="390.4"/>
				<polygon class="st206" points="914.1,388.7 913.1,388.2 913.1,381.9 914.1,382.4 				"/>
				
					<ellipse transform="matrix(0.9783 -0.207 0.207 0.9783 -60.6686 197.5173)" class="st206" cx="913.6" cy="388.7" rx="1.1" ry="0.9"/>
				<polygon class="st206" points="921.9,393.4 920.9,392.8 920.9,386.5 921.9,387.1 				"/>
				
					<ellipse transform="matrix(0.9783 -0.207 0.207 0.9783 -61.4621 199.2416)" class="st206" cx="921.5" cy="393.4" rx="1.1" ry="0.9"/>
			</g>
		</g>
	</g>
	<g>
		<polygon class="st18" points="452.1,362.7 709.8,301.4 789.8,346.7 668.3,375.8 622.6,398.4 604.4,391 503.9,415 		"/>
		<polygon class="st71" points="545.1,359.3 480,321.7 492.9,292.2 558.1,329.8 		"/>
		<polygon class="st72" points="507.8,409.1 442.7,371.5 442.7,343.1 510.6,382.1 		"/>
		<polygon class="st11" points="493.5,290.4 597.7,230.4 662.7,268.3 558.6,328.3 		"/>
		<polygon class="st73" points="544.6,358 480.6,321.1 493.8,291.7 557.8,328.6 		"/>
		<polygon class="st11" points="510.6,382.1 442.7,343.1 479.8,321.7 545,359.3 		"/>
		<path class="st74" d="M507.8,409.1l0-16.8c0-7.2,3.8-13.8,10-17.4l27.1-15.7l14-31.2l103.5-59.6l-0.2,51.1L507.8,409.1z"/>
		<polygon class="st75" points="501.3,412.8 501.3,410.1 662,316.3 662.1,320 		"/>
		<line class="st76" x1="605.5" y1="352.5" x2="605.5" y2="302.1"/>
		<path class="st77" d="M540,390.7c-0.9-9.5,3.3-21.2,13.4-25.3c7.7-3.1,14.5,1.3,16,8"/>
		<path class="st77" d="M619.1,344.8c-0.9-9.5,3.3-21.2,13.4-25.3c7.7-3.1,14.5,1.3,16,8"/>
		<polygon class="st78" points="469.5,303.9 597.1,230.9 662.2,268.8 534.6,341.8 		"/>
		<polygon class="st74" points="660.5,268.8 534.6,340.8 534.6,331.3 660.5,259.4 		"/>
		<path class="st11" d="M534.6,340.8c0,0-0.6-8.8,17.6-19.2c18.2-10.4,108.3-62.2,108.3-62.2l-63.7-34.7l-112.9,59.4
			c0,0-12.9,9.5-12.3,19.7C477.8,307.7,534.6,340.8,534.6,340.8z"/>
		<line class="st74" x1="589.4" y1="361.3" x2="586.4" y2="308.2"/>
		<polygon class="st79" points="457.8,374.2 445.4,367 445.4,357 457.8,364.2 		"/>
		<polygon class="st79" points="504,400.6 491.6,393.4 491.6,383.4 504,390.6 		"/>
		<g>
			<polygon class="st72" points="595.4,275.3 572.8,262.2 572.8,257.9 595.4,270.9 			"/>
			<polygon class="st74" points="618,262.2 595.4,275.3 595.4,270.9 618,257.9 			"/>
			<polygon class="st15" points="595.4,270.9 572.9,257.9 595.4,244.8 618,257.9 			"/>
		</g>
		<g>
			<polygon class="st72" points="548.6,297.8 526,284.8 526,280.4 548.6,293.4 			"/>
			<polygon class="st74" points="571.2,284.8 548.6,297.8 548.6,293.5 571.2,280.4 			"/>
			<polygon class="st15" points="548.6,293.4 526,280.4 548.6,267.4 571.2,280.4 			"/>
		</g>
		<g>
			<path class="st71" d="M556.1,350.6l8.1-19.1c0.3-0.6,0.7-1.1,1.3-1.4l27.3-15c2-1.1,4.4,0.3,4.4,2.6v13.7c0,1.1-0.6,2-1.5,2.6
				l-35.5,20.4C557.9,355.7,555,353.2,556.1,350.6z"/>
			<polygon class="st80" points="597.2,326.5 582.1,321 585.2,319.3 597.3,323.8 			"/>
			<polygon class="st80" points="578,344.1 561.4,338.2 562.5,335.8 580.9,342.5 			"/>
			<polygon class="st80" points="597.3,329.3 579.2,322.6 580.7,321.7 597.4,328 			"/>
			<polygon class="st80" points="592.4,335.8 570.2,327.5 571.6,326.7 593.7,335.1 			"/>
		</g>
		<g>
			<path class="st71" d="M613.7,305.3c0-1.9,1-3.7,2.7-4.6l35-19.5c2-1.1,4.4,0.3,4.4,2.6v13.7c0,1.1-0.6,2-1.5,2.6l-35.6,20.2
				c-2.2,1.2-4.9-0.3-4.9-2.8L613.7,305.3z"/>
			<polygon class="st80" points="655.7,292.7 640.8,287.2 643.8,285.6 655.8,290 			"/>
			<polygon class="st80" points="647.2,304.2 625,295.9 628,294.3 650,302.5 			"/>
			<polygon class="st80" points="655.8,295.5 637.9,288.8 639.4,288 655.9,294.2 			"/>
			<polygon class="st80" points="627.7,315.2 613.8,310 613.8,308.6 629.1,314.4 			"/>
			<polygon class="st80" points="650.9,302 628.9,293.8 630.4,293 652.2,301.3 			"/>
		</g>
		<g>
			<path class="st81" d="M545.5,377.6c-3.9,6.8-3.2,14.6,1.6,17.3c4.8,2.8,13.9-1.6,17.9-8.4c3.9-6.8,3.2-14.6-1.6-17.3
				C558.6,366.4,549.5,370.8,545.5,377.6z"/>
			<path class="st82" d="M548.3,379.1c-3,5.2-2.6,11,0.9,13s10.2-1.5,13.2-6.7c3-5.2,2.6-11-0.9-13
				C558,370.4,551.3,373.9,548.3,379.1z"/>
			<path class="st83" d="M555,381.4l-1.3-7.8c0,0,2.8-1.7,4.8-1.7l-2.3,9.4l7.9-5c0,0,0.4,1.9,0.1,3.8l-7.8,1.9l6.1,3.1
				c0,0-1.4,2.4-2.2,3c-0.9-0.7-4.8-5.1-4.8-5.1l-1.7,9.3c0,0-3.8,1.3-5.8-1c1.5-2,6.4-8.9,6.4-8.9l-7.6-0.3c0,0,1-3.5,2-4.2
				C549.9,378.9,555,381.4,555,381.4z"/>
			<path class="st84" d="M554.3,381.4c-0.5,0.8-0.3,1.8,0.4,2.2c0.7,0.4,1.9-0.1,2.3-0.9s0.3-1.8-0.4-2.2
				C555.9,380.1,554.8,380.6,554.3,381.4z"/>
		</g>
		<g>
			<path class="st81" d="M624.7,331.6c-3.9,6.8-3.2,14.6,1.6,17.3c4.8,2.8,13.9-1.6,17.9-8.4c3.9-6.8,3.2-14.6-1.6-17.3
				C637.7,320.4,628.6,324.8,624.7,331.6z"/>
			<path class="st82" d="M627.4,333c-3,5.2-2.6,11,0.9,13c3.5,2,10.2-1.5,13.2-6.7c3-5.2,2.6-11-0.9-13
				C637.1,324.3,630.4,327.8,627.4,333z"/>
			<path class="st83" d="M634.1,335.3l-1.3-7.8c0,0,2.8-1.7,4.8-1.7l-2.3,9.4l7.9-5c0,0,0.4,1.9,0.1,3.8l-7.8,1.9l6.1,3.1
				c0,0-1.4,2.4-2.2,3c-0.9-0.7-4.8-5.1-4.8-5.1l-1.7,9.3c0,0-3.8,1.3-5.8-1c1.5-2,6.4-8.9,6.4-8.9l-7.6-0.3c0,0,1-3.5,2-4.2
				C629,332.8,634.1,335.3,634.1,335.3z"/>
			<path class="st84" d="M633.4,335.4c-0.5,0.8-0.3,1.8,0.4,2.2c0.7,0.4,1.9-0.1,2.3-0.9c0.5-0.8,0.3-1.8-0.4-2.2
				C635.1,334.1,633.9,334.5,633.4,335.4z"/>
		</g>
		<polygon class="st72" points="501.3,412.9 437.9,375.6 437.9,372.5 501.4,410.1 		"/>
		<polygon class="st85" points="437.8,372.5 442.7,370.4 506.1,407.4 501.3,410.1 		"/>
		<path class="st86" d="M666.1,350.8c0,0,1.2,1.3,2.5,0c-0.3-3,0.1-43.2,0.1-43.2h-2.9C665.8,307.6,666.1,347.1,666.1,350.8z"/>
		<path class="st86" d="M610.5,393c0,0,1.1,1.3,3-0.1c-0.4-5.6,0.1-80.4,0.1-80.4h-3.5C610.1,312.6,610.5,386.1,610.5,393z"/>
		<g>
			<g>
				<polygon class="st86" points="570.1,322.5 633.7,285.8 672.6,308.3 609,345 				"/>
				<polygon class="st87" points="626.7,289.9 633.7,285.8 672.6,308.3 665.6,312.3 				"/>
				<polygon class="st87" points="612.5,298 619.5,294 658.4,316.5 651.4,320.5 				"/>
				<polygon class="st87" points="598.3,306.2 605.3,302.2 644.2,324.7 637.3,328.7 				"/>
				<polygon class="st87" points="584.2,314.4 591.1,310.4 630.1,332.9 623.1,336.9 				"/>
				<polygon class="st87" points="570.1,322.5 577,318.5 616,341 609,345 				"/>
			</g>
			<polygon class="st86" points="570.1,322.5 570.1,325.9 608.9,347.9 609,345 			"/>
			<polygon class="st86" points="609,345 672.6,308.3 672.5,311 608.9,347.9 			"/>
		</g>
		<polygon class="st216" points="534.8,390.1 531.4,388.1 534.8,386.1 538.2,388.1 		"/>
	</g>
	<g>
		<path class="st218" d="M133,284.5l17.5-8.5l22.4,13.5l-14.9,11.1c-3.5,2-7.7,2-11.2,0l-13.9-8.1
			C129.9,290.7,129.9,286.3,133,284.5z"/>
		<path class="st219" d="M152.6,301.8v7.2l-22.1-12.8V289c0,0,6.6,8.4,22.1,12.6"/>
		<polygon class="st220" points="152.6,301.6 226.5,257.9 310.8,212.8 310.8,216.8 152.7,309.1 		"/>
		<polygon class="st218" points="130.5,303.6 130.5,296.3 152.6,309.1 152.6,316.3 		"/>
		<polygon class="st221" points="152.6,308.9 310.8,216.6 310.9,224 152.6,316.4 		"/>
		<polygon class="st222" points="161.9,256.8 208,233.9 227.5,245 183.8,269.3 		"/>
		<polygon class="st223" points="183.8,269.2 172.9,289.6 150.7,276.2 162,256.7 		"/>
		<polygon class="st224" points="183.8,269.4 172.9,289.6 230.4,255.9 310.8,212.8 310.7,209.2 227.4,245 		"/>
		<polygon class="st225" points="172.9,289.6 228.5,257.9 227.4,245.1 183.8,269.3 		"/>
		<polygon class="st226" points="208,233.9 296.8,201.3 310.7,209.3 227.6,245.1 		"/>
		<path class="st242" d="M285,313.3L94.7,210.9c-0.5-0.3-0.5-1,0-1.3l18.8-10.9c0.2-0.1,0.5-0.1,0.7,0l189.6,103
			c0.5,0.3,0.5,1,0,1.3l-18.1,10.3C285.5,313.4,285.3,313.4,285,313.3z"/>
		<path class="st15" d="M320.9,235.6l-69.2-38.5c-1.9-1.1-2-3.8-0.1-5l9.3-5.6c0.9-0.5,2-0.6,2.9,0l68.5,39c1.9,1.1,2,3.9,0,5
			l-8.6,5.1C322.9,236.1,321.8,236.1,320.9,235.6z"/>
		<path class="st227" d="M97.3,212.5l-2.6-1.6c-0.5-0.3-0.5-1,0-1.3l18.9-11c0.2-0.1,0.5-0.1,0.7,0l2.6,1.5c0.5,0.3,0.5,1,0,1.3
			l-18.9,11.1C97.8,212.7,97.5,212.7,97.3,212.5z"/>
		<path class="st227" d="M285,313.3l-2.6-1.4c-0.5-0.3-0.5-1,0-1.3l17.9-10.3c0.2-0.1,0.5-0.1,0.7,0l2.8,1.5c0.5,0.3,0.5,1,0,1.3
			l-18.1,10.3C285.5,313.4,285.3,313.4,285,313.3z"/>
		<path class="st218" d="M285.6,212.7l9.5-30.8c0.2-0.7,1.2-0.5,1.2,0.2l0.6,26.9c0,0.2-0.1,0.4-0.3,0.5l-10,4.1
			C286.1,213.9,285.5,213.2,285.6,212.7z"/>
		<polygon class="st228" points="491.5,102.6 366.3,174.5 366.3,148.3 490.7,76.9 		"/>
		<polygon class="st229" points="167.9,260.1 169.8,261.1 175.3,285.2 174,287.4 		"/>
		<polygon class="st229" points="171.2,261.9 172.1,262.6 176.7,282.4 176.1,283.6 		"/>
		<line class="st230" x1="261.4" y1="222.5" x2="286.4" y2="213"/>
		<g class="st231">
			
				<image style="overflow:visible;" width="425" height="416" xlink:href="DC4665C838FE89D3.png"  transform="matrix(0.24 0 0 0.24 89.36 251.92)">
			</image>
		</g>
		<polygon class="st232" points="289.1,201.1 366.3,160.6 366.3,148.3 369.4,146.5 369.4,172.5 366.3,174.5 366.3,162.5 288.4,203 
					"/>
		<g>
			<polygon class="st233" points="139.6,305.2 137,303.8 137,300.8 139.6,302.3 			"/>
			<polygon class="st234" points="142.1,303.8 139.6,305.2 139.6,302.3 142.1,300.8 			"/>
			<polygon class="st235" points="139.6,302.3 137,300.8 139.6,299.4 142.1,300.8 			"/>
		</g>
		<path class="st236" d="M139,303c0,0-7.8,2.6-11.4,0.8C131.2,301.7,135.2,301.7,139,303z"/>
		<path id="SVGID_x5F_1_x5F_" class="st243" d="M372.3,163.5L493,93.3"/>
		<text>		<textPath  xlink:href="#SVGID_x5F_1_x5F_" startOffset="8.691%">
<tspan  class="st237" style="font-family:'MyriadPro-Regular'; font-size:18.0001px;">Camp Wakawaka</tspan>		</textPath>
</text>
		<path class="st236" d="M139.5,301.3c0,0-0.2-8.2,2.5-11.2C143,294.2,141.8,298,139.5,301.3z"/>
		<path class="st236" d="M140.4,303c0,0,7.9,2.3,9.9,5.8C146.1,308.5,142.8,306.2,140.4,303z"/>
	</g>
</g>
</svg>
