<svg id="Layer_1" data-name="Layer 1" xmlns="http://www.w3.org/2000/svg" width="2.3in" height="1.3in" viewBox="0 0 167 94"><title>Artboard 1 copy 3</title><circle cx="77.5" cy="31" r="26.8" fill="none" stroke="#004789" stroke-miterlimit="10" stroke-width="2.67"/><path d="M87.5,25.7H86.1A13.1,13.1,0,0,0,86,24c0-.5-.1-.9-.1-1.3a8.1,8.1,0,0,0-1-.9,11.1,11.1,0,0,0-2.7-1.2,11.8,11.8,0,0,0-3.4-.4,9.5,9.5,0,0,0-7.1,2.7A10.5,10.5,0,0,0,69,30.5c0,3.5.9,6.3,2.8,8.4A9.3,9.3,0,0,0,78.7,42a9.9,9.9,0,0,0,2.4-.3,9.4,9.4,0,0,0,2.2-.7,15.3,15.3,0,0,1,.1-1.8V37.5a8.2,8.2,0,0,0-.1-2,.5.5,0,0,0-.5-.3,13.6,13.6,0,0,0-3.4-.4V33.4H90.1v1.2a2.7,2.7,0,0,0-1.4.5,5.6,5.6,0,0,0-.2,1c0,1.4-.1,2.4-.1,3a24.5,24.5,0,0,0,.2,2.7,35.8,35.8,0,0,1-5.8,1.7,20.4,20.4,0,0,1-4.9.5,17.6,17.6,0,0,1-7.1-1.3,13.4,13.4,0,0,1-3.7-2.5A11.2,11.2,0,0,1,64.8,37a14.8,14.8,0,0,1-1.3-6.1,12.1,12.1,0,0,1,.9-4.8,11,11,0,0,1,2.3-3.7A13.1,13.1,0,0,1,70,19.9a19,19,0,0,1,4-1.4,20.3,20.3,0,0,1,4.5-.4,32.4,32.4,0,0,1,5.6.5,19.9,19.9,0,0,1,4.1,1.3v.3A42.7,42.7,0,0,0,87.5,25.7Z" fill="#004789"/><path d="M44.5,49.8a34.4,34.4,0,0,0,5.5.3l5.5-.3c3.6-.2,7.2-.7,10.8-1.2a166,166,0,0,0,21.2-4.4,103.8,103.8,0,0,0,20.1-7.6,33.5,33.5,0,0,0,4.5-2.7c1.3-1,2.5-2.2,2.7-3.5a2.1,2.1,0,0,0-.5-1.9,7.4,7.4,0,0,0-1.8-1.7,19.6,19.6,0,0,0-4.8-2.4,18,18,0,0,1,5.4,1.4,9.6,9.6,0,0,1,2.5,1.6,4.4,4.4,0,0,1,1.3,3.2,6.3,6.3,0,0,1-1,3.1,11.4,11.4,0,0,1-2,2.3,29.5,29.5,0,0,1-4.6,3.5,80.2,80.2,0,0,1-20.7,8.8,103.1,103.1,0,0,1-22,3.6,102.8,102.8,0,0,1-11.1,0,53.2,53.2,0,0,1-5.6-.6A20.7,20.7,0,0,1,44.5,49.8Z" fill="#004789"/><path d="M16.1,75.7h-.8v-1a2,2,0,0,1-.1-.7l-.6-.5a3.5,3.5,0,0,0-1.5-.7,5.8,5.8,0,0,0-1.9-.3,5.3,5.3,0,0,0-4.1,1.6,5.8,5.8,0,0,0-1.5,4.3,6.5,6.5,0,0,0,1.6,4.7,5.1,5.1,0,0,0,3.9,1.8l1.3-.2,1.3-.4v-1a5.1,5.1,0,0,0,.1-1,8,8,0,0,0-.1-1.1l-.3-.2-1.9-.2V80h6v.7l-.7.3c-.1.1-.1.3-.1.6a11,11,0,0,0-.1,1.6,8.6,8.6,0,0,0,.1,1.6,17.3,17.3,0,0,1-3.3,1,12.7,12.7,0,0,1-2.8.2,10.2,10.2,0,0,1-4-.7,7.7,7.7,0,0,1-2.1-1.4A8,8,0,0,1,3.2,82a7.4,7.4,0,0,1-.7-3.4A7.2,7.2,0,0,1,3,75.9a5.7,5.7,0,0,1,1.3-2.1,5.2,5.2,0,0,1,1.9-1.4,5.8,5.8,0,0,1,2.2-.8,10.3,10.3,0,0,1,2.6-.3,11.2,11.2,0,0,1,3.2.4l2.3.6v.2A29.7,29.7,0,0,0,16.1,75.7Z" fill="#004789"/><path d="M24.9,84.9v.8H19.2v-.8h1l.3-.2a3.5,3.5,0,0,0,.1-.7V78.6a3.2,3.2,0,0,1-.1-.7l-.2-.2H19.2v-.7l2.4-.5,1.3-.5h.2v2.1l1-1.2.8-.7a1.7,1.7,0,0,1,1-.3h.7v1.5a3.5,3.5,0,0,1-.1,1.3H26l-.5-.4a1.1,1.1,0,0,0-.8-.2,1.7,1.7,0,0,0-1,.3c-.3.3-.5.5-.5.8a15.4,15.4,0,0,0-.1,1.7v3.3l.2.3h1.5Z" fill="#004789"/><path d="M36.4,84.9v.8H32.6V84.3l-2.1,1.6h-.9a2.4,2.4,0,0,1-1.7-.7,2.4,2.4,0,0,1-.6-1.8,2.9,2.9,0,0,1,.3-1.4,1.6,1.6,0,0,1,.6-.8l.9-.4a20,20,0,0,1,3.5-.9,2.9,2.9,0,0,0-.5-1.9,1.8,1.8,0,0,0-1.6-.6h-.8l-.4.2L29,78.9l-.7-.2V77.4l1.4-.9.9-.4h1.1a4.8,4.8,0,0,1,1.8.3,2,2,0,0,1,1,.7,1.9,1.9,0,0,1,.5,1,4.1,4.1,0,0,1,.1,1.2v1.7c0,.6-.1,1.1-.1,1.5s.1,1.9.1,2.2.1.2.2.2Zm-3.7-4.1-1.5.5a1.4,1.4,0,0,0-1,.6,1.8,1.8,0,0,0,0,2,1.2,1.2,0,0,0,.9.3l.9-.3a1.4,1.4,0,0,0,.7-.6Z" fill="#004789"/><path d="M49.1,84.9v.8h-4l-.2-.2a7.9,7.9,0,0,0,.2-1.7V81.3A12.3,12.3,0,0,0,45,79a1.5,1.5,0,0,0-.6-.9,1.8,1.8,0,0,0-1.1-.3,2.1,2.1,0,0,0-1.2.3,1.9,1.9,0,0,0-.6.7v5.1a3.5,3.5,0,0,0,.1.6v.2h1.4v.8H37.5v-.8h1.1a.2.2,0,0,0,.2-.2c.1-.1.1-.3.1-.7V80.8c0-.6-.1-1.4-.1-2.2s0-.7-.1-.7-.1-.1-.2-.2H37.5v-.7l2.4-.5,1.3-.5h.3v1.7l1.8-1.5.6-.2h.6a3.4,3.4,0,0,1,1.6.2,2.2,2.2,0,0,1,.9.7,2.4,2.4,0,0,1,.6.9,5.8,5.8,0,0,1,.1,1.5v2.8a9.9,9.9,0,0,0,.1,2.1c0,.3,0,.4.1.5l.6.2Z" fill="#004789"/><path d="M61.6,85v.7h-4V84l-1.5,1.3-.7.5-1,.2a3.5,3.5,0,0,1-2.8-1.3,4.9,4.9,0,0,1-1.1-3.3,6.6,6.6,0,0,1,.3-2.1,3.6,3.6,0,0,1,.6-1.1,7.3,7.3,0,0,1,1.4-1.1l1.6-1h2.1l1,.4a4.9,4.9,0,0,0,.1-1.2,13.4,13.4,0,0,0-.1-1.9c0-.3,0-.6-.1-.6a.2.2,0,0,0-.2-.2H56.1v-.8a13.7,13.7,0,0,0,4-.9l.2.2c-.1,1.8-.1,2.8-.1,3.2V84a5.6,5.6,0,0,0,.1.7h.2Zm-4-6.5a2.2,2.2,0,0,0-.9-.8,2.3,2.3,0,0,0-1.4-.4,2.1,2.1,0,0,0-1.2.3,1.7,1.7,0,0,0-.6,1.1,5,5,0,0,0-.2,1.8,4.1,4.1,0,0,0,.8,2.8,1.7,1.7,0,0,0,1.5.7,1.8,1.8,0,0,0,1.3-.4,2.3,2.3,0,0,0,.7-.8,12.3,12.3,0,0,0,.1-2.4Z" fill="#004789"/><path d="M63.2,82.5H64a10.3,10.3,0,0,1,.1,1.4,4.1,4.1,0,0,0,1,.9l1.3.2a2,2,0,0,0,1.4-.4,1.3,1.3,0,0,0,.5-1.1,1.5,1.5,0,0,0-.1-.7,1.3,1.3,0,0,0-.7-.5L66,81.9l-1.7-.6a1.4,1.4,0,0,1-.9-.8,3.2,3.2,0,0,1-.3-1.4,2.9,2.9,0,0,1,1-2.3,4.6,4.6,0,0,1,3.1-.9h1.5l1.2.4h0a2.2,2.2,0,0,1-.1.8,14.9,14.9,0,0,1-.1,1.7H69c0-.1-.1-.2-.1-.4a2.8,2.8,0,0,0-.1-.9,1.6,1.6,0,0,0-.8-.6l-1-.2a2.1,2.1,0,0,0-1.4.4,1.1,1.1,0,0,0-.4.9c0,.4,0,.6.2.8a.9.9,0,0,0,.6.4l1.5.3,1.5.4a1.9,1.9,0,0,1,.9.5,2.2,2.2,0,0,1,.5.8,2.2,2.2,0,0,1,.2,1.1A3.2,3.2,0,0,1,69.4,85a4.4,4.4,0,0,1-3.2,1H64.8l-1.6-.4v-.2c0-.5.1-.9.1-1.1Z" fill="#004789"/><path d="M75.9,85.6v3.8c0,.3,0,.5.1.5s.1.2.3.2h1.4V91H71.8v-.8h1.4a.4.4,0,0,1,.1-.3V81.2a16.2,16.2,0,0,0-.1-2.3,2.5,2.5,0,0,0-.1-1.1H71.8v-.8l2.3-.3,1.6-.6.2.2v1.7l.5-.5,1-.8.3-.3.7-.2h.7a4,4,0,0,1,1.7.3,3.4,3.4,0,0,1,1.6,1.3,4,4,0,0,1,.6,2.2,9.9,9.9,0,0,1-.2,1.7l-.5,1.3-.6.8-.8.6-1,.8-.7.5a.9.9,0,0,1-.6.3H76.8Zm0-1.9,1,.7a1.6,1.6,0,0,0,1,.2,2.8,2.8,0,0,0,1.3-.3,2.7,2.7,0,0,0,.9-1.2,6.4,6.4,0,0,0,.3-2,5.9,5.9,0,0,0-.2-1.4,2.3,2.3,0,0,0-.4-1A2.7,2.7,0,0,0,79,78a2,2,0,0,0-1.1-.3l-1.1.3a3.5,3.5,0,0,0-.9.7Z" fill="#004789"/><path d="M96,84.9v.8H91.9V83.5a5.3,5.3,0,0,0,.1-1.3v-2a3.1,3.1,0,0,0-.5-1.9,1.7,1.7,0,0,0-1.3-.5,2,2,0,0,0-1.1.3,2.7,2.7,0,0,0-.7.8,2,2,0,0,0-.1.9V83a11.4,11.4,0,0,1,.1,1.5c0,.1.1.1.1.2H90v.8H84.4v-.8h1.3v-.2a7.7,7.7,0,0,0,.1-1.9V73.5a3.7,3.7,0,0,1-.1-.8.1.1,0,0,1-.1-.1H84.4v-.7l2.1-.3,1.8-.6.2.2v6.7l1.8-1.5,1.4-.2,1.5.2a2.2,2.2,0,0,1,.9.7,2,2,0,0,1,.5.9,5.1,5.1,0,0,1,.2,1.3,13.6,13.6,0,0,1-.1,1.6v1.6a9.9,9.9,0,0,0,.1,2.2l.2.3Z" fill="#004789"/><path d="M105.9,84.1l-.4,1a6.5,6.5,0,0,1-1.7.8h-1.5a5,5,0,0,1-1.8-.2,3.1,3.1,0,0,1-1.3-.6,4.3,4.3,0,0,1-.9-1,3,3,0,0,1-.6-1.4,7.8,7.8,0,0,1-.2-1.6,6.1,6.1,0,0,1,.4-2.4,1.9,1.9,0,0,1,.5-1l1.1-.8a4,4,0,0,1,1.2-.7,4.3,4.3,0,0,1,1.7-.3,3.8,3.8,0,0,1,2.2.5,2.9,2.9,0,0,1,1.2,1.5,6.5,6.5,0,0,1,.4,2.1.7.7,0,0,1-.1.5l-.7.2-1,.2h-4.3a4,4,0,0,0,1,2.5,3.1,3.1,0,0,0,2.2.9h1.1l1.3-.5ZM103.5,80a4.3,4.3,0,0,0-.4-2.3,1.6,1.6,0,0,0-1.3-.6,1.8,1.8,0,0,0-1.3.6,3.7,3.7,0,0,0-.4,2.3h3.4Z" fill="#004789"/><path d="M113.3,84.9v.8h-5.8v-.8h1.1a.2.2,0,0,0,.2-.2c.1-.1.1-.3.1-.7V80.8a17.7,17.7,0,0,0-.1-2.2c0-.4,0-.7-.1-.7s-.1-.1-.1-.2h-1.2v-.7l2.4-.5,1.3-.5h.3v2.1l1-1.2a2.3,2.3,0,0,1,.8-.7,1.2,1.2,0,0,1,.9-.3h.7v1.5a9.3,9.3,0,0,0-.1,1.3h-.4l-.5-.4a1.2,1.2,0,0,0-.8-.2,1.5,1.5,0,0,0-1,.3,2.1,2.1,0,0,0-.6.8v4.1c0,.5,0,.8.1.9l.2.3h1.5Z" fill="#004789"/><path d="M124.3,84.1l-.4,1a7.1,7.1,0,0,1-1.8.8h-1.4a5,5,0,0,1-1.8-.2,2.6,2.6,0,0,1-1.3-.6l-1-1a4.6,4.6,0,0,1-.5-1.4,4.1,4.1,0,0,1-.2-1.6,8.8,8.8,0,0,1,.3-2.4,2.9,2.9,0,0,1,.6-1c.1-.2.5-.4,1-.8l1.3-.7a3.8,3.8,0,0,1,1.6-.3,4.1,4.1,0,0,1,2.3.5,4.4,4.4,0,0,1,1.2,1.5,6.6,6.6,0,0,1,.3,2.1v.5l-.8.2-.9.2h-4.3a3.6,3.6,0,0,0,1,2.5,2.9,2.9,0,0,0,2.2.9h1.1l1.3-.5ZM121.9,80a4.3,4.3,0,0,0-.4-2.3,1.8,1.8,0,0,0-1.3-.6,1.6,1.6,0,0,0-1.3.6,4.4,4.4,0,0,0-.5,2.3h3.5Z" fill="#004789"/><path d="M137.8,71.6v.9h-1.2l-.3.2h-.1a5.6,5.6,0,0,0-.1.7v1c0,1.6-.1,2.5-.1,2.6v6a4.2,4.2,0,0,0,.1,1.3v.2h1.5v.9h-6.4v-.9h1.2c.2,0,.3,0,.3-.1h.1a5.8,5.8,0,0,1,.1-1c0-.8.1-1.5.1-2.2V77.1a15,15,0,0,0-.1-2.6,5.4,5.4,0,0,0-.1-1.6c0-.1,0-.2-.1-.2s-.1-.1-.2-.1h-1.3v-.9h6.4Z" fill="#004789"/><path d="M150.7,84.9v.8h-4l-.2-.2a15.4,15.4,0,0,0,.1-1.7V81.3c0-1.2-.1-1.9-.1-2.3a1.5,1.5,0,0,0-.6-.9,2,2,0,0,0-1.1-.3,2.1,2.1,0,0,0-1.2.3,1.9,1.9,0,0,0-.6.7,14.8,14.8,0,0,0-.1,1.6v1.7c0,.5.1,1.1.1,1.8s0,.5.1.6,0,.2.1.2h1.3v.8h-5.5v-.8h1.1l.2-.2a3.5,3.5,0,0,0,.1-.7V78.6a3.2,3.2,0,0,1-.1-.7l-.2-.2h-1.1v-.7l2.4-.5,1.3-.5h.2v1.7l1.9-1.5.5-.2h.7a3.7,3.7,0,0,1,1.6.2,2.2,2.2,0,0,1,.9.7,2,2,0,0,1,.5.9,4.9,4.9,0,0,1,.2,1.5v4.9a.6.6,0,0,0,.2.5l.6.2Z" fill="#004789"/><path d="M159.8,84.4l-.5.9-1.4.6h-1.3a5.4,5.4,0,0,1-2.7-.6,3.8,3.8,0,0,1-1.5-1.8,5.3,5.3,0,0,1-.4-2.3,7.2,7.2,0,0,1,.2-1.7,2.3,2.3,0,0,1,.6-1.2,1.6,1.6,0,0,1,.7-.7l1.5-1,1.1-.6h2.5a1.9,1.9,0,0,1,1,.3v.2l-.3,1.6a11.3,11.3,0,0,1-.1,1.4h-.8a4.5,4.5,0,0,0-.1-1.3,1.1,1.1,0,0,0-.7-.6l-1.1-.2a2.1,2.1,0,0,0-1.2.3,1.5,1.5,0,0,0-.6.9,4.1,4.1,0,0,0-.2,1.6,5.6,5.6,0,0,0,.4,2.3,3.7,3.7,0,0,0,1.1,1.5,3.4,3.4,0,0,0,1.8.4h.9a1.3,1.3,0,0,0,.8-.3Z" fill="#004789"/><path d="M162.8,82.8a1.4,1.4,0,0,1,1.1.4,1.3,1.3,0,0,1,.5,1.1,1.3,1.3,0,0,1-.5,1.2,1.4,1.4,0,0,1-1.1.4,1.5,1.5,0,0,1-1.1-.4,1.7,1.7,0,0,1-.5-1.2,1.6,1.6,0,0,1,.5-1.1A1.5,1.5,0,0,1,162.8,82.8Z" fill="#004789"/></svg>