<svg id="Layer_1" data-name="Layer 1" xmlns="http://www.w3.org/2000/svg" width="2.3in" height="1.3in" viewBox="0 0 165.6 93.6"><title>Artboard 1</title><circle cx="76.9" cy="30.9" r="26.6" fill="none" stroke="#004789" stroke-miterlimit="10" stroke-width="2.67"/><path d="M86.8,25.7H85.4c0-.6-.1-1.1-.1-1.7s-.1-.9-.1-1.3l-1-.9a11.1,11.1,0,0,0-2.7-1.2,12.7,12.7,0,0,0-3.4-.4,9.6,9.6,0,0,0-7,2.7,10.5,10.5,0,0,0-2.7,7.5c0,3.5.9,6.3,2.8,8.4a9.2,9.2,0,0,0,6.8,3,9.9,9.9,0,0,0,2.4-.3,7.9,7.9,0,0,0,2.2-.6,10.9,10.9,0,0,1,.1-1.8V37.4a13.4,13.4,0,0,0-.1-2,.5.5,0,0,0-.5-.3,12.7,12.7,0,0,0-3.4-.4V33.3H89.3v1.2A2.1,2.1,0,0,0,88,35a3.6,3.6,0,0,0-.2,1c0,1.4-.1,2.4-.1,3a11,11,0,0,0,.2,2.6,29.6,29.6,0,0,1-5.8,1.7,16,16,0,0,1-4.9.5,16.8,16.8,0,0,1-7-1.3,14.7,14.7,0,0,1-3.7-2.4,11.4,11.4,0,0,1-2.2-3.2A14.2,14.2,0,0,1,63,30.8a9.6,9.6,0,0,1,.9-4.7,10.7,10.7,0,0,1,2.2-3.7,15.9,15.9,0,0,1,3.3-2.5,27,27,0,0,1,4-1.4,21.2,21.2,0,0,1,4.4-.4,34.3,34.3,0,0,1,5.6.5,28,28,0,0,1,4.1,1.3v.3A33.1,33.1,0,0,0,86.8,25.7Z" fill="#004789"/><path d="M44.1,49.6a50.7,50.7,0,0,0,5.5.3l5.4-.3c3.6-.2,7.2-.7,10.7-1.2A168.2,168.2,0,0,0,86.8,44a101.7,101.7,0,0,0,19.9-7.5,41.2,41.2,0,0,0,4.5-2.7c1.2-1,2.4-2.2,2.6-3.5a1.8,1.8,0,0,0-.5-1.8,6.9,6.9,0,0,0-1.7-1.7,21.6,21.6,0,0,0-4.8-2.4,18,18,0,0,1,5.4,1.4,7.8,7.8,0,0,1,2.4,1.6,4,4,0,0,1,1.3,3.1,5.7,5.7,0,0,1-1,3.1,8.7,8.7,0,0,1-2,2.3,30.2,30.2,0,0,1-4.5,3.5,80.6,80.6,0,0,1-20.5,8.7A102.2,102.2,0,0,1,66,51.7a100.9,100.9,0,0,1-11,0,51.4,51.4,0,0,1-5.5-.6A23.9,23.9,0,0,1,44.1,49.6Z" fill="#004789"/><path d="M16,75.3h-.8v-1a2,2,0,0,1-.1-.7l-.6-.5a3.4,3.4,0,0,0-1.5-.7,6.3,6.3,0,0,0-1.9-.3A5.3,5.3,0,0,0,7,73.7a5.4,5.4,0,0,0-1.4,4.2,6.2,6.2,0,0,0,1.5,4.7A5.3,5.3,0,0,0,11,84.4l1.3-.2,1.3-.4v-1a3.4,3.4,0,0,0,.1-1c0-.4-.1-.7-.1-1.1l-.3-.2-1.9-.2v-.8h6v.7l-.7.3c-.1.1-.1.3-.1.6a8.6,8.6,0,0,0-.1,1.6,4.3,4.3,0,0,0,.1,1.6,20.7,20.7,0,0,1-3.3,1l-2.8.2a11.2,11.2,0,0,1-4-.7,9,9,0,0,1-2-1.4,5.9,5.9,0,0,1-1.3-1.9,6.5,6.5,0,0,1-.7-3.4A5.8,5.8,0,0,1,3,75.5a4.6,4.6,0,0,1,1.3-2.1A4.9,4.9,0,0,1,6.1,72a6.5,6.5,0,0,1,2.2-.8,11.5,11.5,0,0,1,2.6-.3,11.7,11.7,0,0,1,3.2.4l2.3.6v.2A16.5,16.5,0,0,0,16,75.3Z" fill="#004789"/><path d="M24.7,84.4v.8H19v-.8h1l.3-.2a1.7,1.7,0,0,0,.1-.7V78.1c0-.2-.1-.4-.1-.7l-.2-.2H19v-.7l2.4-.4,1.3-.5h.2v2l1-1.2.8-.6a1.7,1.7,0,0,1,1-.3h.7v1.4a5.3,5.3,0,0,1-.1,1.3h-.5l-.5-.4-.8-.2a1.7,1.7,0,0,0-1,.3c-.3.3-.5.5-.5.8a10.3,10.3,0,0,0-.1,1.7v3.3l.2.3h1.5Z" fill="#004789"/><path d="M36.1,84.4v.8H32.3V83.8l-2.1,1.6h-.8a2.4,2.4,0,0,1-1.7-.7,2.1,2.1,0,0,1-.6-1.8,3.2,3.2,0,0,1,.3-1.4,1.6,1.6,0,0,1,.6-.8l.9-.4a18.9,18.9,0,0,1,3.4-.9,2.7,2.7,0,0,0-.5-1.9,2.3,2.3,0,0,0-1.6-.6h-.7l-.4.2-.3,1.3-.7-.2V76.9l1.4-.8.8-.4h1.1a2.9,2.9,0,0,1,1.8.3,1.7,1.7,0,0,1,1,.6,2.4,2.4,0,0,1,.5,1,4.9,4.9,0,0,1,.1,1.2v1.7c0,.6-.1,1.1-.1,1.5s.1,1.9.1,2.2.1.2.2.2Zm-3.7-4.1-1.5.5a2.1,2.1,0,0,0-1,.6,1.8,1.8,0,0,0,0,2l.9.3.9-.3a1.1,1.1,0,0,0,.7-.6Z" fill="#004789"/><path d="M48.7,84.4v.8h-4l-.2-.2a5,5,0,0,0,.2-1.7V80.8a9.1,9.1,0,0,0-.1-2.3,2.4,2.4,0,0,0-.6-.9,2,2,0,0,0-1.1-.3l-1.2.3-.5.7v5.1a1.3,1.3,0,0,0,.1.6v.2h1.3V85H37.2v-.8h1.1a.2.2,0,0,0,.2-.2c.1-.1.1-.3.1-.7v-3c0-.6-.1-1.4-.1-2.2s0-.7-.1-.7-.1-.1-.2-.2h-1v-.7l2.4-.4,1.3-.5h.3v1.6l1.7-1.4.6-.2h.6a2.9,2.9,0,0,1,1.6.2,1.5,1.5,0,0,1,.9.6,2.4,2.4,0,0,1,.6.9,7.6,7.6,0,0,1,.1,1.5v2.8a14.8,14.8,0,0,0,.1,2.1c0,.3,0,.4.1.5l.6.2Z" fill="#004789"/><path d="M61.1,84.5v.7h-4V83.5l-1.5,1.3-.7.5-1,.2a3.5,3.5,0,0,1-2.7-1.3,4.4,4.4,0,0,1-1.1-3.3,7.6,7.6,0,0,1,.3-2.1,3,3,0,0,1,.6-1.1l1.4-1.1,1.5-.9H56l1,.4a4.9,4.9,0,0,0,.1-1.2A11.5,11.5,0,0,0,57,73c0-.3,0-.6-.1-.6a.2.2,0,0,0-.2-.2H55.6v-.8a13.7,13.7,0,0,0,4-.9l.2.2c-.1,1.8-.1,2.8-.1,3.2v9.6a1.7,1.7,0,0,0,.1.7H60Zm-4-6.5a2.4,2.4,0,0,0-.9-.8,3.3,3.3,0,0,0-1.4-.4l-1.2.3a1.6,1.6,0,0,0-.5,1.1,3.7,3.7,0,0,0-.2,1.8,4.5,4.5,0,0,0,.7,2.8,1.9,1.9,0,0,0,1.5.7,1.8,1.8,0,0,0,1.3-.4,1.8,1.8,0,0,0,.7-.8,9.7,9.7,0,0,0,.1-2.4Z" fill="#004789"/><path d="M62.7,82h.8c0,.5.1.9.1,1.4a4.5,4.5,0,0,0,1,.9l1.2.2a2.3,2.3,0,0,0,1.4-.4,1.1,1.1,0,0,0,.5-1.1.9.9,0,0,0-.1-.7,1.3,1.3,0,0,0-.7-.5l-1.5-.4-1.6-.6a1.2,1.2,0,0,1-.9-.8,3.2,3.2,0,0,1-.3-1.4,2.4,2.4,0,0,1,1-2.2,4,4,0,0,1,3-.9h1.5l1.2.4h0a1.7,1.7,0,0,1-.1.7,9.1,9.1,0,0,1-.1,1.7h-.7c0-.1-.1-.2-.1-.4a2.8,2.8,0,0,0-.1-.9,2.8,2.8,0,0,0-.8-.6h-1a1.9,1.9,0,0,0-1.3.3c-.3.3-.5.6-.4.9s0,.6.2.8a.7.7,0,0,0,.5.4l1.5.3,1.5.4a1.9,1.9,0,0,1,.9.5,2.2,2.2,0,0,1,.5.8,2.2,2.2,0,0,1,.2,1.1,3.3,3.3,0,0,1-1.2,2.7,4.6,4.6,0,0,1-3.2,1H64.3l-1.6-.4v-.2c0-.5.1-.9.1-1.1Z" fill="#004789"/><path d="M75.3,85.1v3.7c0,.3,0,.5.1.5s.1.2.3.2H77v.9H71.2v-.8h1.4a.4.4,0,0,1,.1-.3V80.7a18.5,18.5,0,0,0-.1-2.3,4.5,4.5,0,0,0-.1-1.1H71.2v-.8l2.3-.2,1.6-.6.2.2v1.6l.5-.5,1-.7L77,76l.7-.2h.7a2.5,2.5,0,0,1,1.7.3,3.3,3.3,0,0,1,1.6,1.2,4.6,4.6,0,0,1,.6,2.2,8.8,8.8,0,0,1-.2,1.7l-.5,1.3-.6.8-.8.6-1,.8-.7.5a.9.9,0,0,1-.6.3H76.2Zm0-1.9,1,.7a1.5,1.5,0,0,0,.9.2,2.8,2.8,0,0,0,1.3-.3,2.7,2.7,0,0,0,.9-1.2,6.4,6.4,0,0,0,.3-2,6.8,6.8,0,0,0-.2-1.4,2.1,2.1,0,0,0-.4-1l-.8-.7a2,2,0,0,0-1.1-.3l-1,.3a3.5,3.5,0,0,0-.9.7Z" fill="#004789"/><path d="M95.2,84.4v.8H91.1V83a5.7,5.7,0,0,0,.1-1.3v-2a2.7,2.7,0,0,0-.5-1.9,1.9,1.9,0,0,0-1.3-.5,1.9,1.9,0,0,0-1,.3c-.3.3-.6.5-.7.8a1.4,1.4,0,0,0-.1.9v3.2c0,.5.1,1,.1,1.5s.1.1.1.2h1.4V85H83.7v-.8H85V84a12.1,12.1,0,0,0,.1-1.9v-9a2.2,2.2,0,0,1-.1-.8H83.7v-.7l2.1-.3,1.8-.6.2.2v6.6L89.5,76l1.4-.2,1.5.2a1.5,1.5,0,0,1,.9.6,2,2,0,0,1,.5.9,6.9,6.9,0,0,1,.2,1.3,8.1,8.1,0,0,1-.1,1.6V82a16.2,16.2,0,0,0,.1,2.2l.2.3Z" fill="#004789"/><path d="M105,83.6l-.4,1-1.7.8h-1.5l-1.7-.2a2.6,2.6,0,0,1-1.3-.6,2.8,2.8,0,0,1-.9-1,3.5,3.5,0,0,1-.6-1.4,8.8,8.8,0,0,1-.2-1.6,6.7,6.7,0,0,1,.4-2.4,1.6,1.6,0,0,1,.5-1l1.1-.8a3.4,3.4,0,0,1,1.2-.6,2.3,2.3,0,0,1,1.6-.3,3.3,3.3,0,0,1,2.2.5,2.4,2.4,0,0,1,1.2,1.4,5.2,5.2,0,0,1,.4,2.1.7.7,0,0,1-.1.5l-.7.2-1,.2H99.3a3.5,3.5,0,0,0,1,2.5,2.7,2.7,0,0,0,2.1.9h1.1l1.3-.5Zm-2.4-4.1a3.8,3.8,0,0,0-.4-2.3,2,2,0,0,0-1.3-.6,2.7,2.7,0,0,0-1.2.6,3.1,3.1,0,0,0-.4,2.3Z" fill="#004789"/><path d="M112.4,84.4v.8h-5.8v-.8h1.1l.2-.2c.1-.1.1-.3.1-.7V80.3a17,17,0,0,0-.1-2.2c0-.4,0-.7-.1-.7s-.1-.1-.1-.2h-1.2v-.7l2.4-.4,1.3-.5h.3v2l1-1.2a1.7,1.7,0,0,1,.8-.6.7.7,0,0,1,.8-.3h.7v1.4c0,.5-.1.9-.1,1.3h-.4l-.5-.4-.7-.2a1.5,1.5,0,0,0-1,.3,1.6,1.6,0,0,0-.6.8v4.1c0,.5,0,.8.1.9l.2.3h1.5Z" fill="#004789"/><path d="M123.3,83.6l-.4,1-1.8.8h-1.4l-1.8-.2a3.1,3.1,0,0,1-1.3-.6l-1-1a5.8,5.8,0,0,1-.5-1.4,7.8,7.8,0,0,1-.2-1.6,9.9,9.9,0,0,1,.3-2.4l.6-1c.1-.2.5-.4,1-.8l1.3-.6a2.2,2.2,0,0,1,1.6-.3,3.7,3.7,0,0,1,2.3.5,5.3,5.3,0,0,1,1.2,1.4,7.6,7.6,0,0,1,.3,2.1V80l-.8.2-.9.2h-4.3a3.9,3.9,0,0,0,1,2.5,3.1,3.1,0,0,0,2.2.9h1.1l1.3-.5Zm-2.4-4.1a4.7,4.7,0,0,0-.4-2.3,2.6,2.6,0,0,0-1.3-.6,2,2,0,0,0-1.3.6,4.6,4.6,0,0,0-.5,2.3Z" fill="#004789"/><path d="M136.6,71.2v.9h-1.1l-.3.2h-.1a1.5,1.5,0,0,0-.1.7v1c0,1.6-.1,2.4-.1,2.5v6a2.9,2.9,0,0,0,.1,1.3V84h1.4v.9h-6.3V84h1.6a3.4,3.4,0,0,1,.1-1c0-.8.1-1.5.1-2.2V76.6a20.9,20.9,0,0,0-.1-2.5,8.1,8.1,0,0,0-.1-1.6c0-.1,0-.2-.1-.2h-1.5v-.9h6.5Z" fill="#004789"/><path d="M149.4,84.4v.8h-3.9l-.2-.2c0-.6.1-1.1.1-1.7V80.8c0-1.2-.1-1.9-.1-2.3a2.4,2.4,0,0,0-.6-.9,2.3,2.3,0,0,0-1.1-.3,2.7,2.7,0,0,0-1.2.3,1.9,1.9,0,0,0-.6.7,9.2,9.2,0,0,0-.1,1.6v1.7c0,.5.1,1.1.1,1.8s0,.5.1.6,0,.2.1.2h1.3V85h-5.5v-.8h1.1l.2-.2a1.7,1.7,0,0,0,.1-.7V78.1c0-.2-.1-.4-.1-.7l-.2-.2h-1.1v-.7l2.4-.4,1.3-.5h.2v1.6l1.9-1.4.5-.2h.7a3,3,0,0,1,1.6.2,2.4,2.4,0,0,1,.9.6,4.1,4.1,0,0,1,.5.9,3.8,3.8,0,0,1,.1,1.5v4.9a.8.8,0,0,0,.2.5l.6.2Z" fill="#004789"/><path d="M158.5,83.9l-.5.9-1.4.6h-1.3a6.3,6.3,0,0,1-2.7-.6,3.8,3.8,0,0,1-1.5-1.8,5.9,5.9,0,0,1-.4-2.3,9.9,9.9,0,0,1,.2-1.7,3.4,3.4,0,0,1,.6-1.2,2.3,2.3,0,0,1,.7-.7l1.5-.9,1.1-.6h2.5a1.9,1.9,0,0,1,1,.3v.2l-.3,1.5c0,.5-.1,1-.1,1.4h-.8a6.2,6.2,0,0,0-.1-1.3,1.3,1.3,0,0,0-.7-.6l-1.1-.2-1.2.3a2.4,2.4,0,0,0-.6.9,4.4,4.4,0,0,0-.2,1.6,5.9,5.9,0,0,0,.4,2.3,3.3,3.3,0,0,0,1.1,1.5,3.7,3.7,0,0,0,1.8.4h.9a1.3,1.3,0,0,0,.8-.3Z" fill="#004789"/><path d="M161.4,82.3a1.5,1.5,0,0,1,1.1.4,1.3,1.3,0,0,1,.5,1.1,1.2,1.2,0,0,1-.5,1.2,1.7,1.7,0,0,1-2.2,0,1.8,1.8,0,0,1-.5-1.2,2.2,2.2,0,0,1,.5-1.1A1.5,1.5,0,0,1,161.4,82.3Z" fill="#004789"/></svg>