<svg xmlns="http://www.w3.org/2000/svg" width="34.7in" height="31.4in" viewBox="0 0 2500 2264"><title>Logo curves</title><g id="BW"><path d="M1368.8,2101.2h28.7s-13.5-165,168.3-230c0,0,24.3-22.4,54.9-39.2C1574.8,1832,1370.9,1867.9,1368.8,2101.2Z" fill="#afcbe6" stroke="#afcbe6" stroke-miterlimit="10" stroke-width="4"/><path d="M1664.5,1863.9s9.5,1.2,20.5,3.8c3.6-3.8,18.2-16.7,21.2-19.2A241.2,241.2,0,0,0,1664.5,1863.9Z" fill="#afcbe6"/><path d="M1736.8,1886.5s125.7,49.7,129,214.7h30.9s14.3-145.6-132.6-234.5A280.3,280.3,0,0,0,1736.8,1886.5Z" fill="#afcbe6"/><path d="M1474.3,2101.2h30.8s-.4-89.9,42.9-150c34.9-48.4,85-98.6,172.2-113.7,0,0,16.3-15.8,61.8-35.9C1690.6,1787.4,1476.3,1868,1474.3,2101.2Z" fill="#4890c0" stroke="#4890c0" stroke-miterlimit="10" stroke-width="4"/><path d="M1822,1839c2.5-1.1,33.2-11.2,64.3-13.2,4.8-.4,175.2,70.1,176.8,275.4h-33.2S2024,1882.7,1822,1839Z" fill="#4890c0"/><path d="M2226,2095.7v5.5h-34.7v-5.5c0-154.3-125.5-279.7-279.7-279.7s-279.7,125.4-279.7,279.7v5.5h-32.1v-5.5c0-172.7,140.5-313.1,313.1-313.1S2226,1923,2226,2095.7Z" fill="#003c77" stroke="#003c77" stroke-miterlimit="10" stroke-width="4"/><path d="M305.2,489H334S320.4,324,502.2,259c0,0,24.3-22.4,54.9-39.1C511.2,219.9,307.3,255.7,305.2,489Z" fill="#7991b4"/><path d="M600.9,251.7s9.5,1.2,20.5,3.8c3.6-3.7,18.3-16.7,21.2-19.2A241.2,241.2,0,0,0,600.9,251.7Z" fill="#7991b4"/><path d="M673.2,274.3S798.9,324,802.2,489h30.9s14.3-145.6-132.6-234.5A301.7,301.7,0,0,0,673.2,274.3Z" fill="#7991b4"/><path d="M410.7,489h30.8s-.4-89.9,42.9-149.9c34.9-48.5,85-98.7,172.2-113.8,0,0,16.3-15.7,61.8-35.9C627,175.2,412.8,255.8,410.7,489Z" fill="#325e89"/><path d="M758.4,226.9c2.5-1.1,33.2-11.3,64.3-13.3,4.8-.3,175.2,70.1,176.8,275.4H966.3S960.4,270.5,758.4,226.9Z" fill="#325e89"/><path d="M1162.4,483.5V489h-34.7v-5.5c0-154.2-125.5-279.7-279.7-279.7S568.3,329.3,568.3,483.5V489H536.2v-5.5c0-172.7,140.5-313.1,313.1-313.1S1162.4,310.8,1162.4,483.5Z" fill="#003462"/><path d="M299.2,1049.5h28.7S314.4,884.6,496.2,819.6c0,0,24.3-22.5,54.9-39.2C505.2,780.4,301.3,816.3,299.2,1049.5Z" fill="#bed7d7"/><path d="M594.9,812.2s9.5,1.3,20.5,3.9c3.6-3.8,18.3-16.8,21.2-19.3A251.3,251.3,0,0,0,594.9,812.2Z" fill="#bed7d7"/><path d="M667.2,834.9s125.7,49.7,129,214.6h30.9s14.3-145.7-132.6-234.5A280.3,280.3,0,0,0,667.2,834.9Z" fill="#bed7d7"/><path d="M404.7,1049.6h30.8s-.4-89.9,42.9-150c34.9-48.5,85-98.7,172.2-113.7,0,0,16.3-15.8,61.8-36C621,735.7,406.8,816.3,404.7,1049.6Z" fill="#54989c"/><path d="M752.4,787.4c2.5-1.1,33.2-11.2,64.3-13.3,4.8-.3,175.2,70.2,176.8,275.5H960.3S954.4,831.1,752.4,787.4Z" fill="#54989c"/><path d="M1156.4,1044v5.6h-34.7V1044c0-154.2-125.5-279.7-279.7-279.7S562.3,889.8,562.3,1044v5.6H530.2V1044c0-172.6,140.5-313.1,313.1-313.1S1156.4,871.4,1156.4,1044Z" fill="#005959"/><path d="M1336.1,1059.5h28.7s-13.5-165,168.3-229.9c0,0,24.3-22.5,54.9-39.2C1542.1,790.4,1338.2,826.3,1336.1,1059.5Z" fill="#c9e6d3"/><path d="M1631.8,822.2s9.5,1.3,20.5,3.9c3.6-3.8,18.2-16.8,21.2-19.3A251.3,251.3,0,0,0,1631.8,822.2Z" fill="#c9e6d3"/><path d="M1704.1,844.8s125.7,49.7,129,214.7H1864s14.3-145.7-132.6-234.5A290.7,290.7,0,0,0,1704.1,844.8Z" fill="#c9e6d3"/><path d="M1441.6,1059.6h30.8s-.4-89.9,42.9-150c34.9-48.5,85-98.7,172.2-113.7,0,0,16.3-15.8,61.8-36C1657.9,745.7,1443.7,826.3,1441.6,1059.6Z" fill="#76ab8d"/><path d="M1789.3,797.4c2.5-1.1,33.2-11.2,64.3-13.3,4.8-.3,175.2,70.2,176.8,275.5h-33.2S1991.3,841.1,1789.3,797.4Z" fill="#76ab8d"/><path d="M2193.3,1054v5.6h-34.7V1054c0-154.2-125.5-279.7-279.7-279.7S1599.2,899.8,1599.2,1054v5.6h-32.1V1054c0-172.6,140.5-313.1,313.1-313.1S2193.3,881.4,2193.3,1054Z" fill="#168258"/><path d="M1314.8,503.8h28.8s-13.6-165,168.2-230c0,0,24.3-22.4,54.9-39.2C1520.8,234.6,1316.9,270.5,1314.8,503.8Z" fill="#aacac7"/><path d="M1610.5,266.5s9.5,1.2,20.5,3.8c3.6-3.8,18.3-16.7,21.2-19.2A241.2,241.2,0,0,0,1610.5,266.5Z" fill="#aacac7"/><path d="M1682.8,289.1s125.7,49.7,129,214.7h30.9s14.3-145.6-132.6-234.5A280.3,280.3,0,0,0,1682.8,289.1Z" fill="#aacac7"/><path d="M1420.3,503.8h30.8s-.4-89.9,42.9-150c34.9-48.4,85-98.6,172.2-113.7,0,0,16.3-15.8,61.8-35.9C1636.6,190,1422.4,270.6,1420.3,503.8Z" fill="#47908b"/><path d="M1768,241.6c2.5-1,33.2-11.2,64.3-13.2,4.8-.3,175.2,70.1,176.8,275.4h-33.2S1970,285.3,1768,241.6Z" fill="#47908b"/><path d="M2172,498.3v5.5h-34.7v-5.5c0-154.3-125.5-279.7-279.7-279.7S1577.9,344,1577.9,498.3v5.5h-32.1v-5.5c0-172.7,140.5-313.1,313.1-313.1S2172,325.6,2172,498.3Z" fill="#00594f"/><path d="M293.2,1602.1h28.7s-13.5-165,168.3-229.9c0,0,24.3-22.5,54.9-39.2C499.2,1333,295.3,1368.9,293.2,1602.1Z" fill="#78aba4"/><path d="M588.9,1364.8s9.5,1.3,20.5,3.9c3.6-3.8,18.3-16.8,21.2-19.3A251.3,251.3,0,0,0,588.9,1364.8Z" fill="#78aba4"/><path d="M661.2,1387.4s125.7,49.7,129,214.7h30.9s14.3-145.7-132.6-234.5A290.7,290.7,0,0,0,661.2,1387.4Z" fill="#78aba4"/><path d="M398.7,1602.2h30.8s-.4-90,42.9-150c34.9-48.5,85-98.7,172.2-113.7,0,0,16.3-15.8,61.8-36C615,1288.3,400.8,1368.9,398.7,1602.2Z" fill="#298276"/><path d="M746.4,1340c2.5-1.1,33.2-11.2,64.3-13.3,4.8-.3,175.2,70.2,176.8,275.5H954.3S948.4,1383.7,746.4,1340Z" fill="#298276"/><path d="M1150.4,1596.6v5.6h-34.7v-5.6c0-154.2-125.5-279.7-279.7-279.7s-279.7,125.5-279.7,279.7v5.6H524.2v-5.6c0-172.6,140.5-313.1,313.1-313.1S1150.4,1424,1150.4,1596.6Z" fill="#005949"/><path d="M1334.1,1606.1h28.7s-13.5-165,168.3-230c0,0,24.3-22.4,54.9-39.1C1540.1,1337,1336.2,1372.8,1334.1,1606.1Z" fill="#91bdca"/><path d="M1629.8,1368.8s9.5,1.3,20.5,3.8c3.6-3.7,18.3-16.7,21.2-19.2A251.3,251.3,0,0,0,1629.8,1368.8Z" fill="#91bdca"/><path d="M1702.1,1391.4s125.7,49.7,129,214.7H1862s14.3-145.7-132.6-234.5A290.7,290.7,0,0,0,1702.1,1391.4Z" fill="#91bdca"/><path d="M1439.6,1606.2h30.8s-.4-90,42.9-150c34.9-48.5,85-98.7,172.2-113.7,0,0,16.3-15.8,61.8-36C1655.9,1292.3,1441.7,1372.9,1439.6,1606.2Z" fill="#1f869a"/><path d="M1787.3,1344c2.5-1.1,33.2-11.2,64.3-13.3,4.8-.3,175.2,70.1,176.8,275.5h-33.2S1989.3,1387.7,1787.3,1344Z" fill="#1f869a"/><path d="M2191.3,1600.6v5.6h-34.7v-5.6c0-154.2-125.5-279.7-279.7-279.7s-279.7,125.5-279.7,279.7v5.6h-32.1v-5.6c0-172.6,140.5-313.1,313.1-313.1S2191.3,1428,2191.3,1600.6Z" fill="#005a70"/><path d="M306.8,2090.3h28.8s-13.6-165,168.2-230c0,0,24.3-22.4,54.9-39.1C512.8,1821.2,308.9,1857,306.8,2090.3Z" fill="#c9e6d3"/><path d="M602.6,1853s9.4,1.2,20.4,3.8c3.6-3.7,18.3-16.7,21.2-19.2A238.1,238.1,0,0,0,602.6,1853Z" fill="#c9e6d3"/><path d="M674.8,1875.6s125.7,49.7,129,214.7h30.9s14.3-145.6-132.6-234.5A301.7,301.7,0,0,0,674.8,1875.6Z" fill="#c9e6d3"/><path d="M412.3,2090.3h30.8s-.4-89.9,42.9-149.9c34.9-48.5,85-98.7,172.2-113.8,0,0,16.4-15.7,61.8-35.9C628.6,1776.5,414.4,1857.1,412.3,2090.3Z" fill="#28b67a"/><path d="M760,1828.2c2.5-1.1,33.2-11.3,64.3-13.3,4.9-.3,175.2,70.1,176.8,275.4H967.9S962,1871.8,760,1828.2Z" fill="#28b67a"/><path d="M1164,2084.8v5.5h-34.7v-5.5c0-154.2-125.5-279.7-279.7-279.7s-279.7,125.5-279.7,279.7v5.5H537.8v-5.5c0-172.7,140.5-313.1,313.1-313.1S1164,1912.1,1164,2084.8Z" fill="#007857"/></g></svg>