<?xml version="1.0" encoding="utf-8"?>
<!-- Generator: Adobe Illustrator 21.1.0, SVG Export Plug-In . SVG Version: 6.00 Build 0)  -->
<svg version="1.1" xmlns="http://www.w3.org/2000/svg" xmlns:xlink="http://www.w3.org/1999/xlink" x="0px" y="0px"
	 viewBox="0 0 792 792" style="enable-background:new 0 0 792 792;" xml:space="preserve">
<style type="text/css">
	.st0{fill:#003C77;}
	.st1{fill:#4890C0;}
	.st2{fill:#AFCBE6;}
	.st3{fill:#231F20;}
	.st4{fill:#FFFEF9;}
	.st5{clip-path:url(#SVGID_2_);fill:#231F20;}
	.st6{clip-path:url(#SVGID_4_);fill:#FFFEF9;}
	.st7{fill:none;}
</style>
<g id="Colour_Palette">
</g>
<g id="BW">
</g>
<g id="Small_BW">
</g>
<g id="Reverser">
</g>
<g id="Small_Colour">
</g>
<g id="Colour_Arch">
	<g id="Arch__x23_3">
	</g>
	<g id="Arch__x23_2">
	</g>
	<g id="Arch__x23_1">
		<g>
			<path class="st2" d="M53.4,478.7h23c0,0-10.8-131.9,134.5-183.8c0,0,19.4-17.9,43.9-31.3C218,263.5,55,292.2,53.4,478.7z"/>
			<path class="st2" d="M289.8,289c0,0,7.6,1,16.4,3.1c2.9-3,14.6-13.4,16.9-15.4C304.8,281.5,289.8,289,289.8,289z"/>
			<path class="st2" d="M347.6,307.1c0,0,100.5,39.7,103.1,171.6c19.5,0.1,24.7,0.1,24.7,0.1s11.5-116.4-106-187.5
				C356.8,299.3,347.6,307.1,347.6,307.1z"/>
			<path class="st1" d="M137.7,478.7h24.6c0,0-0.3-71.9,34.3-119.9c27.9-38.7,68-78.9,137.7-90.9c0,0,13.1-12.6,49.4-28.7
				C310.6,227.8,139.3,292.3,137.7,478.7z"/>
			<path class="st1" d="M415.7,269.1c2-0.9,26.5-9,51.4-10.6c3.9-0.3,140.1,56.1,141.3,220.2c-7.5,0-26.5,0-26.5,0
				S577.2,304,415.7,269.1z"/>
			<g>
				<path class="st0" d="M738.6,474.3v4.4h-27.7v-4.4c0-123.3-100.3-223.6-223.6-223.6S263.7,351,263.7,474.3v4.4H238v-4.4
					c0-138,112.3-250.3,250.3-250.3S738.6,336.3,738.6,474.3z"/>
			</g>
			<g id="Wordmark_4_">
				<path class="st0" d="M74.1,527.2v13.2c0,2.2,0.4,3.8,1.2,4.6c0.8,0.8,2.4,1.3,5,1.3v3.9H55.4v-3.9c2.5,0,4.2-0.4,5-1.2
					s1.3-2.3,1.3-4.7v-28.3c0-2.3-0.4-3.8-1.2-4.6c-0.8-0.8-2.5-1.2-5.1-1.2v-3.9h24.9v3.9c-2.5,0-4.1,0.4-5,1.2
					c-0.8,0.8-1.2,2.4-1.2,4.6v10.7h19.6v-10.7c0-2.2-0.4-3.7-1.1-4.6c-0.8-0.8-2.4-1.3-4.9-1.3v-3.9h24.9v3.9
					c-2.5,0-4.2,0.4-5.1,1.2s-1.3,2.3-1.3,4.7v28.3c0,2.3,0.4,3.8,1.2,4.6c0.8,0.8,2.5,1.2,5.1,1.2v3.9H87.7v-3.9
					c2.5,0,4.1-0.4,4.9-1.2c0.8-0.8,1.2-2.4,1.2-4.6v-13.2H74.1z"/>
				<path class="st0" d="M134.8,529v11.4c0,2.2,0.4,3.7,1.1,4.6c0.7,0.9,2.3,1.3,4.6,1.3h1.1v3.9h-25.9v-3.9h0.8
					c2.4,0,3.9-0.4,4.6-1.3c0.7-0.9,1.1-2.4,1.1-4.5v-28.3c0-2.2-0.4-3.7-1.1-4.6c-0.7-0.9-2.3-1.3-4.6-1.3h-1.2v-3.9l19.4-0.4
					c4.8,0,8.6,0.1,11.2,0.4c2.6,0.3,5.1,1,7.3,2.2c2.2,1.2,3.9,2.7,5,4.7c1.1,1.9,1.7,4.1,1.7,6.4c0,3.1-1,5.8-2.9,8
					c-1.9,2.2-4.4,3.7-7.3,4.4c-2.9,0.7-6.7,1.1-11.5,1.1H134.8z M134.8,524.8h2.3c3.7,0,6.2-0.8,7.5-2.5c1.2-1.6,1.9-3.8,1.9-6.5
					c0-2.4-0.5-4.4-1.4-5.9c-0.9-1.5-2.1-2.5-3.5-3c-1.4-0.5-3.7-0.7-6.8-0.7V524.8z"/>
				<path class="st0" d="M199,527.3v11.8c0,2.3,0.1,3.7,0.4,4.4c0.3,0.7,1,1.3,2.1,1.7c1.1,0.5,2.8,0.7,5.1,0.7
					c3.1,0,5.4-0.4,6.9-1.2c1.5-0.8,2.8-2.1,3.9-4.1c1.2-2,2-4,2.5-6.2h3.9l-0.3,15.7h-43.7v-3.9h0.9c2.4,0,3.9-0.4,4.6-1.3
					c0.7-0.9,1.1-2.4,1.1-4.5V512c0-2.2-0.4-3.7-1.1-4.6c-0.7-0.9-2.3-1.3-4.6-1.3h-0.9v-3.8h40.7l0.7,12.4h-3.9
					c-0.7-2.2-1.5-3.9-2.4-5.2c-0.9-1.3-1.7-2.1-2.6-2.5c-0.9-0.4-2.4-0.5-4.5-0.5H199V523h4.4c2.1,0,3.5-0.4,4.2-1.2
					c0.7-0.8,1.1-2.4,1.2-4.7h4v16.2h-4c0-0.3,0-0.5,0-0.7c0-1.4-0.3-2.6-0.9-3.7c-0.6-1.1-2.1-1.7-4.4-1.7H199z"/>
				<path class="st0" d="M244.2,530.3v11.5c0,1.6,0.2,2.8,0.7,3.5c0.5,0.7,1.4,1.1,2.6,1.1v3.7h-19.7v-3.7c2,0,3.3-0.3,3.9-1
					c0.6-0.6,0.8-1.9,0.8-3.6v-9.9c0-1.8-0.3-3-0.8-3.7c-0.6-0.7-1.9-1-3.9-1v-3.7l15.7-2.6c0.4,0.9,0.6,2.3,0.7,4.2
					c1.6-1.7,3.2-3,4.9-3.8c1.7-0.8,3.5-1.3,5.3-1.3c3.3,0,5.9,0.9,7.8,2.7c1.9,1.8,2.8,4.3,2.8,7.5v11.5c0,1.8,0.3,3,0.9,3.6
					c0.6,0.7,1.8,1,3.8,1v3.7H250v-3.7c1,0,1.8-0.3,2.5-0.8c0.7-0.5,1-1.8,1-3.8v-10.6c0-1.9-0.3-3.2-0.8-3.9
					c-0.5-0.7-1.3-1.1-2.3-1.1s-2,0.3-3,1C246.3,527.9,245.3,528.9,244.2,530.3z"/>
				<path class="st0" d="M281.3,539.8c-2.6-0.7-4.6-1.9-6-3.7c-1.4-1.8-2.1-3.7-2.1-5.8c0-3.3,1.4-5.8,4.3-7.6
					c2.9-1.7,6.6-2.6,11.1-2.6c2.5,0,4.7,0.3,6.5,0.8c1.9,0.5,3.4,1.3,4.7,2.3c2.5-2.1,4.5-3.1,6.2-3.1c2.3,0,3.5,1.1,3.5,3.4
					c0,1.9-0.8,2.9-2.4,2.9c-0.6,0-1.4-0.4-2.4-1.3c-0.4-0.3-0.8-0.5-1.1-0.5c-0.5,0-1,0.3-1.6,0.8c0.9,1.5,1.3,3.1,1.3,4.9
					c0,2.8-1.1,5.3-3.4,7.3c-2.3,2-6.3,3.1-12.2,3.4c-2.4,0.1-4.1,0.4-5.1,0.8c-0.9,0.4-1.4,1.1-1.4,2c0,1.2,1.5,1.9,4.6,1.9
					c0.7,0,2.2,0,4.5-0.1c0.8,0,1.7,0,2.5,0c5.1,0,8.8,0.8,11.1,2.4c2.3,1.6,3.4,4.2,3.4,7.7c0,3.7-1.6,6.7-4.8,9
					c-3.2,2.3-8,3.5-14.4,3.5c-6.1,0-10.3-0.8-12.5-2.3c-2.2-1.6-3.3-3.3-3.3-5.3c0-1.2,0.4-2.2,1.2-3c0.8-0.8,1.7-1.2,2.8-1.2
					c0.8,0,1.8,0.3,3,0.8c-0.2,0.4-0.3,0.8-0.4,1.2c-0.1,0.4-0.1,0.7-0.1,1.1c0,1.6,0.8,2.9,2.5,3.7c1.6,0.8,4.1,1.2,7.4,1.2
					c4.1,0,7.2-0.6,9.2-1.7c2-1.2,3.1-2.6,3.1-4.2c0-1.6-0.7-2.6-2.1-3c-1.4-0.4-4.6-0.6-9.6-0.6c-5.5,0-9.4-0.6-11.7-1.7
					c-2.4-1.1-3.5-3.1-3.5-5.8c0-1.9,0.6-3.5,1.8-4.7C277.1,541.3,278.9,540.4,281.3,539.8z M284.2,530c0,2.3,0.4,4,1.1,5.1
					c0.7,1.1,1.8,1.7,3.2,1.7c1.4,0,2.4-0.6,3.1-1.8c0.7-1.2,1-2.9,1-5.3c0-2-0.4-3.5-1.2-4.4c-0.8-0.9-1.8-1.4-3-1.4
					c-1.4,0-2.4,0.5-3.1,1.5C284.5,526.5,284.2,528,284.2,530z"/>
				<path class="st0" d="M327.1,520.1v21.6c0,1.8,0.3,3,0.8,3.7c0.6,0.7,1.9,1,3.9,1v3.7h-21.6v-3.7h0.8c2,0,3.3-0.4,3.8-1.1
					c0.5-0.7,0.8-1.9,0.8-3.6v-10.5c0-1.7-0.3-3-0.8-3.6c-0.5-0.7-1.8-1-3.8-1h-0.8v-3.7L327.1,520.1z M315.2,507.9
					c0-1.7,0.6-3.2,1.9-4.5c1.2-1.3,2.7-1.9,4.5-1.9c1.8,0,3.3,0.6,4.5,1.9c1.2,1.2,1.8,2.8,1.8,4.5c0,1.8-0.6,3.3-1.9,4.5
					c-1.2,1.2-2.7,1.9-4.5,1.9c-1.8,0-3.3-0.6-4.5-1.9C315.9,511,315.2,509.6,315.2,507.9z"/>
				<path class="st0" d="M351,530.3v11.5c0,1.6,0.2,2.8,0.7,3.5c0.5,0.7,1.4,1.1,2.6,1.1v3.7h-19.7v-3.7c2,0,3.3-0.3,3.9-1
					c0.6-0.6,0.8-1.9,0.8-3.6v-9.9c0-1.8-0.3-3-0.8-3.7c-0.6-0.7-1.9-1-3.9-1v-3.7l15.7-2.6c0.4,0.9,0.6,2.3,0.7,4.2
					c1.6-1.7,3.2-3,4.9-3.8c1.7-0.8,3.5-1.3,5.3-1.3c3.3,0,5.9,0.9,7.8,2.7c1.9,1.8,2.8,4.3,2.8,7.5v11.5c0,1.8,0.3,3,0.9,3.6
					c0.6,0.7,1.8,1,3.8,1v3.7h-19.6v-3.7c1,0,1.8-0.3,2.5-0.8c0.7-0.5,1-1.8,1-3.8v-10.6c0-1.9-0.3-3.2-0.8-3.9
					c-0.5-0.7-1.3-1.1-2.3-1.1s-2,0.3-3,1C353.1,527.9,352.1,528.9,351,530.3z"/>
				<path class="st0" d="M392.2,535.4c0,3.8,0.7,6.7,2,8.6c1.3,1.9,3.3,2.9,5.9,2.9c2.8,0,5.3-1.4,7.7-4.2l3.3,2
					c-1.3,1.9-3.3,3.5-5.8,4.8c-2.5,1.3-5.3,1.9-8.3,1.9c-4.7,0-8.6-1.4-12-4.2c-3.3-2.8-5-6.7-5-11.5c0-4.8,1.6-8.6,4.8-11.4
					c3.2-2.7,7.1-4.1,11.6-4.1c4.5,0,8.3,1.3,11.2,3.8c2.9,2.5,4.4,6.4,4.4,11.5H392.2z M392.1,531.8h8.9c-0.1-5.2-1.7-7.8-4.5-7.8
					c-1.5,0-2.6,0.6-3.3,1.9C392.5,527.2,392.1,529.2,392.1,531.8z"/>
				<path class="st0" d="M429.8,535.4c0,3.8,0.7,6.7,2,8.6c1.3,1.9,3.3,2.9,5.9,2.9c2.8,0,5.3-1.4,7.7-4.2l3.3,2
					c-1.3,1.9-3.3,3.5-5.8,4.8c-2.5,1.3-5.3,1.9-8.3,1.9c-4.7,0-8.6-1.4-12-4.2c-3.3-2.8-5-6.7-5-11.5c0-4.8,1.6-8.6,4.8-11.4
					c3.2-2.7,7.1-4.1,11.6-4.1c4.5,0,8.3,1.3,11.2,3.8c2.9,2.5,4.4,6.4,4.4,11.5H429.8z M429.8,531.8h8.9c-0.1-5.2-1.7-7.8-4.5-7.8
					c-1.5,0-2.6,0.6-3.3,1.9C430.1,527.2,429.8,529.2,429.8,531.8z"/>
				<path class="st0" d="M469.5,527.4c1.4-2.4,2.9-4.2,4.7-5.4c1.7-1.2,3.7-1.8,5.7-1.8c2,0,3.5,0.6,4.5,1.9c1,1.3,1.6,2.6,1.6,4.1
					c0,1.4-0.4,2.6-1.2,3.6c-0.8,1-2,1.5-3.5,1.5c-0.8,0-1.5-0.2-2-0.5c-0.5-0.3-1.2-0.9-2-1.9c-0.8-0.9-1.8-1.4-2.7-1.4
					c-1.5,0-2.7,0.9-3.4,2.8c-0.8,1.9-1.1,4.7-1.1,8.4v3.1c0,1.7,0.3,3,0.8,3.6c0.5,0.7,1.8,1,3.7,1h0.7v3.7h-21.4v-3.7
					c2,0,3.3-0.3,3.9-1c0.5-0.7,0.8-1.9,0.8-3.7v-10.1c0-1.8-0.3-3-0.8-3.7c-0.6-0.7-1.9-1-3.9-1v-3.7l14.6-3.1
					C469,522,469.4,524.4,469.5,527.4z"/>
				<path class="st0" d="M504.6,520.1v21.6c0,1.8,0.3,3,0.8,3.7c0.6,0.7,1.9,1,3.9,1v3.7h-21.6v-3.7h0.8c2,0,3.3-0.4,3.8-1.1
					c0.5-0.7,0.8-1.9,0.8-3.6v-10.5c0-1.7-0.3-3-0.8-3.6c-0.5-0.7-1.8-1-3.8-1h-0.8v-3.7L504.6,520.1z M492.8,507.9
					c0-1.7,0.6-3.2,1.9-4.5s2.7-1.9,4.5-1.9c1.8,0,3.3,0.6,4.5,1.9c1.2,1.2,1.8,2.8,1.8,4.5c0,1.8-0.6,3.3-1.9,4.5
					c-1.2,1.2-2.7,1.9-4.5,1.9c-1.8,0-3.3-0.6-4.5-1.9C493.4,511,492.8,509.6,492.8,507.9z"/>
				<path class="st0" d="M528.5,530.3v11.5c0,1.6,0.2,2.8,0.7,3.5c0.5,0.7,1.4,1.1,2.6,1.1v3.7h-19.7v-3.7c2,0,3.3-0.3,3.9-1
					c0.6-0.6,0.8-1.9,0.8-3.6v-9.9c0-1.8-0.3-3-0.8-3.7c-0.6-0.7-1.9-1-3.9-1v-3.7l15.7-2.6c0.4,0.9,0.6,2.3,0.7,4.2
					c1.6-1.7,3.2-3,4.9-3.8c1.7-0.8,3.5-1.3,5.3-1.3c3.3,0,5.9,0.9,7.8,2.7c1.9,1.8,2.8,4.3,2.8,7.5v11.5c0,1.8,0.3,3,0.9,3.6
					c0.6,0.7,1.8,1,3.8,1v3.7h-19.6v-3.7c1,0,1.8-0.3,2.5-0.8c0.7-0.5,1-1.8,1-3.8v-10.6c0-1.9-0.3-3.2-0.8-3.9
					c-0.5-0.7-1.3-1.1-2.3-1.1s-2,0.3-3,1C530.6,527.9,529.6,528.9,528.5,530.3z"/>
				<path class="st0" d="M565.6,539.8c-2.6-0.7-4.6-1.9-6-3.7c-1.4-1.8-2.1-3.7-2.1-5.8c0-3.3,1.4-5.8,4.3-7.6
					c2.9-1.7,6.6-2.6,11.1-2.6c2.5,0,4.7,0.3,6.5,0.8c1.9,0.5,3.4,1.3,4.7,2.3c2.5-2.1,4.5-3.1,6.2-3.1c2.4,0,3.5,1.1,3.5,3.4
					c0,1.9-0.8,2.9-2.4,2.9c-0.6,0-1.4-0.4-2.4-1.3c-0.4-0.3-0.8-0.5-1.1-0.5c-0.5,0-1,0.3-1.6,0.8c0.9,1.5,1.3,3.1,1.3,4.9
					c0,2.8-1.1,5.3-3.4,7.3c-2.3,2-6.3,3.1-12.2,3.4c-2.4,0.1-4.1,0.4-5.1,0.8c-0.9,0.4-1.4,1.1-1.4,2c0,1.2,1.5,1.9,4.6,1.9
					c0.7,0,2.2,0,4.5-0.1c0.8,0,1.7,0,2.5,0c5.1,0,8.8,0.8,11.1,2.4c2.3,1.6,3.4,4.2,3.4,7.7c0,3.7-1.6,6.7-4.8,9
					c-3.2,2.3-8,3.5-14.4,3.5c-6.1,0-10.3-0.8-12.5-2.3s-3.3-3.3-3.3-5.3c0-1.2,0.4-2.2,1.2-3c0.8-0.8,1.7-1.2,2.8-1.2
					c0.8,0,1.8,0.3,3,0.8c-0.2,0.4-0.3,0.8-0.4,1.2c-0.1,0.4-0.1,0.7-0.1,1.1c0,1.6,0.8,2.9,2.5,3.7c1.6,0.8,4.1,1.2,7.4,1.2
					c4.1,0,7.2-0.6,9.2-1.7c2-1.2,3-2.6,3-4.2c0-1.6-0.7-2.6-2.1-3c-1.4-0.4-4.6-0.6-9.6-0.6c-5.5,0-9.4-0.6-11.7-1.7
					c-2.4-1.1-3.5-3.1-3.5-5.8c0-1.9,0.6-3.5,1.8-4.7C561.4,541.3,563.2,540.4,565.6,539.8z M568.5,530c0,2.3,0.4,4,1.1,5.1
					c0.7,1.1,1.8,1.7,3.2,1.7c1.4,0,2.4-0.6,3.1-1.8c0.7-1.2,1-2.9,1-5.3c0-2-0.4-3.5-1.2-4.4c-0.8-0.9-1.8-1.4-3-1.4
					c-1.4,0-2.4,0.5-3.1,1.5C568.8,526.5,568.5,528,568.5,530z"/>
				<path class="st0" d="M613.3,506.2v-3.9h25.3v3.9h-0.7c-2.4,0-3.9,0.4-4.6,1.3c-0.7,0.9-1.1,2.4-1.1,4.5v28.3
					c0,2.2,0.4,3.7,1.1,4.6c0.7,0.9,2.3,1.3,4.6,1.3h0.7v3.9h-25.3v-3.9c2.5,0,4.2-0.4,5.1-1.2c0.8-0.8,1.3-2.3,1.3-4.7v-28.3
					c0-2.3-0.4-3.8-1.2-4.6C617.7,506.6,616,506.2,613.3,506.2z"/>
				<path class="st0" d="M658.6,530.3v11.5c0,1.6,0.2,2.8,0.7,3.5c0.5,0.7,1.4,1.1,2.6,1.1v3.7h-19.7v-3.7c2,0,3.3-0.3,3.9-1
					c0.6-0.6,0.8-1.9,0.8-3.6v-9.9c0-1.8-0.3-3-0.8-3.7c-0.6-0.7-1.9-1-3.9-1v-3.7l15.7-2.6c0.4,0.9,0.6,2.3,0.7,4.2
					c1.6-1.7,3.2-3,4.9-3.8c1.7-0.8,3.5-1.3,5.3-1.3c3.3,0,5.9,0.9,7.8,2.7c1.9,1.8,2.8,4.3,2.8,7.5v11.5c0,1.8,0.3,3,0.9,3.6
					c0.6,0.7,1.8,1,3.8,1v3.7h-19.6v-3.7c1,0,1.8-0.3,2.5-0.8c0.7-0.5,1-1.8,1-3.8v-10.6c0-1.9-0.3-3.2-0.8-3.9
					c-0.5-0.7-1.3-1.1-2.3-1.1s-2,0.3-3,1C660.7,527.9,659.7,528.9,658.6,530.3z"/>
				<path class="st0" d="M714.8,541.3l3.6,1.6c-1,2.7-2.8,4.8-5.4,6.3c-2.6,1.5-5.6,2.2-9.1,2.2c-4.7,0-8.7-1.3-12-4
					c-3.3-2.6-4.9-6.3-4.9-10.9c0-4.9,1.8-8.8,5.4-11.8c3.6-3,8.2-4.5,13.9-4.5c3.5,0,6.3,0.6,8.4,1.9c2.1,1.3,3.1,3,3.1,5.1
					c0,1.2-0.4,2.3-1.2,3.2c-0.8,0.9-1.9,1.4-3.2,1.4c-2.6,0-4.2-1.7-4.9-5c-0.2-1-0.5-1.7-1-2.1c-0.4-0.4-1.2-0.6-2.2-0.6
					c-2.1,0-3.7,0.8-4.7,2.5c-1,1.7-1.6,4.1-1.6,7.5c0,4.5,0.6,7.8,1.9,9.8c1.3,2,3.2,3,5.9,3C710.5,546.6,713.2,544.8,714.8,541.3z
					"/>
				<path class="st0" d="M724,545c0-1.7,0.6-3.2,1.9-4.5c1.2-1.3,2.8-1.9,4.5-1.9s3.3,0.6,4.5,1.9c1.2,1.3,1.9,2.8,1.9,4.5
					c0,1.8-0.6,3.3-1.9,4.5c-1.3,1.2-2.8,1.9-4.5,1.9s-3.2-0.6-4.5-1.9C724.6,548.3,724,546.8,724,545z"/>
			</g>
		</g>
	</g>
</g>
</svg>
