<svg xmlns="http://www.w3.org/2000/svg" width="11in" height="6in" viewBox="0 0 792 432"><title>Logo-white</title><g id="Reverser"><rect x="0.3" y="-0.8" width="790.9" height="432.83" fill="#231f20"/><path d="M143.7,318.8v10.3c0,1.8.3,3,1,3.7s1.9.9,3.9.9v3.1H129v-3.1c2,0,3.3-.3,4-.9s1-1.8,1-3.7V307c0-1.8-.3-3-1-3.6s-1.9-1-4-1v-3.1h19.6v3.1c-2,0-3.3.3-3.9,1a5.1,5.1,0,0,0-1,3.6v8.4h15.4V307a5.6,5.6,0,0,0-.9-3.6c-.6-.7-1.9-1-3.8-1v-3.1h19.5v3.1c-2,0-3.4.3-4,.9s-1,1.8-1,3.7v22.1c0,1.8.3,3,1,3.7s1.9.9,4,.9v3.1H154.4v-3.1c1.9,0,3.2-.3,3.8-.9a5.7,5.7,0,0,0,.9-3.7V318.8Z" fill="#fffef9"/><path d="M191.3,320.2v8.9q0,2.7.9,3.6c.5.7,1.8,1,3.6,1h.9v3.1H176.3v-3.1h.7c1.9,0,3.1-.3,3.6-1a5.6,5.6,0,0,0,.9-3.6V307a5.6,5.6,0,0,0-.9-3.6c-.6-.7-1.8-1-3.6-1h-.9v-3.1l15.2-.3c3.8,0,6.7.1,8.8.3a15.2,15.2,0,0,1,5.7,1.7,9.6,9.6,0,0,1,5.2,8.6,8.8,8.8,0,0,1-2.3,6.3,10.7,10.7,0,0,1-5.6,3.5,43.3,43.3,0,0,1-9,.8Zm0-3.3h1.8c2.9,0,4.9-.6,5.9-1.9a8.1,8.1,0,0,0,1.4-5.1,9.1,9.1,0,0,0-1-4.7,5.1,5.1,0,0,0-2.8-2.3,17,17,0,0,0-5.3-.6Z" fill="#fffef9"/><path d="M241.6,318.9v9.3a12,12,0,0,0,.3,3.4c.2.6.7,1,1.6,1.4a13.3,13.3,0,0,0,4.1.5,12.5,12.5,0,0,0,5.4-.9,8.5,8.5,0,0,0,3-3.2,14.9,14.9,0,0,0,2-4.9h3.1l-.2,12.3H226.6v-3.1h.7c1.9,0,3.1-.3,3.6-1a5.6,5.6,0,0,0,.9-3.6V306.9c0-1.7-.3-2.9-.9-3.5s-1.8-1.1-3.6-1.1h-.7v-3h31.9l.6,9.7H256a16.6,16.6,0,0,0-1.9-4,5.4,5.4,0,0,0-2-2,13.3,13.3,0,0,0-3.5-.4h-7v13h3.5a4.6,4.6,0,0,0,3.3-1c.5-.6.8-1.8.9-3.7h3.1v12.7h-3.1v-.5a5.7,5.7,0,0,0-.7-2.9c-.4-.9-1.6-1.3-3.4-1.3Z" fill="#fffef9"/><path d="M277,321.3v9a4.7,4.7,0,0,0,.6,2.7,2.3,2.3,0,0,0,2.1.9v2.9H264.2v-2.9a4.4,4.4,0,0,0,3.1-.8,4.6,4.6,0,0,0,.6-2.8v-7.8a5.2,5.2,0,0,0-.6-2.9c-.4-.5-1.5-.8-3.1-.8v-2.9l12.3-2a8.7,8.7,0,0,1,.5,3.3,13.6,13.6,0,0,1,3.9-3,9.8,9.8,0,0,1,4.1-.9,8.5,8.5,0,0,1,6.1,2.1,7.7,7.7,0,0,1,2.2,5.9v9a4.1,4.1,0,0,0,.7,2.8c.4.5,1.4.8,2.9.8v2.9H281.5v-2.9a4,4,0,0,0,2-.7c.5-.4.8-1.4.8-2.9V322a5.6,5.6,0,0,0-.6-3.1,2.3,2.3,0,0,0-1.8-.9,4.6,4.6,0,0,0-2.4.8A14.7,14.7,0,0,0,277,321.3Z" fill="#fffef9"/><path d="M306.1,328.7a8.4,8.4,0,0,1-4.7-2.9,7.2,7.2,0,0,1-1.7-4.5,6.8,6.8,0,0,1,3.4-6,17.5,17.5,0,0,1,8.7-2,19.3,19.3,0,0,1,5.1.6,9.8,9.8,0,0,1,3.7,1.8q2.8-2.4,4.8-2.4c1.9,0,2.8.9,2.8,2.6s-.6,2.3-1.9,2.3a3.2,3.2,0,0,1-1.9-1,1.2,1.2,0,0,0-.9-.4,2.2,2.2,0,0,0-1.3.6,7.7,7.7,0,0,1,1.1,3.9,7.4,7.4,0,0,1-2.7,5.7c-1.8,1.5-4.9,2.4-9.5,2.6a14.6,14.6,0,0,0-4,.6,1.8,1.8,0,0,0-1.1,1.6c0,.9,1.2,1.4,3.6,1.4h5.5c4.1,0,7,.6,8.7,1.9s2.7,3.2,2.7,6a8.3,8.3,0,0,1-3.7,7.1c-2.5,1.8-6.3,2.7-11.3,2.7s-8.1-.6-9.8-1.8-2.6-2.6-2.6-4.1a3.2,3.2,0,0,1,.9-2.4,3.1,3.1,0,0,1,2.2-.9,6,6,0,0,1,2.4.6,6.9,6.9,0,0,0-.4,1c0,.3-.1.6-.1.8a3.1,3.1,0,0,0,2,2.9,12.6,12.6,0,0,0,5.8,1c3.2,0,5.6-.4,7.2-1.3a4,4,0,0,0,2.4-3.4,2.2,2.2,0,0,0-1.7-2.3,35.2,35.2,0,0,0-7.5-.5c-4.2,0-7.3-.5-9.1-1.3a4.7,4.7,0,0,1-2.8-4.6,5.3,5.3,0,0,1,1.4-3.7A10.2,10.2,0,0,1,306.1,328.7Zm2.2-7.6a7,7,0,0,0,.9,3.9,2.7,2.7,0,0,0,2.5,1.4,2.6,2.6,0,0,0,2.4-1.4,8.7,8.7,0,0,0,.8-4.1,4.9,4.9,0,0,0-1-3.5,3,3,0,0,0-2.3-1.1,2.6,2.6,0,0,0-2.4,1.2A6,6,0,0,0,308.3,321.1Z" fill="#fffef9"/><path d="M342,313.3v16.9a4.2,4.2,0,0,0,.7,2.9c.4.5,1.5.8,3.1.8v2.9H328.9v-2.9h.6q2.4,0,3-.9a4.8,4.8,0,0,0,.6-2.8V322a5,5,0,0,0-.6-2.9c-.5-.5-1.4-.8-3-.8h-.6v-2.9Zm-9.3-9.6a4.9,4.9,0,0,1,1.5-3.6,5.1,5.1,0,0,1,7,0,5.2,5.2,0,0,1,1.4,3.6,5,5,0,0,1-1.4,3.5,4.9,4.9,0,0,1-3.5,1.5,4.9,4.9,0,0,1-3.6-1.5A5.2,5.2,0,0,1,332.7,303.7Z" fill="#fffef9"/><path d="M360.7,321.3v9a4.7,4.7,0,0,0,.6,2.7,2.3,2.3,0,0,0,2.1.9v2.9H347.9v-2.9a4.4,4.4,0,0,0,3.1-.8,4.6,4.6,0,0,0,.6-2.8v-7.8a5.2,5.2,0,0,0-.6-2.9c-.4-.5-1.5-.8-3.1-.8v-2.9l12.3-2a8.7,8.7,0,0,1,.5,3.3,13.6,13.6,0,0,1,3.9-3,9.8,9.8,0,0,1,4.1-.9,8.5,8.5,0,0,1,6.1,2.1,7.7,7.7,0,0,1,2.2,5.9v9a4.1,4.1,0,0,0,.7,2.8c.4.5,1.4.8,2.9.8v2.9H365.2v-2.9a4,4,0,0,0,2-.7c.5-.4.8-1.4.8-2.9V322c0-1.5-.2-2.6-.7-3.1a2,2,0,0,0-1.7-.9,4.6,4.6,0,0,0-2.4.8A14.7,14.7,0,0,0,360.7,321.3Z" fill="#fffef9"/><path d="M393,325.2c0,3,.5,5.3,1.5,6.8a5.4,5.4,0,0,0,4.6,2.3c2.2,0,4.2-1.1,6-3.4l2.6,1.6a12,12,0,0,1-4.5,3.7,15,15,0,0,1-15.9-1.8,12.3,12.3,0,0,1-.1-17.9,13.2,13.2,0,0,1,9.1-3.2,12.7,12.7,0,0,1,8.7,2.9c2.3,2,3.4,5,3.4,9Zm0-2.8h7c-.1-4-1.3-6.1-3.6-6.1a2.9,2.9,0,0,0-2.6,1.5A11.2,11.2,0,0,0,393,322.4Z" fill="#fffef9"/><path d="M422.5,325.2c0,3,.5,5.3,1.5,6.8a5.3,5.3,0,0,0,4.6,2.3c2.2,0,4.2-1.1,6-3.4l2.6,1.6a12.8,12.8,0,0,1-4.5,3.7,14.4,14.4,0,0,1-6.5,1.5,14,14,0,0,1-9.4-3.3,12.3,12.3,0,0,1-.1-17.9,13.1,13.1,0,0,1,9-3.2,12.8,12.8,0,0,1,8.8,2.9c2.3,2,3.4,5,3.4,9Zm0-2.8h6.9c-.1-4-1.3-6.1-3.5-6.1a2.8,2.8,0,0,0-2.6,1.5A9.7,9.7,0,0,0,422.5,322.4Z" fill="#fffef9"/><path d="M453.6,319a13.2,13.2,0,0,1,3.6-4.3,7.5,7.5,0,0,1,4.5-1.4,4.6,4.6,0,0,1,3.6,1.4,5.2,5.2,0,0,1,1.2,3.3,4.2,4.2,0,0,1-.9,2.7,3.4,3.4,0,0,1-2.7,1.2,2.5,2.5,0,0,1-1.6-.4,8.1,8.1,0,0,1-1.6-1.4,2.8,2.8,0,0,0-2.2-1.1,2.9,2.9,0,0,0-2.6,2.1,18.6,18.6,0,0,0-.9,6.6v2.5a5.2,5.2,0,0,0,.6,2.9c.4.5,1.4.8,2.9.8h.6v2.9H441.3v-2.9c1.6,0,2.6-.3,3-.8a4.4,4.4,0,0,0,.7-2.9v-7.9a4.2,4.2,0,0,0-.7-2.9c-.4-.5-1.4-.8-3.1-.8v-2.9l11.5-2.4A20.6,20.6,0,0,1,453.6,319Z" fill="#fffef9"/><path d="M481.1,313.3v16.9a4.9,4.9,0,0,0,.7,2.9c.4.5,1.5.8,3.1.8v2.9H468v-2.9h.6q2.4,0,3-.9a4.8,4.8,0,0,0,.6-2.8V322a5,5,0,0,0-.6-2.9c-.4-.5-1.4-.8-3-.8H468v-2.9Zm-9.3-9.6a4.9,4.9,0,0,1,1.5-3.6,5,5,0,0,1,3.5-1.4,4.8,4.8,0,0,1,3.5,1.4,4.9,4.9,0,0,1,1.5,3.6,5.1,5.1,0,0,1-5,5,4.5,4.5,0,0,1-3.5-1.5A4.9,4.9,0,0,1,471.8,303.7Z" fill="#fffef9"/><path d="M499.9,321.3v9a4.8,4.8,0,0,0,.5,2.7,2.3,2.3,0,0,0,2.1.9v2.9H487v-2.9c1.6,0,2.7-.3,3.1-.8a4.5,4.5,0,0,0,.7-2.8v-7.8a5.1,5.1,0,0,0-.7-2.9c-.4-.5-1.4-.8-3.1-.8v-2.9l12.3-2a10.8,10.8,0,0,1,.6,3.3,13.2,13.2,0,0,1,3.8-3,9.8,9.8,0,0,1,4.1-.9,8.5,8.5,0,0,1,6.1,2.1,7.7,7.7,0,0,1,2.2,5.9v9a4.7,4.7,0,0,0,.7,2.8,4,4,0,0,0,2.9.8v2.9H504.4v-2.9a4,4,0,0,0,1.9-.7c.5-.4.8-1.4.8-2.9V322a5.6,5.6,0,0,0-.6-3.1,2,2,0,0,0-1.8-.9,4.6,4.6,0,0,0-2.4.8A11.6,11.6,0,0,0,499.9,321.3Z" fill="#fffef9"/><path d="M528.9,328.7a8.4,8.4,0,0,1-4.7-2.9,7.1,7.1,0,0,1-1.6-4.5,6.7,6.7,0,0,1,3.3-6,17.5,17.5,0,0,1,8.7-2,18.8,18.8,0,0,1,5.1.6,9.8,9.8,0,0,1,3.7,1.8c1.9-1.6,3.6-2.4,4.9-2.4s2.7.9,2.7,2.6-.6,2.3-1.9,2.3a3.4,3.4,0,0,1-1.9-1,1.2,1.2,0,0,0-.9-.4,1.7,1.7,0,0,0-1.2.6,7.7,7.7,0,0,1-1.6,9.6c-1.8,1.5-5,2.4-9.6,2.6a14.6,14.6,0,0,0-4,.6,1.8,1.8,0,0,0-1.1,1.6c0,.9,1.2,1.4,3.6,1.4H538c4,0,6.9.6,8.7,1.9s2.6,3.2,2.6,6a8.3,8.3,0,0,1-3.7,7.1c-2.5,1.8-6.2,2.7-11.3,2.7s-8.1-.6-9.8-1.8-2.6-2.6-2.6-4.1a3.2,3.2,0,0,1,.9-2.4,3.3,3.3,0,0,1,2.2-.9,6,6,0,0,1,2.4.6,2.2,2.2,0,0,0-.3,1,2.5,2.5,0,0,0-.1.8,3,3,0,0,0,1.9,2.9,12.6,12.6,0,0,0,5.8,1c3.2,0,5.6-.4,7.2-1.3a4,4,0,0,0,2.4-3.4,2.2,2.2,0,0,0-1.6-2.3,35.9,35.9,0,0,0-7.5-.5c-4.3,0-7.4-.5-9.2-1.3a4.7,4.7,0,0,1-2.8-4.6,5.3,5.3,0,0,1,1.4-3.7A10.2,10.2,0,0,1,528.9,328.7Zm2.3-7.6a7.1,7.1,0,0,0,.8,3.9,2.9,2.9,0,0,0,2.5,1.4,2.6,2.6,0,0,0,2.4-1.4,8.7,8.7,0,0,0,.8-4.1,4.9,4.9,0,0,0-1-3.5,3,3,0,0,0-2.3-1.1,2.6,2.6,0,0,0-2.4,1.2A6,6,0,0,0,531.2,321.1Z" fill="#fffef9"/><path d="M566.3,302.4v-3.1h19.8v3.1h-.5c-1.9,0-3.1.3-3.7,1a6.4,6.4,0,0,0-.8,3.6v22.1q0,2.7.9,3.6c.5.7,1.7,1,3.6,1h.5v3.1H566.3v-3.1c2,0,3.3-.3,4-.9s1-1.8,1-3.7V307q0-2.7-.9-3.6C569.7,302.7,568.4,302.4,566.3,302.4Z" fill="#fffef9"/><path d="M601.8,321.3v9a4.7,4.7,0,0,0,.6,2.7,2.3,2.3,0,0,0,2.1.9v2.9H589v-2.9a4.4,4.4,0,0,0,3.1-.8,4.6,4.6,0,0,0,.6-2.8v-7.8a5.2,5.2,0,0,0-.6-2.9,4.4,4.4,0,0,0-3.1-.8v-2.9l12.3-2a8.7,8.7,0,0,1,.5,3.3,14.7,14.7,0,0,1,3.8-3,10.6,10.6,0,0,1,4.2-.9,8.5,8.5,0,0,1,6.1,2.1,8.1,8.1,0,0,1,2.2,5.9v9a4.1,4.1,0,0,0,.7,2.8c.4.5,1.4.8,2.9.8v2.9H606.3v-2.9a4.3,4.3,0,0,0,2-.7c.5-.4.7-1.4.7-2.9V322a5.6,5.6,0,0,0-.6-3.1,2,2,0,0,0-1.8-.9,4.6,4.6,0,0,0-2.3.8A11.8,11.8,0,0,0,601.8,321.3Z" fill="#fffef9"/><path d="M645.9,329.8l2.8,1.3a9.6,9.6,0,0,1-4.2,4.9,15.3,15.3,0,0,1-7.2,1.7,14.4,14.4,0,0,1-9.4-3.1,10.6,10.6,0,0,1-3.8-8.6,11.3,11.3,0,0,1,4.2-9.2c2.8-2.4,6.4-3.5,10.9-3.5a12.3,12.3,0,0,1,6.5,1.5,4.5,4.5,0,0,1,2.4,4,4,4,0,0,1-.9,2.5,3.2,3.2,0,0,1-2.5,1c-2,0-3.3-1.3-3.8-3.9a3.4,3.4,0,0,0-.8-1.7,2.5,2.5,0,0,0-1.7-.5,4.3,4.3,0,0,0-3.7,2,11.2,11.2,0,0,0-1.2,5.8c0,3.6.5,6.1,1.5,7.7a4.9,4.9,0,0,0,4.6,2.3A6.5,6.5,0,0,0,645.9,329.8Z" fill="#fffef9"/><path d="M653,332.8a4.7,4.7,0,0,1,1.5-3.5,4.9,4.9,0,0,1,3.5-1.5,4.9,4.9,0,0,1,3.6,1.5,4.6,4.6,0,0,1,1.4,3.5,4.8,4.8,0,0,1-1.4,3.5,4.9,4.9,0,0,1-3.6,1.5,4.9,4.9,0,0,1-3.5-1.5A4.5,4.5,0,0,1,653,332.8Z" fill="#fffef9"/><path d="M664.5,277.4v3.4H642.8v-3.4c0-96.7-78.6-175.3-175.3-175.3S292.3,180.7,292.3,277.4v3.4H272.2v-3.4c0-108.2,88-196.2,196.2-196.2S664.5,169.2,664.5,277.4Z" fill="#fffef9"/><path d="M411.4,116.6a162.9,162.9,0,0,1,40.3-8.3c3-.2,109.8,43.9,110.8,172.5H541.6S538,143.9,411.4,116.6Z" fill="#fffef9"/><path d="M127.5,280.8h18S137,177.4,250.9,136.7a196.3,196.3,0,0,1,34.4-24.5C256.5,112.2,128.8,134.7,127.5,280.8Z" fill="#fffef9"/><path d="M358,146.3s78.8,31.1,80.8,134.5h19.4s9-91.2-83.1-146.9A189.1,189.1,0,0,0,358,146.3Z" fill="#fffef9"/><path d="M193.5,280.8h19.3s-.2-56.3,26.9-93.9c21.9-30.4,53.3-61.9,107.9-71.3,0,0,10.3-9.9,38.7-22.5C329.1,84.2,194.8,134.7,193.5,280.8Z" fill="#fffef9"/><path d="M312.4,132.3s5.9.8,12.8,2.4c2.2-2.4,11.4-10.5,13.3-12.1A149.7,149.7,0,0,0,312.4,132.3Z" fill="#fffef9"/></g></svg>