<svg xmlns="http://www.w3.org/2000/svg" width="11in" height="6.4in" viewBox="0 0 792 459.9"><title>Logo Colour</title><g id="Colour_Arch" data-name="Colour Arch"><path d="M107.5,299.5h19.3s-9.1-111,113.3-154.7a212.7,212.7,0,0,1,37-26.4C246.1,118.4,108.9,142.5,107.5,299.5Z" fill="#afcbe6" stroke="#afcbe6" stroke-miterlimit="10" stroke-width="1.52"/><path d="M306.6,139.8s6.3.9,13.7,2.6c2.4-2.5,12.3-11.2,14.3-12.9A160.2,160.2,0,0,0,306.6,139.8Z" fill="#afcbe6"/><path d="M355.2,155.1s84.6,33.4,86.8,144.4h20.8s9.7-98-89.2-157.9A192.7,192.7,0,0,0,355.2,155.1Z" fill="#afcbe6"/><path d="M178.5,299.6h20.7s-.2-60.5,28.9-101c23.5-32.6,57.2-66.4,115.9-76.5,0,0,11-10.6,41.6-24.2C324.1,88.3,179.9,142.6,178.5,299.6Z" fill="#4890c0" stroke="#4890c0" stroke-miterlimit="10" stroke-width="1.52"/><path d="M412.6,123.1c1.7-.7,22.3-7.5,43.2-8.9,3.3-.2,118,47.2,119,185.4H552.5S548.5,152.5,412.6,123.1Z" fill="#4890c0"/><path d="M684.5,295.9v3.7H661.1v-3.7c0-103.9-84.4-188.3-188.2-188.3S284.6,192,284.6,295.9v3.7H263v-3.7c0-116.3,94.5-210.8,210.7-210.8S684.5,179.6,684.5,295.9Z" fill="#003c77" stroke="#003c77" stroke-miterlimit="10" stroke-width="1.52"/><g id="Wordmark"><path d="M125,340.4v11.1c0,1.9.3,3.2,1,3.9s2,1,4.2,1v3.3h-21v-3.3c2.1,0,3.5-.3,4.2-1s1.1-1.9,1.1-3.9V327.7a6.1,6.1,0,0,0-1-3.9c-.7-.7-2.1-1-4.3-1v-3.3h21v3.3c-2.1,0-3.5.3-4.2,1s-1,2-1,3.9v9h16.5v-9q0-2.8-.9-3.9c-.7-.7-2.1-1-4.2-1v-3.3h20.9v3.3q-3.2,0-4.2.9c-.7.7-1.1,2-1.1,4v23.8a6.1,6.1,0,0,0,1,3.9c.7.7,2.1,1,4.3,1v3.3H136.4v-3.3c2.1,0,3.5-.3,4.1-1s1-2,1-3.9V340.4Z" fill="#003c77"/><path d="M176.1,341.9v9.6a6,6,0,0,0,.9,3.8c.6.8,1.9,1.1,3.9,1.1h.9v3.3H160v-3.3h.7c2,0,3.3-.3,3.9-1.1a6,6,0,0,0,.9-3.8V327.7a6.4,6.4,0,0,0-.9-3.9c-.6-.7-1.9-1-3.9-1h-.9v-3.3l16.3-.4c4.1,0,7.2.1,9.4.3a20.3,20.3,0,0,1,6.2,1.8,10.4,10.4,0,0,1,5.6,9.3,9.7,9.7,0,0,1-2.5,6.8,11,11,0,0,1-6.1,3.7,42,42,0,0,1-9.7.9Zm0-3.6H178c3.2,0,5.3-.6,6.3-2a8.6,8.6,0,0,0,1.6-5.5,9.3,9.3,0,0,0-1.2-5,5,5,0,0,0-2.9-2.5,19.6,19.6,0,0,0-5.7-.6Z" fill="#003c77"/><path d="M230.1,340.5v9.9a15.1,15.1,0,0,0,.3,3.8,3,3,0,0,0,1.8,1.4,11.6,11.6,0,0,0,4.3.6c2.6,0,4.6-.3,5.8-1a7.8,7.8,0,0,0,3.3-3.4,20.5,20.5,0,0,0,2.2-5.3h3.3l-.3,13.2H214v-3.3h.8c2,0,3.3-.3,3.9-1.1a6,6,0,0,0,.9-3.8V327.6c0-1.8-.3-3.1-1-3.8s-1.9-1.1-3.8-1.1H214v-3.2h34.3l.6,10.4h-3.3a20.4,20.4,0,0,0-2-4.4,6.5,6.5,0,0,0-2.2-2,11.1,11.1,0,0,0-3.8-.5h-7.5v13.9h3.7c1.8,0,3-.3,3.6-1s.9-2,1-4h3.3v13.7h-3.3V345a6.2,6.2,0,0,0-.7-3.1c-.5-1-1.7-1.4-3.7-1.4Z" fill="#003c77"/><path d="M268.2,343v9.7a5.6,5.6,0,0,0,.6,3,2.8,2.8,0,0,0,2.2.9v3.1H254.4v-3.1c1.7,0,2.8-.3,3.3-.8a4.9,4.9,0,0,0,.7-3.1v-8.3c0-1.5-.2-2.6-.7-3.1s-1.5-.9-3.3-.9v-3.1l13.2-2.2a13.2,13.2,0,0,1,.6,3.6,13.1,13.1,0,0,1,4.1-3.2,10,10,0,0,1,4.5-1.1,9.2,9.2,0,0,1,6.5,2.3,8.5,8.5,0,0,1,2.4,6.3v9.7c0,1.5.2,2.5.7,3s1.5.9,3.2.9v3.1H273v-3.1a4,4,0,0,0,2.1-.7c.6-.5.9-1.5.9-3.2v-8.9a6,6,0,0,0-.7-3.3,2.2,2.2,0,0,0-1.9-.9,4.6,4.6,0,0,0-2.6.8A15.9,15.9,0,0,0,268.2,343Z" fill="#003c77"/><path d="M299.4,351.1a9.1,9.1,0,0,1-5-3.2,7.6,7.6,0,0,1-1.8-4.9,6.8,6.8,0,0,1,3.6-6.3,17.3,17.3,0,0,1,9.3-2.2,22,22,0,0,1,5.5.6,13.5,13.5,0,0,1,4,1.9c2.1-1.7,3.8-2.6,5.2-2.6s3,1,3,2.9-.7,2.4-2.1,2.4a3.1,3.1,0,0,1-2-1.1,2.6,2.6,0,0,0-1-.4,2.4,2.4,0,0,0-1.3.7,8.1,8.1,0,0,1-1.8,10.3c-1.9,1.7-5.3,2.6-10.2,2.8a12.1,12.1,0,0,0-4.3.7,1.7,1.7,0,0,0-1.2,1.6c0,1.1,1.3,1.6,3.9,1.6h5.9c4.3,0,7.5.7,9.4,2.1s2.9,3.5,2.9,6.5a9,9,0,0,1-4,7.5c-2.7,2-6.8,3-12.2,3s-8.6-.7-10.5-2-2.8-2.8-2.8-4.4a3.2,3.2,0,0,1,1-2.5,3,3,0,0,1,2.3-1,6,6,0,0,1,2.6.7,4.2,4.2,0,0,0-.4,1c0,.3-.1.6-.1.9a3.3,3.3,0,0,0,2.1,3.1,14.3,14.3,0,0,0,6.2,1.1c3.5,0,6-.5,7.8-1.5s2.5-2.2,2.5-3.6a2.4,2.4,0,0,0-1.7-2.5,42,42,0,0,0-8.1-.5c-4.6,0-7.9-.5-9.8-1.5a4.8,4.8,0,0,1-3-4.8,5.5,5.5,0,0,1,1.5-4A9,9,0,0,1,299.4,351.1Zm2.4-8.3a8.3,8.3,0,0,0,.9,4.3,3.1,3.1,0,0,0,2.7,1.4A2.8,2.8,0,0,0,308,347a8.3,8.3,0,0,0,.9-4.4,5.7,5.7,0,0,0-1.1-3.8,3.4,3.4,0,0,0-2.5-1.1,2.9,2.9,0,0,0-2.6,1.3A6.4,6.4,0,0,0,301.8,342.8Z" fill="#003c77"/><path d="M338,334.4v18.2c0,1.5.2,2.6.7,3.1s1.6.9,3.3.9v3.1H323.9v-3.1h.7c1.6,0,2.7-.3,3.2-.9a5.8,5.8,0,0,0,.6-3.1v-8.8a4.9,4.9,0,0,0-.7-3.1c-.4-.6-1.5-.9-3.1-.9h-.7v-3.1Zm-10-10.3a5.3,5.3,0,0,1,5.4-5.3,5.1,5.1,0,0,1,3.7,1.5,5.5,5.5,0,0,1,1.6,3.8,5.3,5.3,0,0,1-1.6,3.8,4.9,4.9,0,0,1-3.7,1.6,5.1,5.1,0,0,1-3.9-1.6A5.4,5.4,0,0,1,328,324.1Z" fill="#003c77"/><path d="M358.1,343v9.7a5.6,5.6,0,0,0,.6,3,2.9,2.9,0,0,0,2.3.9v3.1H344.3v-3.1c1.8,0,2.9-.3,3.3-.8a4.9,4.9,0,0,0,.7-3.1v-8.3c0-1.5-.2-2.6-.7-3.1s-1.5-.9-3.3-.9v-3.1l13.2-2.2a10.2,10.2,0,0,1,.6,3.6,13.1,13.1,0,0,1,4.1-3.2,10.3,10.3,0,0,1,4.5-1.1,9,9,0,0,1,6.5,2.3,8.5,8.5,0,0,1,2.4,6.3v9.7c0,1.5.2,2.5.7,3s1.6.9,3.2.9v3.1H362.9v-3.1a4,4,0,0,0,2.1-.7c.6-.5.9-1.5.9-3.2v-8.9c0-1.6-.2-2.8-.7-3.3a2.2,2.2,0,0,0-1.9-.9,4.1,4.1,0,0,0-2.5.8A13,13,0,0,0,358.1,343Z" fill="#003c77"/><path d="M392.8,347.3c0,3.2.5,5.6,1.6,7.3a5.7,5.7,0,0,0,5,2.4c2.3,0,4.5-1.2,6.4-3.6l2.8,1.7a13.1,13.1,0,0,1-4.9,4,15.9,15.9,0,0,1-17-2,12,12,0,0,1-4.2-9.6c0-4.1,1.3-7.3,4-9.6a14.7,14.7,0,0,1,9.8-3.5,14.1,14.1,0,0,1,9.4,3.2c2.4,2.1,3.6,5.4,3.6,9.7Zm0-3h7.5c-.2-4.4-1.4-6.6-3.9-6.6a2.9,2.9,0,0,0-2.7,1.7A10.1,10.1,0,0,0,392.8,344.3Z" fill="#003c77"/><path d="M424.5,347.3c0,3.2.5,5.6,1.6,7.3A5.5,5.5,0,0,0,431,357c2.4,0,4.5-1.2,6.5-3.6l2.7,1.7a12,12,0,0,1-4.8,4,14.7,14.7,0,0,1-7,1.6,15.1,15.1,0,0,1-10.1-3.6,11.9,11.9,0,0,1-4.1-9.6c0-4.1,1.3-7.3,4-9.6a14.7,14.7,0,0,1,9.8-3.5,14.1,14.1,0,0,1,9.4,3.2c2.4,2.1,3.6,5.4,3.6,9.7Zm-.1-3h7.5c-.1-4.4-1.4-6.6-3.8-6.6a3.2,3.2,0,0,0-2.8,1.7A10.1,10.1,0,0,0,424.4,344.3Z" fill="#003c77"/><path d="M457.9,340.5a12.5,12.5,0,0,1,3.9-4.5,7.9,7.9,0,0,1,4.8-1.6,5,5,0,0,1,3.9,1.6,5.8,5.8,0,0,1,1.3,3.5,4.8,4.8,0,0,1-1.1,3,3.6,3.6,0,0,1-2.9,1.2,2.7,2.7,0,0,1-1.6-.4,7.5,7.5,0,0,1-1.8-1.6,2.9,2.9,0,0,0-2.3-1.2c-1.3,0-2.2.8-2.9,2.4a21.1,21.1,0,0,0-.9,7.1v2.6a4.9,4.9,0,0,0,.7,3.1c.4.6,1.5.9,3.1.9h.6v3.1h-18v-3.1c1.7,0,2.8-.3,3.2-.9a4.9,4.9,0,0,0,.7-3.1v-8.5a4.9,4.9,0,0,0-.7-3.1c-.4-.5-1.5-.8-3.3-.8V337l12.3-2.6A20.4,20.4,0,0,1,457.9,340.5Z" fill="#003c77"/><path d="M487.5,334.4v18.2c0,1.5.2,2.6.7,3.1s1.6.9,3.3.9v3.1H473.3v-3.1h.7c1.7,0,2.8-.3,3.2-.9a4.9,4.9,0,0,0,.7-3.1v-8.8a4.9,4.9,0,0,0-.7-3.1c-.4-.6-1.5-.9-3.2-.9h-.7v-3.1Zm-10-10.3a5.1,5.1,0,0,1,5.3-5.3,5.2,5.2,0,0,1,3.8,1.5,5.4,5.4,0,0,1,1.5,3.8,5.2,5.2,0,0,1-1.5,3.8,5.1,5.1,0,0,1-3.8,1.6,4.9,4.9,0,0,1-3.8-1.6A5.4,5.4,0,0,1,477.5,324.1Z" fill="#003c77"/><path d="M507.6,343v9.7a5.6,5.6,0,0,0,.6,3,2.8,2.8,0,0,0,2.2.9v3.1H493.8v-3.1c1.7,0,2.8-.3,3.3-.8a4.9,4.9,0,0,0,.7-3.1v-8.3c0-1.5-.2-2.6-.7-3.1s-1.6-.9-3.3-.9v-3.1l13.2-2.2a13.2,13.2,0,0,1,.6,3.6,13.1,13.1,0,0,1,4.1-3.2,10,10,0,0,1,4.5-1.1,9.2,9.2,0,0,1,6.5,2.3,8.5,8.5,0,0,1,2.4,6.3v9.7c0,1.5.2,2.5.7,3s1.5.9,3.1.9v3.1H512.4v-3.1a4.8,4.8,0,0,0,2.1-.7c.6-.5.9-1.5.9-3.2v-8.9a6,6,0,0,0-.7-3.3,2.3,2.3,0,0,0-1.9-.9,4.4,4.4,0,0,0-2.6.8A12.7,12.7,0,0,0,507.6,343Z" fill="#003c77"/><path d="M538.8,351.1a8.8,8.8,0,0,1-5-3.2A7.6,7.6,0,0,1,532,343a6.8,6.8,0,0,1,3.6-6.3,17.3,17.3,0,0,1,9.3-2.2,22,22,0,0,1,5.5.6,13.5,13.5,0,0,1,4,1.9c2-1.7,3.8-2.6,5.2-2.6s3,1,3,2.9-.7,2.4-2.1,2.4a3.1,3.1,0,0,1-2-1.1,2.6,2.6,0,0,0-1-.4,2.6,2.6,0,0,0-1.4.7,7.3,7.3,0,0,1,1.2,4.1,8.1,8.1,0,0,1-2.9,6.2c-1.9,1.7-5.3,2.6-10.2,2.8a12.1,12.1,0,0,0-4.3.7,1.7,1.7,0,0,0-1.2,1.6c0,1.1,1.3,1.6,3.9,1.6h5.9c4.3,0,7.4.7,9.4,2.1s2.8,3.5,2.8,6.5a8.7,8.7,0,0,1-4,7.5c-2.6,2-6.7,3-12.1,3s-8.7-.7-10.5-2-2.9-2.8-2.9-4.4a3.3,3.3,0,0,1,1.1-2.5,2.9,2.9,0,0,1,2.3-1,5.3,5.3,0,0,1,2.5.7l-.3,1a2.8,2.8,0,0,0-.1.9,3.3,3.3,0,0,0,2.1,3.1,14,14,0,0,0,6.2,1.1c3.5,0,6-.5,7.7-1.5s2.6-2.2,2.6-3.6a2.4,2.4,0,0,0-1.7-2.5,42,42,0,0,0-8.1-.5q-6.9,0-9.9-1.5a4.9,4.9,0,0,1-2.9-4.8,5.5,5.5,0,0,1,1.5-4A9,9,0,0,1,538.8,351.1Zm2.4-8.3a8.3,8.3,0,0,0,.9,4.3,3.1,3.1,0,0,0,2.7,1.4,2.9,2.9,0,0,0,2.6-1.5c.6-.9.8-2.4.8-4.4a5.8,5.8,0,0,0-1-3.8,3.4,3.4,0,0,0-2.5-1.1,2.8,2.8,0,0,0-2.6,1.3A6.4,6.4,0,0,0,541.2,342.8Z" fill="#003c77"/><path d="M579,322.8v-3.3h21.3v3.3h-.6c-2,0-3.3.3-3.9,1.1a6,6,0,0,0-1,3.8v23.8a6,6,0,0,0,1,3.8c.6.8,1.9,1.1,3.9,1.1h.6v3.3H579v-3.3c2.1,0,3.6-.3,4.3-1s1-1.9,1-3.9V327.7c0-1.9-.3-3.2-1-3.9S581.2,322.8,579,322.8Z" fill="#003c77"/><path d="M617.1,343v9.7a5.6,5.6,0,0,0,.6,3,3.1,3.1,0,0,0,2.3.9v3.1H603.3v-3.1c1.8,0,2.9-.3,3.3-.8a4.9,4.9,0,0,0,.7-3.1v-8.3c0-1.5-.2-2.6-.7-3.1s-1.5-.9-3.3-.9v-3.1l13.2-2.2a8.4,8.4,0,0,1,.6,3.6,13.1,13.1,0,0,1,4.1-3.2,10.3,10.3,0,0,1,4.5-1.1,9,9,0,0,1,6.5,2.3,8.5,8.5,0,0,1,2.4,6.3v9.7c0,1.5.2,2.5.7,3s1.6.9,3.2.9v3.1H622v-3.1a4,4,0,0,0,2-.7c.6-.5.9-1.5.9-3.2v-8.9c0-1.6-.2-2.8-.7-3.3a2.2,2.2,0,0,0-1.9-.9,4.1,4.1,0,0,0-2.5.8A13,13,0,0,0,617.1,343Z" fill="#003c77"/><path d="M664.4,352.2l3.1,1.4a9.8,9.8,0,0,1-4.6,5.2,14.5,14.5,0,0,1-7.6,1.9,15.5,15.5,0,0,1-10.1-3.3,11.3,11.3,0,0,1-4.2-9.3,12,12,0,0,1,4.6-9.9,17.6,17.6,0,0,1,11.6-3.8,13.1,13.1,0,0,1,7.1,1.7,4.9,4.9,0,0,1,2.6,4.3,3.5,3.5,0,0,1-1,2.6,3.4,3.4,0,0,1-2.7,1.2c-2.1,0-3.5-1.4-4.1-4.3a3.8,3.8,0,0,0-.8-1.7,2.5,2.5,0,0,0-1.9-.6,4.4,4.4,0,0,0-3.9,2.1c-.9,1.4-1.3,3.5-1.3,6.3s.5,6.6,1.6,8.2a5.4,5.4,0,0,0,4.9,2.6C660.8,356.8,663,355.2,664.4,352.2Z" fill="#003c77"/><path d="M672.2,355.4a5.5,5.5,0,0,1,1.5-3.8,5.5,5.5,0,0,1,3.8-1.6,5.3,5.3,0,0,1,3.8,1.6,5.2,5.2,0,0,1,1.6,3.8,4.9,4.9,0,0,1-1.6,3.8,5.1,5.1,0,0,1-3.8,1.6,5.3,5.3,0,0,1-5.3-5.4Z" fill="#003c77"/></g></g></svg>