<svg xmlns="http://www.w3.org/2000/svg" width="11in" height="6in" viewBox="0 0 792 432"><title>Logo-b&amp;amp;w</title><g id="BW"><path d="M141.2,319.9v10.4q0,2.7.9,3.6c.6.7,2,1,4,1V338H126.4v-3.1c1.9,0,3.3-.3,3.9-.9s1-1.9,1-3.7V307.9a5.7,5.7,0,0,0-.9-3.7c-.6-.6-2-.9-4-.9v-3.1h19.7v3.1q-3,0-3.9.9c-.7.7-1,1.9-1,3.7v8.5h15.5v-8.5c0-1.7-.3-3-.9-3.6s-1.9-1-3.9-1v-3.1h19.7v3.1c-2,0-3.3.3-4,.9s-1,1.8-1,3.7v22.4c0,1.8.3,3,1,3.7s2,.9,4,.9V338H151.9v-3.1c2,0,3.3-.3,3.9-1s.9-1.8.9-3.6V319.9Z" fill="#231f20"/><path d="M189.2,321.3v9a5.6,5.6,0,0,0,.9,3.6c.6.7,1.8,1,3.7,1h.8V338H174.1v-3.1h.7c1.9,0,3.1-.3,3.7-1a6.4,6.4,0,0,0,.8-3.6V307.9a5.6,5.6,0,0,0-.9-3.6c-.5-.7-1.8-1-3.6-1h-.9v-3.1l15.3-.4c3.9,0,6.8.1,8.9.3a16.2,16.2,0,0,1,5.8,1.7,10.7,10.7,0,0,1,3.9,3.7,10.3,10.3,0,0,1,1.4,5.1,9.2,9.2,0,0,1-2.3,6.3,10.6,10.6,0,0,1-5.8,3.5,37.1,37.1,0,0,1-9.1.9Zm0-3.4h1.9c2.9,0,4.9-.6,5.9-1.9a8.2,8.2,0,0,0,1.5-5.2,9.3,9.3,0,0,0-1.1-4.7,4.8,4.8,0,0,0-2.8-2.3,17.3,17.3,0,0,0-5.4-.6Z" fill="#231f20"/><path d="M240,319.9v9.4a12.8,12.8,0,0,0,.3,3.5,3.1,3.1,0,0,0,1.7,1.4,13.3,13.3,0,0,0,4.1.5,12.5,12.5,0,0,0,5.4-.9,7.7,7.7,0,0,0,3.1-3.3,14.9,14.9,0,0,0,2-4.9h3.2l-.3,12.4H224.9v-3.1h.7c1.9,0,3.1-.3,3.7-1a6.4,6.4,0,0,0,.8-3.6V307.8a5.6,5.6,0,0,0-.9-3.6c-.5-.6-1.8-1-3.6-1h-.7v-3h32.2l.6,9.8h-3.1a17.6,17.6,0,0,0-1.9-4.1,5.5,5.5,0,0,0-2.1-2,10.1,10.1,0,0,0-3.5-.4H240v13.1h3.5a4.7,4.7,0,0,0,3.4-1,7,7,0,0,0,.9-3.7H251v12.8h-3.2v-.5a7.3,7.3,0,0,0-.6-3c-.5-.8-1.7-1.3-3.5-1.3Z" fill="#231f20"/><path d="M275.8,322.3v9.1a5.1,5.1,0,0,0,.6,2.8,2.6,2.6,0,0,0,2.1.9V338H262.9v-2.9a4.4,4.4,0,0,0,3.1-.8,4.9,4.9,0,0,0,.7-2.9v-7.8a4.9,4.9,0,0,0-.7-2.9c-.4-.6-1.5-.8-3.1-.8v-3l12.4-2a8.7,8.7,0,0,1,.5,3.3,17,17,0,0,1,3.9-3,10,10,0,0,1,4.2-1,8.4,8.4,0,0,1,6.1,2.2,7.8,7.8,0,0,1,2.3,5.9v9.1a4.2,4.2,0,0,0,.7,2.9c.4.5,1.4.8,2.9.8V338H280.4v-2.9a4.3,4.3,0,0,0,2-.7c.5-.4.7-1.4.7-3V323a5.8,5.8,0,0,0-.6-3.1,1.9,1.9,0,0,0-1.8-.8,3.8,3.8,0,0,0-2.4.8A11,11,0,0,0,275.8,322.3Z" fill="#231f20"/><path d="M305.2,329.9a8.6,8.6,0,0,1-4.7-3,6.7,6.7,0,0,1-1.7-4.6,6.6,6.6,0,0,1,3.4-6,17.5,17.5,0,0,1,8.7-2,20.1,20.1,0,0,1,5.2.6,9.8,9.8,0,0,1,3.7,1.8c2-1.6,3.6-2.5,4.9-2.5s2.8.9,2.8,2.7-.6,2.3-1.9,2.3a3.2,3.2,0,0,1-1.9-1,1.2,1.2,0,0,0-.9-.4,1.9,1.9,0,0,0-1.3.7,7,7,0,0,1,1.1,3.8,7.4,7.4,0,0,1-2.7,5.8c-1.8,1.6-5,2.5-9.7,2.7a9.5,9.5,0,0,0-4,.6,1.6,1.6,0,0,0-1.1,1.5q0,1.5,3.6,1.5h5.6c4.1,0,7,.6,8.8,1.9s2.7,3.3,2.7,6.1a8.3,8.3,0,0,1-3.7,7.1c-2.6,1.9-6.4,2.8-11.5,2.8s-8.1-.6-9.9-1.9-2.6-2.6-2.6-4.1a3.2,3.2,0,0,1,.9-2.4,3.3,3.3,0,0,1,2.3-.9,6,6,0,0,1,2.3.6l-.3,1a2.5,2.5,0,0,0-.1.8,3.3,3.3,0,0,0,2,3,14.3,14.3,0,0,0,5.8.9c3.3,0,5.7-.4,7.3-1.3a4,4,0,0,0,2.4-3.4,2.3,2.3,0,0,0-1.6-2.4,37.1,37.1,0,0,0-7.6-.5c-4.3,0-7.4-.4-9.3-1.3a4.8,4.8,0,0,1-2.8-4.6,5,5,0,0,1,1.5-3.7A7.9,7.9,0,0,1,305.2,329.9Zm2.3-7.8a7.3,7.3,0,0,0,.8,4,2.9,2.9,0,0,0,5,0,8.9,8.9,0,0,0,.8-4.2,5.4,5.4,0,0,0-1-3.5,3.2,3.2,0,0,0-2.4-1.1,2.7,2.7,0,0,0-2.4,1.2A6,6,0,0,0,307.5,322.1Z" fill="#231f20"/><path d="M341.5,314.2v17.1a5.4,5.4,0,0,0,.6,3c.5.5,1.5.8,3.2.8V338H328.2v-2.9h.6q2.4,0,3-.9a4.2,4.2,0,0,0,.7-2.9V323a5.4,5.4,0,0,0-.7-2.9c-.4-.5-1.4-.8-3-.8h-.6v-2.9Zm-9.4-9.6a4.9,4.9,0,0,1,1.5-3.6,4.8,4.8,0,0,1,7,0,4.9,4.9,0,0,1,1.5,3.6,4.9,4.9,0,0,1-1.5,3.5,4.7,4.7,0,0,1-3.5,1.5,4.9,4.9,0,0,1-3.6-1.5A4.7,4.7,0,0,1,332.1,304.6Z" fill="#231f20"/><path d="M360.4,322.3v9.1a5.1,5.1,0,0,0,.6,2.8c.3.6,1,.8,2.1.9V338H347.4v-2.9c1.6,0,2.7-.3,3.1-.8a4.2,4.2,0,0,0,.7-2.9v-7.8a4.2,4.2,0,0,0-.7-2.9c-.4-.6-1.4-.8-3.1-.8v-3l12.4-2a10.8,10.8,0,0,1,.6,3.3,14.7,14.7,0,0,1,3.8-3,10.7,10.7,0,0,1,4.2-1,8.8,8.8,0,0,1,6.2,2.2,7.7,7.7,0,0,1,2.2,5.9v9.1a4.2,4.2,0,0,0,.7,2.9c.4.5,1.4.8,3,.8V338H364.9v-2.9a4,4,0,0,0,2-.7c.5-.4.8-1.4.8-3V323a5.8,5.8,0,0,0-.6-3.1,2.2,2.2,0,0,0-1.8-.8,3.8,3.8,0,0,0-2.4.8A8,8,0,0,0,360.4,322.3Z" fill="#231f20"/><path d="M393,326.3c0,3.1.5,5.3,1.5,6.9a5.4,5.4,0,0,0,4.7,2.2q3.3,0,6-3.3l2.6,1.6a11.1,11.1,0,0,1-4.5,3.7,14.5,14.5,0,0,1-6.6,1.5,14.3,14.3,0,0,1-9.5-3.3,12.6,12.6,0,0,1-.1-18.1,13.5,13.5,0,0,1,9.2-3.3,12.9,12.9,0,0,1,8.8,3c2.3,2,3.4,5.1,3.4,9.1Zm-.1-2.8H400c-.1-4.1-1.3-6.2-3.6-6.2a2.7,2.7,0,0,0-2.6,1.6A9.1,9.1,0,0,0,392.9,323.5Z" fill="#231f20"/><path d="M422.7,326.3a12.8,12.8,0,0,0,1.6,6.9,5.2,5.2,0,0,0,4.6,2.2,7.9,7.9,0,0,0,6.1-3.3l2.6,1.6a11.4,11.4,0,0,1-4.6,3.7,13.8,13.8,0,0,1-6.5,1.5,14.3,14.3,0,0,1-9.5-3.3,11.5,11.5,0,0,1-3.9-9.1c0-3.8,1.2-6.8,3.8-9a13.4,13.4,0,0,1,9.1-3.3,13.1,13.1,0,0,1,8.9,3c2.3,2,3.4,5.1,3.4,9.1Zm0-2.8h7.1c-.1-4.1-1.3-6.2-3.6-6.2a2.7,2.7,0,0,0-2.6,1.6A9.1,9.1,0,0,0,422.7,323.5Z" fill="#231f20"/><path d="M454.2,320a12.3,12.3,0,0,1,3.7-4.3,7.4,7.4,0,0,1,4.5-1.5,4.3,4.3,0,0,1,3.6,1.5,5.2,5.2,0,0,1,1.2,3.3,4.5,4.5,0,0,1-.9,2.8,3.5,3.5,0,0,1-2.8,1.2,2.4,2.4,0,0,1-1.5-.4,6.6,6.6,0,0,1-1.7-1.5,2.9,2.9,0,0,0-2.1-1.1,3,3,0,0,0-2.8,2.2,18.9,18.9,0,0,0-.9,6.7v2.4a4.9,4.9,0,0,0,.7,2.9c.4.6,1.4.9,2.9.9h.6V338H441.8v-2.9q2.4,0,3-.9a4.2,4.2,0,0,0,.7-2.9v-7.9a5.5,5.5,0,0,0-.7-3c-.4-.5-1.5-.7-3.1-.7v-3l11.6-2.5A22.1,22.1,0,0,1,454.2,320Z" fill="#231f20"/><path d="M482,314.2v17.1a4.6,4.6,0,0,0,.7,3c.4.5,1.5.8,3.1.8V338H468.7v-2.9h.7q2.3,0,3-.9a5,5,0,0,0,.6-2.9V323a4.6,4.6,0,0,0-.7-2.9c-.4-.5-1.4-.8-2.9-.8h-.7v-2.9Zm-9.4-9.6a4.9,4.9,0,0,1,1.5-3.6,4.7,4.7,0,0,1,3.5-1.5,4.9,4.9,0,0,1,3.6,1.5,5.2,5.2,0,0,1,1.4,3.6,4.9,4.9,0,0,1-1.5,3.5,4.5,4.5,0,0,1-3.5,1.5,4.9,4.9,0,0,1-3.6-1.5A5.2,5.2,0,0,1,472.6,304.6Z" fill="#231f20"/><path d="M500.9,322.3v9.1a5.1,5.1,0,0,0,.6,2.8,2.6,2.6,0,0,0,2.1.9V338H487.9v-2.9c1.7,0,2.7-.3,3.1-.8a4.2,4.2,0,0,0,.7-2.9v-7.8a5,5,0,0,0-.6-2.9c-.5-.6-1.5-.8-3.2-.8v-3l12.4-2a8.4,8.4,0,0,1,.6,3.3,13.6,13.6,0,0,1,3.9-3,10,10,0,0,1,4.2-1,8.6,8.6,0,0,1,6.1,2.2,7.7,7.7,0,0,1,2.2,5.9v9.1a4.9,4.9,0,0,0,.7,2.9,4.3,4.3,0,0,0,3,.8V338H505.4v-2.9a4,4,0,0,0,2-.7c.5-.4.8-1.4.8-3V323a5.8,5.8,0,0,0-.6-3.1,1.9,1.9,0,0,0-1.8-.8,3.8,3.8,0,0,0-2.4.8A9.3,9.3,0,0,0,500.9,322.3Z" fill="#231f20"/><path d="M530.3,329.9a8.5,8.5,0,0,1-4.8-3,7.3,7.3,0,0,1-1.7-4.6,6.8,6.8,0,0,1,3.4-6,17.6,17.6,0,0,1,8.8-2,20.1,20.1,0,0,1,5.2.6,9.8,9.8,0,0,1,3.7,1.8c1.9-1.6,3.6-2.5,4.9-2.5s2.8.9,2.8,2.7-.7,2.3-1.9,2.3a3.4,3.4,0,0,1-2-1,1.2,1.2,0,0,0-.9-.4,1.5,1.5,0,0,0-1.2.7,7,7,0,0,1,1,3.8,7.4,7.4,0,0,1-2.7,5.8q-2.7,2.4-9.6,2.7a9.2,9.2,0,0,0-4,.6,1.5,1.5,0,0,0-1.1,1.5q0,1.5,3.6,1.5h5.6c4,0,7,.6,8.8,1.9s2.7,3.3,2.7,6.1a8.4,8.4,0,0,1-3.8,7.1c-2.5,1.9-6.3,2.8-11.4,2.8s-8.1-.6-9.9-1.9-2.7-2.6-2.7-4.1a3.3,3.3,0,0,1,1-2.4,3.1,3.1,0,0,1,2.2-.9,6,6,0,0,1,2.4.6l-.3,1a2.5,2.5,0,0,0-.1.8,3.2,3.2,0,0,0,1.9,3,14.9,14.9,0,0,0,5.9.9c3.2,0,5.6-.4,7.3-1.3a4,4,0,0,0,2.4-3.4,2.4,2.4,0,0,0-1.7-2.4,35.9,35.9,0,0,0-7.5-.5c-4.4,0-7.4-.4-9.3-1.3a4.6,4.6,0,0,1-2.8-4.6,5.3,5.3,0,0,1,1.4-3.7A8.3,8.3,0,0,1,530.3,329.9Zm2.2-7.8a7.2,7.2,0,0,0,.9,4,2.7,2.7,0,0,0,2.5,1.4,2.6,2.6,0,0,0,2.4-1.4,7.8,7.8,0,0,0,.8-4.2,5.4,5.4,0,0,0-.9-3.5,3.4,3.4,0,0,0-2.4-1.1,2.9,2.9,0,0,0-2.5,1.2A6.9,6.9,0,0,0,532.5,322.1Z" fill="#231f20"/><path d="M568,303.3v-3.1h20.1v3.1h-.6c-1.9,0-3.1.3-3.7,1a5.6,5.6,0,0,0-.9,3.6v22.4a5.6,5.6,0,0,0,.9,3.6c.6.7,1.8,1,3.7,1h.6V338H568v-3.1c2.1,0,3.4-.3,4-.9s1-1.9,1-3.7V307.9a5.7,5.7,0,0,0-.9-3.7C571.5,303.6,570.1,303.3,568,303.3Z" fill="#231f20"/><path d="M603.9,322.3v9.1a5.1,5.1,0,0,0,.6,2.8,2.6,2.6,0,0,0,2.1.9V338H590.9v-2.9c1.6,0,2.7-.3,3.1-.8a4.2,4.2,0,0,0,.7-2.9v-7.8a4.2,4.2,0,0,0-.7-2.9c-.4-.6-1.4-.8-3.1-.8v-3l12.4-2a10.8,10.8,0,0,1,.6,3.3,14.7,14.7,0,0,1,3.8-3,10.7,10.7,0,0,1,4.2-1,8.8,8.8,0,0,1,6.2,2.2,7.7,7.7,0,0,1,2.2,5.9v9.1a4.2,4.2,0,0,0,.7,2.9c.5.5,1.4.8,3,.8V338H608.4v-2.9a4,4,0,0,0,2-.7c.5-.4.8-1.4.8-3V323a5.8,5.8,0,0,0-.6-3.1,2.2,2.2,0,0,0-1.8-.8,3.8,3.8,0,0,0-2.4.8A8,8,0,0,0,603.9,322.3Z" fill="#231f20"/><path d="M648.4,331l2.8,1.2a9.4,9.4,0,0,1-4.2,5,14.2,14.2,0,0,1-7.2,1.7,14.5,14.5,0,0,1-9.5-3.1,10.6,10.6,0,0,1-3.9-8.7,11.5,11.5,0,0,1,4.2-9.3c2.8-2.4,6.5-3.6,11-3.6a12.4,12.4,0,0,1,6.6,1.6,4.4,4.4,0,0,1,2.5,4,3.3,3.3,0,0,1-1,2.5,3.3,3.3,0,0,1-2.5,1.1c-2,0-3.3-1.3-3.9-4a2.7,2.7,0,0,0-.7-1.6c-.3-.4-.9-.5-1.7-.5a4.2,4.2,0,0,0-3.8,1.9,11.6,11.6,0,0,0-1.2,5.9q0,5.4,1.5,7.8a5.2,5.2,0,0,0,4.7,2.3A6.5,6.5,0,0,0,648.4,331Z" fill="#231f20"/><path d="M655.6,334a5.1,5.1,0,0,1,5.1-5.1,4.5,4.5,0,0,1,3.5,1.5,4.9,4.9,0,0,1,1.5,3.6,4.5,4.5,0,0,1-1.5,3.5,4.9,4.9,0,0,1-3.5,1.5,4.9,4.9,0,0,1-3.6-1.5A4.5,4.5,0,0,1,655.6,334Z" fill="#231f20"/><path d="M667.2,278v3.5H645.3V278c0-97.6-79.4-177-177.1-177s-177,79.4-177,177v3.5H270.9V278c0-109.3,88.9-198.2,198.2-198.2S667.2,168.7,667.2,278Z" fill="#231f20"/><path d="M191.5,281.5H211s-.3-56.9,27.1-94.9c22.2-30.7,53.8-62.5,109-72,0,0,10.4-10,39.1-22.7C328.4,82.9,192.8,133.9,191.5,281.5Z" fill="#231f20"/><path d="M411.6,115.6a168.7,168.7,0,0,1,40.6-8.4c3.1-.2,110.9,44.4,111.9,174.3h-21S539.4,143.2,411.6,115.6Z" fill="#231f20"/><path d="M124.8,283.5h18.1s-8.5-104.4,106.5-145.6a198,198,0,0,1,34.8-24.8C255.1,113.1,126.1,135.8,124.8,283.5Z" fill="#231f20"/><path d="M311.9,131.3s6,.8,13,2.4c2.2-2.4,11.5-10.6,13.4-12.2A160.4,160.4,0,0,0,311.9,131.3Z" fill="#231f20"/><path d="M357.6,145.6s79.6,31.4,81.7,135.8h19.5s9.1-92.2-83.9-148.4A182.6,182.6,0,0,0,357.6,145.6Z" fill="#231f20"/></g></svg>