<svg id="Layer_1" data-name="Layer 1" xmlns="http://www.w3.org/2000/svg" width="11in" height="4.8in" viewBox="0 0 792 348.8"><title>colour variation</title><path d="M551,94.5h7.1s-3.4-41.2,42.1-57.4a75.8,75.8,0,0,1,13.7-9.8C602.4,27.3,551.5,36.3,551,94.5Z" fill="#afcbe6" stroke="#afcbe6" stroke-miterlimit="10"/><path d="M624.8,35.2l5.1,1,5.3-4.8A63,63,0,0,0,624.8,35.2Z" fill="#afcbe6"/><path d="M642.9,40.9s31.4,12.4,32.2,53.6h7.7s3.6-36.3-33.1-58.5A77.1,77.1,0,0,0,642.9,40.9Z" fill="#afcbe6"/><path d="M577.3,94.5H585s-.1-22.4,10.7-37.4c8.7-12.1,21.2-24.7,43-28.4,0,0,4.1-4,15.5-9C631.3,16.1,577.8,36.3,577.3,94.5Z" fill="#4890c0" stroke="#4890c0" stroke-miterlimit="10"/><path d="M664.2,29a68.8,68.8,0,0,1,16-3.3c1.2-.1,43.8,17.5,44.2,68.8h-8.3S714.6,40,664.2,29Z" fill="#4890c0"/><path d="M765.1,93.1v1.4h-8.7V93.1a69.9,69.9,0,0,0-139.7,0v1.4h-8V93.1a78.2,78.2,0,0,1,156.4,0Z" fill="#003c77" stroke="#003c77" stroke-miterlimit="10"/><path d="M293,94.5h7.2s-3.4-41.2,42-57.4a80.4,80.4,0,0,1,13.7-9.8C344.4,27.3,293.5,36.3,293,94.5Z" fill="#98b9d0" stroke="#98b9d0" stroke-miterlimit="10"/><path d="M366.8,35.2l5.2,1c.9-.9,4.5-4.2,5.3-4.8A62.1,62.1,0,0,0,366.8,35.2Z" fill="#98b9d0" stroke="#98b9d0" stroke-miterlimit="10"/><path d="M384.9,40.9s31.4,12.4,32.2,53.6h7.7s3.6-36.3-33.1-58.5A77.1,77.1,0,0,0,384.9,40.9Z" fill="#98b9d0" stroke="#98b9d0" stroke-miterlimit="10"/><path d="M319.3,94.5H327s-.1-22.4,10.7-37.4c8.8-12.1,21.3-24.7,43-28.4,0,0,4.1-4,15.5-9C373.3,16.1,319.8,36.3,319.3,94.5Z" fill="#669ab9" stroke="#669ab9" stroke-miterlimit="10"/><path d="M406.2,29a70.2,70.2,0,0,1,16-3.3c1.2-.1,43.8,17.5,44.2,68.8h-8.3S456.6,40,406.2,29Z" fill="#669ab9"/><path d="M507.1,93.1v1.4h-8.7V93.1a69.9,69.9,0,0,0-139.7,0v1.4h-8V93.1a78.2,78.2,0,0,1,156.4,0Z" fill="#003c77" stroke="#003c77" stroke-miterlimit="10"/><path d="M26,94.5h7.2s-3.4-41.2,42-57.4a80.4,80.4,0,0,1,13.7-9.8C77.4,27.3,26.5,36.3,26,94.5Z" fill="#7991b4"/><path d="M99.9,35.2l5.1,1c.9-.9,4.5-4.2,5.3-4.8A59,59,0,0,0,99.9,35.2Z" fill="#7991b4"/><path d="M117.9,40.9s31.4,12.4,32.2,53.6h7.7s3.6-36.3-33.1-58.5A77.1,77.1,0,0,0,117.9,40.9Z" fill="#7991b4"/><path d="M52.3,94.5H60s-.1-22.4,10.7-37.4C79.5,45,92,32.4,113.8,28.7c0,0,4-4,15.4-9C106.4,16.1,52.9,36.3,52.3,94.5Z" fill="#325e89"/><path d="M139.2,29a70.2,70.2,0,0,1,16-3.3c1.3-.1,43.8,17.5,44.2,68.8h-8.3S189.7,40,139.2,29Z" fill="#325e89"/><path d="M240.1,93.1v1.4h-8.7V93.1a69.9,69.9,0,0,0-139.7,0v1.4h-8V93.1a78.2,78.2,0,0,1,156.4,0Z" fill="#003462"/><path d="M24.5,208.5h7.2s-3.4-41.2,42-57.4a80.4,80.4,0,0,1,13.7-9.8C75.9,141.3,25,150.2,24.5,208.5Z" fill="#bed7d7"/><path d="M98.4,149.2l5.1,1c.9-.9,4.5-4.2,5.3-4.8A59,59,0,0,0,98.4,149.2Z" fill="#bed7d7"/><path d="M116.4,154.9s31.4,12.4,32.2,53.6h7.7s3.6-36.4-33.1-58.5A77.1,77.1,0,0,0,116.4,154.9Z" fill="#bed7d7"/><path d="M50.8,208.5h7.7s-.1-22.4,10.7-37.4c8.8-12.1,21.3-24.7,43.1-28.4,0,0,4-4,15.4-9C104.9,130.1,51.4,150.3,50.8,208.5Z" fill="#54989c"/><path d="M137.7,143a70.2,70.2,0,0,1,16-3.3c1.3-.1,43.8,17.5,44.2,68.8h-8.3S188.2,153.9,137.7,143Z" fill="#54989c"/><path d="M238.6,207.1v1.4h-8.7v-1.4a69.9,69.9,0,0,0-139.7,0v1.4h-8v-1.4a78.2,78.2,0,1,1,156.4,0Z" fill="#005959"/><path d="M283.5,207h7.2s-3.4-41.2,42-57.4a80.4,80.4,0,0,1,13.7-9.8C334.9,139.8,284,148.7,283.5,207Z" fill="#c9e6d3"/><path d="M357.3,147.7l5.2,1c.9-.9,4.5-4.2,5.3-4.8A62.1,62.1,0,0,0,357.3,147.7Z" fill="#c9e6d3"/><path d="M375.4,153.4s31.4,12.4,32.2,53.6h7.7s3.6-36.4-33.1-58.5A77.1,77.1,0,0,0,375.4,153.4Z" fill="#c9e6d3"/><path d="M309.8,207h7.7s-.1-22.4,10.7-37.4c8.8-12.1,21.3-24.7,43-28.4,0,0,4.1-4,15.5-9C363.8,128.6,310.3,148.8,309.8,207Z" fill="#76ab8d"/><path d="M396.7,141.5a70.2,70.2,0,0,1,16-3.3c1.2-.1,43.8,17.5,44.2,68.8h-8.3S447.1,152.4,396.7,141.5Z" fill="#76ab8d"/><path d="M497.6,205.6V207h-8.7v-1.4a69.9,69.9,0,0,0-139.7,0V207h-8v-1.4a78.2,78.2,0,0,1,156.4,0Z" fill="#168258"/><path d="M543.5,203h7.1s-3.3-41.2,42.1-57.4a75.8,75.8,0,0,1,13.7-9.8C594.9,135.8,544,144.8,543.5,203Z" fill="#aacac7"/><path d="M617.3,143.8s2.4.3,5.1.9l5.3-4.8A58.2,58.2,0,0,0,617.3,143.8Z" fill="#aacac7"/><path d="M635.4,149.4s31.4,12.4,32.2,53.6h7.7s3.6-36.3-33.1-58.5A77.1,77.1,0,0,0,635.4,149.4Z" fill="#aacac7"/><path d="M569.8,203h7.7s-.1-22.4,10.7-37.4c8.7-12.1,21.2-24.7,43-28.4,0,0,4.1-4,15.5-9C623.8,124.7,570.3,144.8,569.8,203Z" fill="#47908b"/><path d="M656.7,137.6a67.9,67.9,0,0,1,16-3.4c1.2,0,43.8,17.6,44.2,68.8h-8.3S707.1,148.5,656.7,137.6Z" fill="#47908b"/><path d="M757.6,201.7V203h-8.7v-1.3a69.9,69.9,0,1,0-139.7,0V203h-8v-1.3a78.2,78.2,0,0,1,156.4,0Z" fill="#00594f"/><path d="M23,327.5h7.2s-3.4-41.2,42-57.4a80.4,80.4,0,0,1,13.7-9.8C74.4,260.3,23.5,269.3,23,327.5Z" fill="#78aba4"/><path d="M96.9,268.3s2.3.3,5.1.9c.9-.9,4.5-4.2,5.3-4.8A54.7,54.7,0,0,0,96.9,268.3Z" fill="#78aba4"/><path d="M114.9,273.9s31.4,12.4,32.2,53.6h7.7s3.6-36.3-33.1-58.5A77.1,77.1,0,0,0,114.9,273.9Z" fill="#78aba4"/><path d="M49.3,327.5H57s-.1-22.4,10.7-37.4c8.8-12.1,21.3-24.7,43.1-28.4,0,0,4-4,15.4-9C103.4,249.1,49.9,269.3,49.3,327.5Z" fill="#298276"/><path d="M136.2,262.1a62.8,62.8,0,0,1,16-3.4c1.3,0,43.8,17.6,44.2,68.8h-8.3S186.7,273,136.2,262.1Z" fill="#298276"/><path d="M237.1,326.2v1.3h-8.7v-1.3a69.9,69.9,0,1,0-139.7,0v1.3h-8v-1.3a78.2,78.2,0,1,1,156.4,0Z" fill="#005949"/><path d="M278,324.5h7.2s-3.4-41.2,42-57.4a80.4,80.4,0,0,1,13.7-9.8C329.4,257.3,278.5,266.3,278,324.5Z" fill="#91bdca"/><path d="M351.8,265.3s2.4.3,5.2.9c.9-.9,4.5-4.2,5.3-4.8A57.5,57.5,0,0,0,351.8,265.3Z" fill="#91bdca"/><path d="M369.9,270.9s31.4,12.4,32.2,53.6h7.7s3.6-36.3-33.1-58.5A77.1,77.1,0,0,0,369.9,270.9Z" fill="#91bdca"/><path d="M304.3,324.5H312s-.1-22.4,10.7-37.4c8.8-12.1,21.3-24.7,43-28.4,0,0,4.1-4,15.5-9C358.3,246.1,304.8,266.3,304.3,324.5Z" fill="#1f869a"/><path d="M391.2,259.1a62.8,62.8,0,0,1,16-3.4c1.2,0,43.8,17.6,44.2,68.8h-8.3S441.6,270,391.2,259.1Z" fill="#1f869a"/><path d="M492.1,323.2v1.3h-8.7v-1.3a69.9,69.9,0,1,0-139.7,0v1.3h-8v-1.3a78.2,78.2,0,1,1,156.4,0Z" fill="#005a70"/><path d="M540.5,324.5h7.1s-3.3-41.2,42.1-57.4a75.8,75.8,0,0,1,13.7-9.8C591.9,257.3,541,266.3,540.5,324.5Z" fill="#c9e6d3"/><path d="M614.3,265.3s2.4.3,5.1.9l5.3-4.8A58.2,58.2,0,0,0,614.3,265.3Z" fill="#c9e6d3"/><path d="M632.4,270.9s31.4,12.4,32.2,53.6h7.7s3.6-36.3-33.1-58.5A77.1,77.1,0,0,0,632.4,270.9Z" fill="#c9e6d3"/><path d="M566.8,324.5h7.7s-.1-22.4,10.7-37.4c8.7-12.1,21.3-24.7,43-28.4,0,0,4.1-4,15.5-9C620.8,246.1,567.3,266.3,566.8,324.5Z" fill="#28b67a"/><path d="M653.7,259.1a62.8,62.8,0,0,1,16-3.4c1.2,0,43.8,17.6,44.2,68.8h-8.3S704.1,270,653.7,259.1Z" fill="#28b67a"/><path d="M754.6,323.2v1.3h-8.7v-1.3a69.9,69.9,0,1,0-139.7,0v1.3h-8v-1.3a78.2,78.2,0,1,1,156.4,0Z" fill="#007857"/></svg>