<svg xmlns="http://www.w3.org/2000/svg"><symbol id="me-logo" viewBox="0 0 1294.3 264"><path fill="#00acd4" d="M157.6 73.7c-.3 11-.3 24.3-.3 33 0 44-32.4 91.5-71 91.5-13.3 0-26.4-4.8-37.4-13-11.5 15.1-18.1 29.1-18.1 41.9 0 8.5 2.5 17.7 14 17.7 2.3 0 2.6 1 2.6 2s-2.1 2.1-4.9 2.1c-14.5 0-24.8-10-24.8-23.3s9.2-30.4 23.6-47.1c-18.5-17.6-30.7-45.7-30.7-78.7 0-48.6 20.7-63.7 42.4-63.7 12 0 24.3 8.7 34.5 21.5a42.7 42.7 0 0 1 23.3-7.4c2.3 0 3.1.8 3.1 2s-4.1 6.2-6.7 6.2c-4.8 0-10.2 1.8-15.3 4.8 9.7 13.8 17.4 31.2 20.4 47.8l6.2-5.6c7.9-7.4 15.6-14.8 22.2-22 9.2-53.9 22.5-71.6 37.9-71.6A10.4 10.4 0 0 1 189 22.3c0 12.8-13 31.2-31.4 51.4zM47.1 171.9c5.7-5.9 11.5-12 17.7-17.9-4.4-7.4-7.2-17.6-7.2-30.7 0-28.1 10-48.3 23.3-60.3-9.2-14.1-20.7-22.5-31-22.5-13.2 0-30.4 14.8-30.4 48.6s10.8 64.4 27.6 82.8zm92.1-78.8l-18.9 18.5-6.7 6.3c.3 3.1.5 5.9.5 8.7 0 24.3-12.5 41.7-26.6 41.7a24.2 24.2 0 0 1-17.6-7.7c-5.9 6.2-11 12.1-15.9 17.9 10.3 8.5 22 13.3 34.6 13.3 29.9 0 43.2-44.5 49.6-91.5a59.3 59.3 0 0 1 1-7.2zM84.5 68.9c-11.5 10.9-21 29.9-21 55.9 0 10.8 2.3 19 5.6 25.1C78.8 141 88.8 132 99 123.1c-1.2-21.3-6.9-39.9-14.5-54.2zm14.8 62.6c-9 8.4-17.4 16.9-25.3 24.8 3.8 3.8 8.2 5.9 12.3 5.9 7.6 0 13-14.6 13-30.7zM158.1 63c12-15.9 19.2-30.2 19.2-40.7 0-3.8-1-5.1-3.3-5.1-5.7 0-15.9 15.1-15.9 39.1zm41.4 15.6l4.9-7.7c3.8-6.4 5.6-11 7.1-12.8s7.4-3.8 9.5-3.8 4.3.7 4.3 2.3c0 4.1-4.6 12.5-11 22.7 10.8-.5 15.4-2.5 16.9-2.5a2.4 2.4 0 0 1 2.1 2c0 1.3-9.2 4.1-21.8 4.6-17.4 26.6-45.5 63.7-45.5 77 0 2.8 1.8 4.3 3.3 4.3 4.6 0 27.7-15.3 44.5-28.6 1.8-1.3 2.3-1.8 3.1-1.8a1.1 1.1 0 0 1 1 1c0 .8-.2 1.3-1.8 2.6-18.6 15.1-41.6 32.2-51.1 32.2-5.6 0-11.5-5.9-11.5-11 0-12.5 27.6-52.9 42.9-75.9-14-.8-18.9-3.6-18.9-5.1s3.1-6.2 4.6-6.2 5.7 4.9 17.4 6.7z"/><path fill="#00acd4" d="M228.4 134.3a13.4 13.4 0 0 0-.3 3.6c0 6.6 4.4 11.2 13.1 11.2s14.6-.2 30.9-13c1.8-1.3 2.3-1.8 3.1-1.8a1.1 1.1 0 0 1 1 1c0 .8-.2 1.3-1.8 2.6-18.6 15.1-30.1 18.7-40.1 18.7-13.1 0-21-7.5-21-18.7 0-15.4 17.2-36.8 31.5-36.8 4.3 0 8.9 4.6 8.9 8.4 0 5.9-15.8 18.9-25.3 24.8zm19.4-25c0-1.1-.7-1.8-2-1.8-5.9 0-16.6 16.6-16.6 22.2 1.8-.8 18.6-15.1 18.6-20.4z"/><path fill="#00acd4" d="M299.5 149.6c-3.3 0-7.9 5.7-13.8 5.7-3.9 0-5.4-1.8-5.4-4.1 0-4.1 4.9-6.2 9-6.2a33.7 33.7 0 0 1 6.3.8c9.5-6.4 25.6-25 25.6-35.8 0-2.5-.8-4.1-2-4.1-10.5 0-34 23-38.4 34.5-8.4 22.8-34.8 91.3-62.1 91.3-3.8 0-7.9-3.3-7.9-7.1 0-18.4 35.8-59.6 55.7-78.3 16.9-33.5 33.7-65.2 43-65.2 1.7 0 2.8 2.3 2.8 3.6s-2.3 2.6-4.1 4.1c-5.6 4.6-15.9 21.5-22.3 36.3 7.4-7.7 27.1-25.8 38.1-25.8 5.9 0 11 6.4 11 10 0 11.5-14.3 28.8-26.3 37.3h1c5.4 0 22.3-.8 34.8-10.5 1.8-1.3 2.3-1.8 3-1.8a1.2 1.2 0 0 1 1.1 1.3c0 .8-1.1 1.8-2.6 2.8-13.8 10.5-29.6 11.5-40.6 11.5zm-37.6 5.4c-19.2 20-46.3 55.2-46.3 67 0 3.1 2.3 3.6 3.3 3.6 8 0 25.1-35 43-70.6z"/><path fill="#00acd4" d="M411.5 104.1c4.3 0 7.9 3.9 7.9 9 0 8.2-16.6 21.2-16.6 35.3 0 1.8.7 2.5 2 2.5 4.1 0 9.7-1.8 26.6-15.1 1.8-1.2 2.3-1.7 3.1-1.7a1.1 1.1 0 0 1 1 1c0 .7-.3 1.3-1.8 2.5-18.7 15.1-25.6 18.4-33.5 18.4s-11.5-4.3-11.5-9.9c0-15.9 18.2-27.6 18.2-35.1a1.2 1.2 0 0 0-1.3-1.2c-7.7 0-35.3 25.5-51.4 44.7-5.6 6.9-6.4 11-9.5 11s-6.4-5.6-6.4-8.2c0-22.2 53-126.3 84.7-126.3a8.1 8.1 0 0 1 7.9 7.7c0 12.8-39.1 58.3-65.5 82.3-6.6 11.5-11.2 24-11.7 26.6 16.9-17.9 42.4-43.5 57.8-43.5zm14.8-66.2a2 2 0 0 0-2.1-2c-10.4 0-52.6 72.1-52.6 73.4 7.1-6.7 54.7-58.3 54.7-71.4z"/><path fill="#00acd4" d="M514.8 136.1c1.7-1.3 2.3-1.8 3-1.8a1.1 1.1 0 0 1 1 1c0 .8-.2 1.3-1.7 2.6-18.7 15.1-26.4 17.1-33.5 17.1-14.4 0-12.6-14.8-15.9-14.8s-20.2 22.5-34.8 22.5c-4.6 0-8.9-3.6-8.9-6.9 0-20.7 33.5-50.4 52.7-50.4a8.3 8.3 0 0 1 8.1 8.5c0 3-2.5 9.7-4.3 9.7s-3.3-1.6-3.3-2.6 3.3-4.8 3.3-7.9c0-1.5-1-2.8-3.6-2.8-10.5 0-39.6 28.1-39.6 44.7 0 1 .5 1.8 1.3 1.8 5.1 0 16.6-11 23.7-18.7s9.5-11.5 13.1-11.5c10.2 0 7.9 22.3 16.1 22.3 4.1 0 6.9 0 23.3-12.8z"/><path fill="#00acd4" d="M576.1 108.2c4.4 0 8.4 3.9 8.4 6.4 0 9.5-16.1 23.8-16.1 40.7 0 2.8 1.3 3.6 2.3 3.6 5.9 0 19.7-9.5 36.6-22.8 1.8-1.3 2.3-1.8 3.1-1.8a1.1 1.1 0 0 1 1 1c0 .8-.3 1.3-1.8 2.6-18.7 15.1-34.8 26.1-44.7 26.1-3.9 0-12.1-2.1-12.1-10.3 0-19.1 19.7-32.7 19.7-39.6a.5.5 0 0 0-.5-.5c-7.7 0-49.6 41.9-58.8 41.9-1.8 0-4.6-4.3-4.6-6.1 0-4.1 13.1-28.6 26.1-42.7 5.4-5.9 13-9.7 16.9-9.7a1.7 1.7 0 0 1 1.5 1.8c0 1-2.3 2.8-7.4 10.5s-13.8 25.5-15.6 30.9c4.1-3.1 36-32 46-32z"/><path fill="#00acd4" d="M650.3 136.1c1.7-1.3 2.3-1.8 3-1.8a1.1 1.1 0 0 1 1 1c0 .8-.2 1.3-1.7 2.6-18.7 15.1-31 22-38.9 22-5.6 0-11-3.3-11-10.3 0-14.8 25.3-44.7 32-44.7 4.3 0 7.1 1.8 7.1 3.1s-.2 1.8-2.5 4.3C627 126.6 615 142.7 615 151.4c0 2.6 1.2 3.4 2.3 3.4 7.6 0 16.1-5.4 33-18.7zm6.3-57c0 5.4-6.6 11.5-12 11.5-3.3 0-5.3-1.8-5.3-4.6 0-5.9 8.9-11.8 11.7-11.8s5.6 2.3 5.6 4.9z"/><path fill="#00acd4" d="M664.8 134.3a20 20 0 0 0-.2 3.6c0 6.6 4.3 11.2 13 11.2s14.6-.2 30.9-13c1.8-1.3 2.3-1.8 3.1-1.8a1.1 1.1 0 0 1 1 1c0 .8-.2 1.3-1.8 2.6-18.6 15.1-30.1 18.7-40.1 18.7-13 0-21-7.5-21-18.7 0-15.4 17.2-36.8 31.5-36.8 4.3 0 8.9 4.6 8.9 8.4 0 5.9-15.8 18.9-25.3 24.8zm19.5-25c0-1.1-.8-1.8-2.1-1.8-5.9 0-16.6 16.6-16.6 22.2 1.8-.8 18.7-15.1 18.7-20.4zm280.4-86.7c9.7 0 19.2 7.4 19.2 18.1 0 38.1-43.2 95.1-81 95.1-13.6 0-17.4-6.9-17.4-10.4 0-1.3 4.1-5.2 6.6-5.2s1.8 1.3 1.8 2.3c0 6.4 2.8 9 9.2 9 30.4 0 62.9-58.6 62.9-90 0-7.2-3.3-9.5-7.7-9.5-18.4 0-64.9 50.4-73.6 75-20.5 58.5-35.3 103-75.2 103-26.3 0-55.7-30.2-55.7-79.5 0-33 19.4-56 39.1-56 14.3 0 25.6 9.2 31.7 24.3 7.4-4.4 14.6-6.9 20.2-6.9s4.9 1 4.9 1.8-3.6 4-5.6 4c-6.2 0-12.1 2.3-17.7 6.2a81.4 81.4 0 0 1 3.3 23.8c0 29.9-10.2 45.2-19.9 45.2-8.2 0-17.1-7.9-17.1-20.7 0-19.9 10.4-36 22.7-46.8-4.8-15.3-14-24.3-24.3-24.3-14.3 0-25.5 18.7-25.5 42.2 0 49.9 22.7 80.6 49.1 80.6 21.2 0 39.3-46.3 52.9-94.1 9.9-35.3 20.7-70.1 37.3-84.2a51.1 51.1 0 0 1-12.3 1.6c-13.5 0-22-2.8-35.8-2.8s-23.2 6.1-23.2 18.9c0 14.3 7.4 30.9 24.8 30.9 4.3 0 6.6-2 7.6-2s2.3 1.3 2.3 1.8-5.3 4.1-12.2 4.1c-17.9 0-36.3-13.1-36.3-33.3 0-15.6 21.2-30.1 45.5-30.1 16.3 0 28.1 5.8 44 5.8 2.8 0 11.7-9.9 18.1-9.9a4 4 0 0 1 4.1 4.1c0 7.4-13.8 9.7-19.7 11.2-4.1 4.1-11 22.5-12.5 28.4-2.6 9.7-4.6 19.4-7.2 29.1 14.1-21.2 51.2-60.8 72.6-60.8zm-147.5 89.5c-9.7 10.7-16.6 26.3-16.6 42.2 0 9.9 4.1 14.3 7.1 14.3 4.6 0 11.3-16.4 11.3-37.6a107.4 107.4 0 0 0-1.8-18.9zM914.6 20s0-.2.3-.2zm83.6 116.1c1.8-1.3 2.3-1.8 3.1-1.8a1.1 1.1 0 0 1 1 1c0 .8-.2 1.3-1.8 2.6-18.6 15.1-30.9 22-38.8 22-5.7 0-11-3.3-11-10.3 0-14.8 25.3-44.7 31.9-44.7 4.4 0 7.2 1.8 7.2 3.1s-.3 1.8-2.6 4.3c-12.2 14.3-24.3 30.4-24.3 39.1 0 2.6 1.3 3.4 2.3 3.4 7.7 0 16.1-5.4 33-18.7zm6.4-57c0 5.4-6.6 11.5-12 11.5-3.3 0-5.4-1.8-5.4-4.6 0-5.9 9-11.8 11.8-11.8s5.6 2.3 5.6 4.9z"/><path fill="#00acd4" d="M1054.5 136.1c1.8-1.3 2.3-1.8 3-1.8a1.2 1.2 0 0 1 1.1 1c0 .8-.3 1.3-1.8 2.6-16.9 13-42.5 23.3-50.4 23.3s-13-4.4-13-11.6c0-20.9 29.4-45.5 45-45.5 4 0 7.4 3.4 7.4 6.2 0 5.6-4.9 11.2-6.2 11.2s-3-2-3-3 5.1-4.6 5.1-8.5a2.2 2.2 0 0 0-2.3-2c-10.2 0-31.7 27.3-31.7 42.7 0 3.6 2 4.8 4.6 4.8s25.3-6.1 42.2-19.4z"/><path fill="#00acd4" d="M1110.7 136.1c1.8-1.3 2.3-1.8 3.1-1.8a1.1 1.1 0 0 1 1 1c0 .8-.3 1.3-1.8 2.6-16.9 13-42.4 23.3-50.4 23.3s-13-4.4-13-11.6c0-20.9 29.4-45.5 45-45.5 4.1 0 7.4 3.4 7.4 6.2 0 5.6-4.8 11.2-6.1 11.2s-3.1-2-3.1-3 5.1-4.6 5.1-8.5a2.2 2.2 0 0 0-2.3-2c-10.2 0-31.7 27.3-31.7 42.7 0 3.6 2.1 4.8 4.6 4.8s25.3-6.1 42.2-19.4z"/><path fill="#00acd4" d="M1180.8 134.3a1.1 1.1 0 0 1 1 1c0 .8-.3 1.3-1.8 2.6-7.2 6.4-23.5 15.1-34 15.1h-1.8c-6.9 7.4-14.8 12.8-21.7 12.8s-16.7-5.7-16.7-14.4c0-18.6 25.4-47 46.3-47 6.2 0 11 4.3 11 9.7 0 9.2-5.9 22-13.5 32.5a4.3 4.3 0 0 0 1.8.5c10.7 0 18.4-4.6 26.3-11 1.8-1.3 2.3-1.8 3.1-1.8zm-61.1 18.4c0 4.1 2 6.7 4.3 6.7s8.9-3.1 14.1-8.2c-1.3-.8-2.3-1.8-2.3-2.8s4.8-6.9 7.4-6.9a3.3 3.3 0 0 1 2.3 1c5.9-7.9 10.2-17.9 10.2-27.9 0-5.1-2-6.1-3.3-6.1-11 0-32.7 28.6-32.7 44.2z"/><path fill="#00acd4" d="M1232.7 136.1c1.7-1.3 2.3-1.8 3-1.8a1.1 1.1 0 0 1 1 1c0 .8-.2 1.3-1.7 2.6-13.6 11.2-35.6 26.1-48.1 26.1-6.1 0-13-4.4-13-12.8 0-28.7 64.1-117.6 90.7-117.6 3.9 0 7.2 2.5 7.2 6.4 0 28.1-62.9 80.5-76 90-3.8 4.6-6.9 16.1-6.9 23.2 0 4.4 1.6 5.1 3.1 5.1 6.7 0 23.8-8.9 40.7-22.2zm-33.8-14.3c23.5-19.7 66.7-62.9 66.7-80a1.8 1.8 0 0 0-2-2.1c-8.7 0-53.7 61.6-64.7 82.1z"/><path fill="#00acd4" d="M1275.6 136.1c1.8-1.3 2.3-1.8 3.1-1.8a1.1 1.1 0 0 1 1 1c0 .8-.3 1.3-1.8 2.6-18.7 15.1-30.9 22-38.9 22-5.6 0-10.9-3.3-10.9-10.3 0-14.8 25.3-44.7 31.9-44.7 4.4 0 7.2 1.8 7.2 3.1s-.3 1.8-2.6 4.3c-12.3 14.3-24.3 30.4-24.3 39.1 0 2.6 1.3 3.4 2.3 3.4 7.7 0 16.1-5.4 33-18.7zm6.4-57c0 5.4-6.6 11.5-12 11.5-3.3 0-5.4-1.8-5.4-4.6 0-5.9 9-11.8 11.8-11.8s5.6 2.3 5.6 4.9z"/></symbol></svg>
