<?xml version="1.0" encoding="utf-8"?>
<!-- Generator: Adobe Illustrator 22.0.1, SVG Export Plug-In . SVG Version: 6.00 Build 0)  -->
<svg version="1.1" id="Layer_1" xmlns="http://www.w3.org/2000/svg" xmlns:xlink="http://www.w3.org/1999/xlink" x="0px" y="0px"
	 viewBox="0 0 336 76.8" style="enable-background:new 0 0 336 76.8;" xml:space="preserve">
<style type="text/css">
	.st0{fill:#FFFFFF;}
</style>
<path class="st0" d="M44.1,23.8v8.4c0,11.3-8.4,23.4-18.2,23.4c-3.5,0-6.8-1.2-9.6-3.3c-2.9,3.9-4.7,7.4-4.7,10.8
	c0,3.3,0.7,4.5,3.6,4.5c0.7,0,0.7,0.3,0.7,0.5s-0.5,0.5-1.2,0.5c-3.4,0.1-6.2-2.5-6.4-5.8c0,0,0-0.1,0-0.1c0-3.7,2.4-7.8,6-12.1
	c-5.2-5.4-8-12.6-7.8-20.1c0-12.5,5.3-16.4,10.9-16.4c3.1,0,6.2,2.3,8.8,5.6c1.8-1.2,3.8-1.9,6-2c0.7,0,0.8,0.3,0.8,0.5
	c-0.3,0.8-0.9,1.4-1.7,1.6c-1.4,0-2.7,0.5-3.9,1.2c2.5,3.7,4.3,7.9,5.2,12.2l1.6-1.3l5.7-5.7c2.3-13.8,5.7-18.3,9.7-18.3
	c1.5,0,2.7,1.2,2.7,2.7c0,0,0,0.1,0,0.1C52.3,13.9,48.9,18.7,44.1,23.8z M16,48.8c1.3-1.5,2.9-3.1,4.5-4.5c-1.4-2.4-2-5.1-1.9-7.8
	c0-7.2,2.5-12.4,6-15.4c-2.4-3.6-5.3-5.7-8-5.7s-7.8,3.7-7.8,12.4S11.6,44.2,16,48.8z M39.5,28.8l-4.9,4.7L33,35.1
	c0,0.8,0.1,1.5,0.1,2.1c0,6.2-3.3,10.8-6.9,10.8c-1.7,0-3.3-0.7-4.5-2l-4,4.5c2.4,2.1,5.5,3.3,8.8,3.5c7.7,0,11-11.4,12.8-23.4
	C39.2,30,39.3,29.4,39.5,28.8z M25.4,22.5c-2.9,2.8-5.3,7.7-5.3,14.4c0,2.2,0.5,4.4,1.5,6.4l7.6-6.9C28.9,31.5,27.6,26.8,25.4,22.5z
	 M29.3,38.6l-6.5,6.2c0.8,0.9,2,1.5,3.2,1.6C27.9,46.4,29.3,42.7,29.3,38.6z M44.3,21c3.1-4.1,4.9-7.7,4.9-10.4s-0.3-1.3-0.8-1.3
	s-4.1,3.9-4.1,10L44.3,21z M54.9,25l1.2-2c1.1-1.6,1.5-2.8,1.9-3.2c0.6-0.7,1.5-1.1,2.4-1.1c0.5,0,1.2,0.3,1.2,0.7
	c0,0.4-1.2,3.2-2.9,5.7c1.5-0.1,2.9-0.3,4.4-0.7c0.1,0,0.5,0.3,0.5,0.5s-2.4,1.1-5.6,1.2C53.6,33,46.3,42.6,46.3,45.9
	c-0.1,0.6,0.3,1.1,0.9,1.2c0,0,0,0,0,0c1.2,0,7-4,11.3-7.3l0.8-0.5c0.1,0,0.3,0.1,0.3,0.3l0,0c0,0.3,0,0.4-0.4,0.7
	c-4.8,3.9-10.6,8.2-13.2,8.2c-1.5-0.1-2.7-1.3-2.9-2.8c0-3.2,7-13.6,11-19.4c-3.6-0.3-4.8-0.9-4.8-1.3c0-0.4,0.7-1.6,1.1-1.6
	C51.8,24.2,53.3,24.8,54.9,25L54.9,25z"/>
<path class="st0" d="M62.2,39.3v0.9c0,1.7,1.1,2.9,3.3,2.9c2.3,0,3.7-0.1,8-3.3l0.7-0.5c0.1,0,0.3,0.1,0.3,0.3l0,0
	c0,0.3,0,0.4-0.4,0.7c-4.8,3.9-7.7,4.8-10.2,4.8c-2.5,0-5.5-1.9-5.5-4.8s4.4-9.4,8.1-9.4c1.2,0.1,2.1,1,2.3,2.1
	C68.7,34.5,64.8,37.8,62.2,39.3z M67.3,32.9c0-0.3-0.2-0.5-0.5-0.5l0,0c-1.5,0-4.3,4.3-4.3,5.7S67.3,34.2,67.3,32.9z"/>
<path class="st0" d="M80.4,43.3c-0.8,0-2,1.3-3.5,1.3s-1.5-0.4-1.5-0.9s1.3-1.6,2.4-1.6h1.6c2.4-1.6,6.5-6.4,6.5-9.2
	c0-0.7-0.1-0.9-0.5-0.9c-2.7,0-8.6,5.9-9.8,8.8c-2.1,6-8.9,23.5-15.8,23.5c-1.1,0-2-0.8-2.1-1.9c0-4.8,9.2-15.3,14.4-20.1
	c4.3-8.5,8.6-16.6,10.9-16.6c0.5,0.1,0.8,0.5,0.8,0.9c0,0.3-0.7,0.7-1.1,1.1c-0.4,0.4-4.1,5.5-5.7,9.2c1.9-1.9,6.9-6.5,9.7-6.5
	c1.4,0.1,2.6,1.1,2.9,2.5c0,2.9-3.7,7.3-6.8,9.6h0.3c3.2,0,6.3-0.9,8.9-2.7c0.4-0.4,0.5-0.5,0.8-0.5s0.3,0.1,0.3,0.4l-0.7,0.7
	c-3,2.1-6.7,3.1-10.4,2.9H80.4z M70.9,44.6C66,49.6,59,58.7,59,61.7c0,0.8,0.5,0.9,0.8,0.9C60.1,62.7,66.2,53.6,70.9,44.6z"/>
<path class="st0" d="M109.2,31.6c1.2,0.1,2.1,1.1,2,2.3c0,0,0,0,0,0c0,2.1-4.3,5.5-4.3,9c0,0.5,0.1,0.7,0.5,0.7s2.5-0.4,6.8-3.9
	c0.4-0.3,0.5-0.4,0.8-0.4c0.1,0,0.3,0.1,0.3,0.3c0,0.1-0.1,0.3-0.5,0.7c-4.7,3.9-6.5,4.7-8.5,4.7c-1.5,0.1-2.8-0.9-2.9-2.4
	c0,0,0-0.1,0-0.1c0-4.1,4.7-7,4.7-9c0-2-0.1-0.3-0.4-0.3c-0.3,0-9,6.5-13.2,11.4c-1.3,1.7-1.6,2.8-2.4,2.8c-0.8,0-1.6-1.5-1.6-2.1
	c0-5.6,13.6-32.3,21.7-32.3c1.1,0,2,0.9,2,2c0,3.3-10,14.9-16.8,21.1c-1.3,2.1-2.3,4.4-3.1,6.8C98.7,38.1,105.2,31.6,109.2,31.6z
	 M112.9,14.7c0-0.3-0.2-0.5-0.5-0.5l0,0c-2.7,0-13.4,18.3-13.4,18.7C100.8,31.2,112.9,18,112.9,14.7z"/>
<path class="st0" d="M135.5,39.8l0.8-0.5c0.1,0,0.3,0.1,0.3,0.3c0,0.3,0,0.4-0.4,0.7c-4.8,3.9-6.8,4.4-8.6,4.4c-1.9,0-3.2-3.9-4-3.9
	c-0.8,0-5.2,5.9-8.9,5.9c-1.1,0-2.1-0.8-2.3-1.9c0-5.2,8.5-12.8,13.4-12.8c1.2,0,2.1,1,2.1,2.1c0,0.8-0.7,2.4-1.2,2.4
	c-0.5,0-0.8-0.3-0.8-0.5s0.8-1.3,0.8-2.1c0-0.8-0.1-0.7-0.8-0.7c-2.8,0-10.2,7.2-10.2,11.4c0,0.2,0.2,0.4,0.4,0.4l0,0
	c1.3,0,4.3-2.8,6.1-4.8c1.9-2,2.4-2.9,3.3-2.9c0.9,0,2,5.7,4.1,5.7S131.4,43,135.5,39.8z"/>
<path class="st0" d="M151.2,32.6c1.2,0,2.3,0.9,2.3,1.6s-4.1,6.1-4.1,10.4c0,0.8,0.3,0.9,0.5,0.9c0.3,0,5.1-2.4,9.4-5.7l0.7-0.5
	c0.1,0,0.3,0.1,0.3,0.3c0,0.3,0,0.4-0.4,0.7c-4.8,3.9-8.9,6.6-11.4,6.6s-3.1-0.5-3.1-2.5c0-4.9,5.1-8.4,5.1-10.2h-0.1
	c-2,0-12.8,10.8-15.2,10.8c-0.4,0-1.1-1.1-1.1-1.6c0-0.5,3.3-7.3,6.6-10.9c1.1-1.3,2.6-2.2,4.3-2.5c0.3,0,0.4,0.3,0.4,0.5
	c-0.6,0.9-1.2,1.8-1.9,2.7c-1.6,2.5-2.9,5.1-4,7.8C140.5,40.1,148.7,32.6,151.2,32.6L151.2,32.6z"/>
<path class="st0" d="M170.2,39.8l0.8-0.5c0.1,0,0.3,0.1,0.3,0.3c0,0.3,0,0.4-0.4,0.7c-4.8,3.9-8,5.6-10,5.6
	c-1.4,0.1-2.6-0.9-2.8-2.2c0-0.1,0-0.2,0-0.3c0-3.9,6.4-11.4,8.1-11.4s1.9,0.4,1.9,0.7s-0.1,0.5-0.7,1.2c-3.2,3.6-6.2,7.7-6.2,10
	c0,2.3,0.4,0.8,0.7,0.8S165.9,43.1,170.2,39.8z M171.8,25.2c-0.2,1.6-1.5,2.8-3.1,2.9c-0.8,0-1.3-0.4-1.3-1.2s2.3-2.9,3.1-2.9
	c0.7-0.1,1.2,0.4,1.3,1.1C171.8,25.1,171.8,25.1,171.8,25.2z"/>
<path class="st0" d="M173.9,39.3v0.9c0,1.7,1.1,2.9,3.3,2.9c2.3,0,3.7-0.1,7.8-3.3l0.8-0.5c0.1,0,0.3,0.1,0.3,0.3
	c0,0.3,0,0.4-0.4,0.7C181,44.1,178,45,175.5,45s-5.5-1.9-5.5-4.8s4.4-9.4,8.1-9.4c1.2,0.1,2.1,1,2.3,2.1
	C180.4,34.5,176.3,37.8,173.9,39.3z M179,32.9c0-0.3-0.2-0.5-0.5-0.5c-1.6,0-4.3,4.3-4.3,5.7S179,34.2,179,32.9L179,32.9z
	 M250.6,10.7c2.6-0.1,4.8,2,4.9,4.7c0,0,0,0,0,0c0,9.7-11,24.3-20.7,24.3c-3.5,0-4.4-1.7-4.4-2.7c0-0.9,1.1-1.3,1.7-1.3
	c0.7,0,0.4,0.4,0.4,0.5s0.7,2.4,2.4,2.4c7.7,0,16.1-15,16.1-23c0-1.9-0.9-2.5-2-2.5c-4.7,0-16.6,12.9-18.9,19.1
	c-5.2,15-9,26.5-19.1,26.5c-6.8,0-14.4-7.7-14.4-20.3c0-8.5,5.1-14.4,10.1-14.4c5.1,0,6.5,2.4,8.1,6.2c1.5-1.1,3.3-1.7,5.2-1.9
	c0.9,0,1.2,0.3,1.2,0.5s-0.9,1.1-1.5,1.1c-1.6,0-3.2,0.6-4.5,1.6c0.6,1.9,0.9,4,0.9,6c0,7.7-2.7,11.6-5.2,11.6
	c-2.6-0.2-4.6-2.5-4.4-5.2c0,0,0,0,0,0c0.1-4.7,2.2-9.1,5.9-12c-1.2-4-3.6-6.2-6.2-6.2s-6.5,4.8-6.5,10.8c0,12.8,5.9,20.6,12.5,20.6
	c6.6,0,10.1-11.8,13.6-24.1c2.5-9,5.3-18,9.6-21.5c-1,0.3-2,0.4-3.1,0.4c-3.6,0-5.7-0.7-9.2-0.7c-3.5,0-6,1.5-6,4.8s1.9,8,6.4,8
	c0.6-0.1,1.3-0.2,1.9-0.5c0.3,0,0.7,0.3,0.7,0.4c-0.9,0.8-2,1.1-3.2,1.1c-4.5,0-9.3-3.3-9.3-8.5s5.5-7.7,11.7-7.7
	c4.1,0,7.2,1.5,11.3,1.5c0.7,0,2.9-2.5,4.5-2.5c0.5-0.1,1,0.3,1.1,0.8c0,0.1,0,0.2,0,0.3c0,1.9-3.5,2.5-5.1,2.9s-2.8,5.7-3.2,7.2
	c-0.4,1.5-1.2,5.1-1.7,7.4C235.7,20.8,245.2,10.7,250.6,10.7z M212.9,33.5c-2.6,3-4.1,6.8-4.3,10.8c0,2.7,1.1,3.7,1.9,3.7
	c0.8,0,2.9-4.1,2.9-9.6C213.4,36.8,213.2,35.2,212.9,33.5z M259.3,39.8c0.4-0.4,0.5-0.5,0.8-0.5c0.1,0,0.3,0.1,0.3,0.3
	c0,0.3-0.1,0.4-0.5,0.7c-4.8,3.9-7.8,5.6-10,5.6c-1.4,0.1-2.6-0.9-2.8-2.2c0-0.1,0-0.2,0-0.3c0-3.9,6.5-11.4,8.2-11.4
	c1.7,0,1.7,0.4,1.7,0.7s0,0.5-0.5,1.2c-3.2,3.6-6.2,7.7-6.2,10c0,2.3,0.3,0.8,0.5,0.8S254.9,43.1,259.3,39.8z M260.9,25.2
	c-0.3,1.5-1.5,2.7-3.1,2.9c-0.9,0-1.3-0.4-1.3-1.2s2.3-2.9,2.9-2.9C260.1,23.9,260.8,24.4,260.9,25.2
	C260.9,25.2,260.9,25.2,260.9,25.2z"/>
<path class="st0" d="M273.6,39.8c0.4-0.4,0.5-0.5,0.8-0.5c0.1,0,0.3,0.1,0.3,0.3c0,0.3-0.1,0.4-0.5,0.7c-4.3,3.3-10.8,6-12.9,6
	c-1.7,0.1-3.2-1.2-3.3-2.9c0-5.5,7.6-11.7,11.6-11.7c1-0.1,1.8,0.6,1.9,1.6c0,0,0,0,0,0c0,1.2-0.6,2.3-1.6,2.9
	c-0.4-0.1-0.7-0.4-0.8-0.8c0-0.4,1.3-1.2,1.3-2.3c0-0.3-0.2-0.5-0.5-0.5c-2.7,0-8.1,7-8.1,11c-0.1,0.6,0.3,1.1,0.9,1.2
	c0.1,0,0.2,0,0.3,0C266.8,43.9,270.5,42.2,273.6,39.8z"/>
<path class="st0" d="M288,39.8l0.8-0.5c0.1,0,0.3,0.1,0.3,0.3c0,0.3,0,0.4-0.4,0.7c-4.4,3.3-10.9,6-12.9,6c-1.7,0.1-3.2-1.1-3.3-2.8
	c0,0,0-0.1,0-0.1c0-5.5,7.4-11.7,11.4-11.7c1-0.1,1.8,0.6,1.9,1.6c0,0,0,0,0,0c0,1.1-0.6,2.2-1.5,2.9c-0.4-0.1-0.7-0.4-0.8-0.8
	c0-0.4,1.3-1.2,1.3-2.3c-0.1-0.3-0.3-0.5-0.7-0.5c-2.7,0-8.1,7-8.1,11c-0.1,0.6,0.3,1.1,0.9,1.2c0.1,0,0.2,0,0.3,0
	C281.1,43.9,284.8,42.2,288,39.8L288,39.8z"/>
<path class="st0" d="M306,39.3c0.1,0,0.3,0.1,0.3,0.3c0,0.3-0.1,0.4-0.5,0.7c-0.4,0.3-6,3.9-8.6,3.9h-0.4c-1.9,1.9-3.9,3.3-5.6,3.3
	c-2.2,0.1-4-1.6-4.3-3.7c0-4.8,6.5-12,11.8-12c1.4-0.1,2.6,0.9,2.8,2.2c0,0,0,0.1,0,0.2c-0.3,3.1-1.5,6-3.5,8.4h0.4
	c2.5-0.1,4.9-1.1,6.8-2.8C305.6,39.4,305.7,39.3,306,39.3L306,39.3z M290.3,44.1c0,0.9,0.5,1.6,1.2,1.6c1.4-0.3,2.6-1,3.6-2
	c-0.4-0.3-0.7-0.5-0.7-0.8c0.4-0.8,1.1-1.5,2-1.7l0.5,0.3c1.6-2.1,2.5-4.6,2.7-7.2c0-1.3-0.5-1.6-0.9-1.6
	C295.8,32.6,290.3,40.1,290.3,44.1L290.3,44.1z"/>
<path class="st0" d="M319.2,39.8c0.4-0.4,0.5-0.5,0.8-0.5c0.1,0,0.3,0.1,0.3,0.3c0,0.3-0.1,0.4-0.5,0.7c-3.5,2.9-9,6.6-12.2,6.6
	c-1.8,0.1-3.2-1.3-3.3-3.1c0,0,0-0.1,0-0.1c0-7.4,16.4-30.2,23.1-30.2c1-0.1,1.8,0.6,1.9,1.6c0,0,0,0.1,0,0.1
	c0,7.2-16.1,20.6-19.4,23c-1.1,1.8-1.7,3.9-1.7,6c0,1.1,0.4,1.2,0.8,1.2S314.9,43.1,319.2,39.8z M310.6,36.1c6-5.1,17-16.1,17-20.5
	c0-0.3-0.2-0.5-0.5-0.5C325,15.1,313.4,30.9,310.6,36.1L310.6,36.1z"/>
<path class="st0" d="M330.1,39.8l0.8-0.5c0.1,0,0.3,0.1,0.3,0.3c0,0.3,0,0.4-0.4,0.7c-4.8,3.9-8,5.6-10,5.6
	c-1.4,0.1-2.6-0.9-2.8-2.2c0-0.1,0-0.2,0-0.3c0-3.9,6.5-11.4,8.1-11.4s1.9,0.4,1.9,0.7s0,0.5-0.7,1.2c-3.1,3.6-6.1,7.7-6.1,10
	c0,2.3,0.3,0.8,0.5,0.8C322,44.4,325.9,43.1,330.1,39.8L330.1,39.8z M331.9,25.2c-0.3,1.5-1.5,2.7-3.1,2.9c-0.9,0-1.5-0.4-1.5-1.2
	s2.4-2.9,3.1-2.9C331.1,23.9,331.8,24.4,331.9,25.2C331.9,25.2,331.9,25.2,331.9,25.2z"/>
</svg>
