<?xml version="1.0" encoding="utf-8"?>
<!-- Generator: Adobe Illustrator 22.0.1, SVG Export Plug-In . SVG Version: 6.00 Build 0)  -->
<svg version="1.1" id="Layer_1" xmlns="http://www.w3.org/2000/svg" xmlns:xlink="http://www.w3.org/1999/xlink" x="0px" y="0px"
	 viewBox="0 0 336 76.8" style="enable-background:new 0 0 336 76.8;" xml:space="preserve">
<style type="text/css">
	.st0{fill:#081F56;}
</style>
<g>
	<path class="st0" d="M36.9,20.1c-0.6,2-2.3,3.9-3.8,5.9c-0.8,0.7-2.1,0.6-1.7-0.3c1-1.8,3.6-7.4,0.7-8.1l-0.6-0.1
		c-2.4,0.1-7,1.8-9,5.9c-2.1,4.5,5.1,9.2,7.7,12.8c2.5,3.8,4.1,8.7-0.6,13.4c-5,4.9-10.3,6.2-17,6.8c-6.4,0.6-11.4-4.8-9.1-7.9
		C6.8,44,14.7,42.2,18.7,42c0.6,0.2,0.8,1.4-0.1,1.4c-2.6,0.7-8.7,3.5-11.1,5.9c-2.3,2.3-2.6,4.4,1.7,4.6c4.1,0.1,11-0.8,17.1-6.7
		c3.4-3.4,4.1-7.9,0.2-12.3c-2.9-3.1-8.8-7.3-8.7-10.5c-0.2-3.3,3.3-6.8,7.5-8c2.1-0.6,4.4-0.6,6.4-0.1h0.1
		C33.4,16.2,37.6,18,36.9,20.1z"/>
	<path class="st0" d="M45.6,30.3c2.5,0,4.8,0.1,5.1,0.4c0.6,0.8,0.1,1.6-0.8,1.6c-0.5-0.2-2.6-0.3-5.1-0.3c-0.4,0.7-0.7,1.5-1,2.1
		c-3,6.9-7,16.7-3.1,15.4c2.1-0.7,9.4-9.9,11-12.1c0.5-0.4,1.4-0.1,1.1,0.8c-1,2.1-7.7,11.6-10.7,13c-2,1-6.3,0-6.8-3.1
		c-0.4-2.8,1.1-7.6,5.5-16.1c-1.8,0-3.2,0.1-3.6,0.1c-1.1,0-1-1.4,0.2-1.8c0.4,0.1,2.1,0.1,4.2,0.1c3.3-6.4,4.8-8.6,5.2-9.7
		c1.1-0.8,3.2,0.5,2.9,1.7C49.6,23.6,47.6,26.8,45.6,30.3z"/>
	<path class="st0" d="M52.9,43.3c-0.4,1.1-0.6,2.1-0.7,3c-0.1,1.6,0.7,3.3,2.5,3.6c5.3,0.6,12.1-9.2,14.5-12.3
		c0.6-0.7,1.4-0.5,1.5,0.2c-1.8,3.6-6.8,10.9-11.6,13.4c-3.3,1.7-8.9,0.2-10.3-3.6c-2.1-5.9,4.5-15.4,9.2-17.6
		c3.9-1.9,8.2,2.1,7.8,4.6C65.4,37.4,57.4,41.4,52.9,43.3z M53.8,41c5.1-2.8,11.1-7.8,8.6-9.2C61,31.1,56.4,36,53.8,41z"/>
	<path class="st0" d="M70.7,41.5c1.5-2.6,6.8-10.8,10.1-11.7c2.6-0.8,5,2.1,5.2,3.7c0.6,3.7-4.1,13.1-8.6,16.6c1-0.2,2-0.6,3.2-1.2
		c4.3-2,9.2-8.7,10.9-11.2c0.7-0.5,1.6-0.2,1.2,0.7c-1.4,2.6-6.5,9.6-10.9,11.9c-5.9,3-11.4,1.2-14.3-0.5
		c-2.7,5.5-4.7,11.5-5.9,16.5c-1.1,0.7-3.8-0.4-3.3-2.6c0.6-2.6,3-8.6,6-16.1c3.3-8.3,8.8-18.4,8.8-20.1c1.1-1,4.1-0.3,3.5,1.1
		C75.9,30.8,71.9,39,70.7,41.5z M68.4,48.6c1.5,0.6,3.2,1.2,4.5,0.8c4.3-1.2,12.8-17.4,9.1-17.8C79.5,31.2,72,42.6,68.4,48.6z"/>
	<path class="st0" d="M98.8,30.5C94.7,39,93.4,41.8,92,44.6c2-2.5,10.5-13.7,13.6-14.6c2.8-0.7,5,2.4,4.3,4.5
		c-1.6,4.4-7.3,15.4-4,15.1c2.2-0.2,8.5-7.9,11.2-12.2c0.7-0.6,1.2,0.1,1.1,1c-2.4,4.2-6.7,10-9.4,12.1c-3.2,2.5-7.3-0.2-7.6-2.8
		c-0.3-5.2,6.4-14.7,4.8-14.8c-2.9-0.2-14.8,15.9-15.3,17.6c-0.9,1.8-4.7,0.1-4.3-1.4c0.7-2.4,3.8-9,8.7-18.9
		c2.9-6,5.7-11.6,6.1-13.2c0.6-1.1,3.5,0.8,3.2,2.2C104.1,20.4,102.7,22.4,98.8,30.5z"/>
	<path class="st0" d="M130.6,36.5c0.7,0.7,1.2,1.7,0.7,2.3c-0.8,1.1-1.2,2-2.6,4.7c-1.5,3.3-1.6,6.4,0.5,6.1
		c2.6-0.3,9.7-9.6,11.1-11.8c0.5-0.5,1.2-0.1,1.3,0.5c-1.2,2.3-6.6,10.2-9.9,12.5c-2.8,1.9-5.2,0.5-6.8-1.1c-1-1-0.7-4.2,0.3-6.3
		c-1.6,2.4-5.6,7.1-8.1,8.3c-1.6,0.7-4.8-1.1-5.2-3.1c-0.5-2.6,1.9-8.3,5.9-12.8c4.2-4.6,7.4-6,10-6.5c2.9-0.6,7.4,2.4,6.6,4.3
		C133.7,35,131.5,36.4,130.6,36.5z M130.2,36.2c0.2-1,2.3-4.1,0.8-4.9c-1.6-0.8-7.3,2.5-10.2,6.6c-4.8,6.6-6.1,11.3-4.9,11.5
		c2.1,0.4,10.4-9.4,12.6-13.2C128.9,35.6,129.5,35.7,130.2,36.2z"/>
	<path class="st0" d="M139.8,45.6c0,0,9.7-13.4,14.3-14.8c2.3-0.7,5.4,1,4.3,3.6c-1.7,4.2-9.1,16.3-4.2,15.2c1.9-0.5,7.7-6.8,11-12
		c0.8-0.6,1.2,0.6,1.1,1.1c-2.6,4.8-6.8,9.9-9.9,12.1c-3,2.1-7.6-0.2-7.4-3.3c0.3-5.6,7-13.8,5.4-13.9c-2.8-0.2-14.7,15.3-15.3,17
		c-1.4,1.3-4.8,0-4.3-1.6c0.5-1.6,7.3-14.9,7.9-17.5c0.6-0.9,3.2,0.1,3,1.5C145.4,34.8,139.8,45.6,139.8,45.6z"/>
	<path class="st0" d="M171.2,33.7c-0.3,1.2-1.4,2.4-3.2,6c-3.2,6.1-4,10.4-1.8,10c3-0.6,9.9-9.6,11.4-12c0.8-0.5,1.2,0.2,1.2,0.7
		c-1.2,3.3-7.1,10.8-9.8,12.4c-2.8,1.7-5.4,0.6-6.6-0.7c-1.3-1.4-1.4-4.5,1.1-9.7c2.2-4.6,4.2-6.8,4.3-8.3
		C168.5,31.1,171.6,32.1,171.2,33.7z M171.1,24c1.4-1,3.4-1.1,4.6-0.2c0.8,0.6,0.3,1.8-0.5,2.4c-0.8,0.7-2.4,1-3.8,0.8
		C170,27,169.7,25,171.1,24z"/>
	<path class="st0" d="M179,43.2c-0.4,1.1-0.6,2.1-0.5,2.9c0.1,2.5,0.6,3.5,2.5,3.7c2.5,0.2,7-3.3,9.5-6.5c0.6-0.5,1.1-0.1,1,0.7
		c-2.1,3.9-5,6.9-6.9,7.7c-3.1,1.2-8.5-1.1-9.5-4.8c-1.4-5.2,4.2-14.5,9-16.8c3.9-1.9,8.6,1.5,8.1,3.9
		C191.6,36.4,183.5,41.2,179,43.2z M180,40.8c5.1-2.7,11.2-7.5,8.5-9C187.1,31,182.5,36,180,40.8z"/>
	<path class="st0" d="M205.8,28.4c-0.9-3.2-0.4-7.8,5.9-11.2c6.5-3.5,18.9-3.4,24.7,1.4c4.8,4.1,3.8,10.1-1.8,14.7
		c-7.3,6-16,7.7-19.6,8.2c-2.6,5.7-5.4,12.4-5,13.6c0.5,1.4-3.8,0.1-3.8-1.8c0.1-2.1,3.9-9.5,6-14.5c2.2-5.1,9.9-19.8,10.5-21
		c0.9-1.2,4.3,0.7,3.4,1.7c-1.4,2-5.9,10.6-10.1,19.9c3.1-0.8,9-2.9,13.4-6.6c5.7-4.8,8.2-11.7,3.4-14.3c-4.6-2.5-13.2-1.8-19.2,1.8
		c-4.6,2.8-6.7,6.5-6.4,7.9C206.9,29.2,205.9,29.1,205.8,28.4z"/>
	<path class="st0" d="M244.3,33.7c-0.3,1.2-1.4,2.4-3.2,6c-3.2,6.1-4,10.4-1.8,10c3-0.6,9.9-9.6,11.4-12c0.8-0.5,1.2,0.2,1.2,0.7
		c-1.2,3.3-7.1,10.8-9.8,12.4c-2.8,1.7-5.4,0.6-6.6-0.7c-1.3-1.4-1.4-4.5,1.1-9.7c2.2-4.6,4.2-6.8,4.3-8.3
		C241.6,31.1,244.7,32.1,244.3,33.7z M244.2,24c1.4-1,3.4-1.1,4.6-0.2c0.8,0.6,0.3,1.8-0.5,2.4c-0.8,0.7-2.4,1-3.8,0.8
		C243.1,27,242.8,25,244.2,24z"/>
	<path class="st0" d="M260,39.7c1.9-2.1,4.3-7.1,1.8-7.9c-1.9-0.6-5,2.8-7.9,7.9c-1.4,2.5-4.2,9.8-0.4,10.6c4.7,1,13.4-8.8,15.8-13
		c0.5-0.5,1.1,0.3,1.1,0.6c-1.5,3.8-7.3,11.4-12.4,13.7c-3.4,1.6-9.6-0.6-10.1-3.8c-1-5.9,4.5-14.9,9.2-17.1c2.3-1.1,5-0.4,7.2,0.5
		c1.7,0.2,2.6,1.4,2.5,2.4c-0.2,1.7-3.4,5.7-5,6.8C260.7,41,259.7,40.5,260,39.7z"/>
	<path class="st0" d="M278.6,39.7c1.9-2.1,4.3-7.1,1.8-7.9c-1.9-0.6-5,2.8-7.9,7.9c-1.4,2.5-4.2,9.8-0.4,10.6
		c4.7,1,13.4-8.8,15.8-13c0.5-0.5,1.1,0.3,1.1,0.6c-1.5,3.8-7.3,11.4-12.4,13.7c-3.4,1.6-9.6-0.6-10.1-3.8c-1-5.9,4.5-14.9,9.2-17.1
		c2.3-1.1,5-0.4,7.2,0.5c1.7,0.2,2.6,1.4,2.5,2.4c-0.2,1.7-3.4,5.7-5,6.8C279.2,41,278.2,40.5,278.6,39.7z"/>
	<path class="st0" d="M299.8,32.1c1.9,0,3.9,0.9,3.8,4.1c-0.1,1.9-1.6,6.1-4,9.8h0.3c4.6-0.3,9.4-8.2,10-9c0.5-0.7,1.3-0.4,1.1,0.7
		c-0.6,0.9-3.1,6.4-7.4,8.9c-1.7,1-3.6,1.4-5.2,1.2c-1.5,1.9-3.3,3.5-5.2,4.2c-3.2,1.2-8.4-1.8-8.6-5.6c-0.4-6.3,4.8-15.8,10.7-16.7
		c1.6-0.2,4.2,0.7,4.8,2C300.1,32,300,32.1,299.8,32.1z M299.5,32.1c-0.6-0.1-1.8-0.5-3-0.2c-3.6,0.8-9.2,9.7-8.8,16.3
		c0.2,2.9,2.6,2.3,4.1,1.3c1.1-0.8,2.3-1.9,3.4-3.2c-0.3-0.3-0.7-0.8-1-1.2c-2.8-4.1-0.2-9.8,3.2-12.3
		C297.7,32.5,298.6,32.2,299.5,32.1z M296.3,45c2.4-3.2,4.4-7.2,4.7-10.4c0.2-1.7-2.3-1.2-4.1,1.1C294.6,38.7,294.1,43,296.3,45z"/>
	<path class="st0" d="M314.6,34.3c-3.8,7.8-7.4,17.1-3.7,15.8c2-0.7,9.1-9.5,11-12.6c0.7-0.8,1.2,0.3,1.1,0.8
		c-1,2.7-7.9,12.2-10.7,13.6c-1.8,1-6.3,0-6.7-3.1c-0.3-2.8,1.1-7.7,6.1-17.1c3.3-6.3,6.7-11.7,6.6-13.1c0.6-1.4,3.7,0.1,3.4,1.3
		C321.4,21.5,318.9,25.6,314.6,34.3z"/>
	<path class="st0" d="M328.3,33.7c-0.8,1.1-1.5,1.9-3.4,6c-3.2,6.6-3.3,10.4-1.8,10.5c2,0.2,6-4.8,7.4-6.9c0.5-0.7,1.1-0.4,1,0.5
		c-1.4,3.3-3.6,7.2-5.3,7.8c-2.3,0.9-5.6-0.2-6.9-1.6c-1.3-1.5-1-5.1,1.1-9.7c2.1-4.6,3.2-6.4,4-7.8C325.5,31.1,329,32.5,328.3,33.7
		z M328.5,27.2c-1.4-0.2-1.6-1.9-0.2-2.7c1.3-0.8,4.2-1.1,5.4-0.3c1,0.8-0.2,2.3-1.3,2.6C331.4,27.2,329.9,27.5,328.5,27.2z"/>
</g>
</svg>
