<svg xmlns="http://www.w3.org/2000/svg" width="336" height="76.8" viewBox="0 0 252.7 54.3"><path fill="#00acd4" d="M33.2 16.2v6.3c0 8.5-6.3 17.6-13.7 17.6a11.9 11.9 0 0 1-7.2-2.5c-2.2 2.9-3.5 5.6-3.5 8.1s.5 3.4 2.7 3.4c.5 0 .5.2.5.4s-.4.4-.9.4a4.6 4.6 0 0 1-4.8-4.5c0-2.8 1.8-5.9 4.5-9.1a21 21 0 0 1-5.9-15.1c0-9.4 4-12.3 8.2-12.3 2.3 0 4.7 1.7 6.6 4.2a8.1 8.1 0 0 1 4.5-1.5c.5 0 .6.2.6.4a1.8 1.8 0 0 1-1.3 1.2 5.7 5.7 0 0 0-2.9.9 25.8 25.8 0 0 1 3.9 9.2l1.2-1L30 18c1.7-10.4 4.3-13.8 7.3-13.8a2 2 0 0 1 2 2.1c0 2.4-2.5 6-6.1 9.9zM12 35c1-1.1 2.2-2.3 3.4-3.4a10.9 10.9 0 0 1-1.4-5.9c0-5.4 1.9-9.3 4.5-11.6-1.8-2.7-4-4.3-6-4.3s-5.9 2.8-5.9 9.3S8.7 31.5 12 35zm17.7-15.1L26 23.4l-1.2 1.3c0 .6.1 1.1.1 1.6 0 4.7-2.5 8.1-5.2 8.1a4.8 4.8 0 0 1-3.4-1.5l-3 3.4a10.6 10.6 0 0 0 6.6 2.6c5.8 0 8.3-8.6 9.6-17.6a5.9 5.9 0 0 1 .2-1.4zm-10.6-4.7c-2.2 2.1-4 5.8-4 10.8a10.3 10.3 0 0 0 1.1 4.8l5.7-5.2a24.9 24.9 0 0 0-2.8-10.4zM22 27.3L17.1 32a3.5 3.5 0 0 0 2.4 1.2c1.5 0 2.5-2.8 2.5-5.9zm11.3-13.2C35.6 11 37 8.3 37 6.3s-.2-1-.6-1-3.1 2.9-3.1 7.5zm8 3l.9-1.5c.8-1.2 1.1-2.1 1.4-2.4a2.4 2.4 0 0 1 1.8-.8c.4 0 .9.2.9.5s-.9 2.4-2.2 4.3a18.3 18.3 0 0 0 3.3-.5c.1 0 .4.2.4.4s-1.8.8-4.2.9c-3.3 5.1-8.8 12.3-8.8 14.8a.8.8 0 0 0 .7.9c.9 0 5.3-3 8.5-5.5l.6-.4a.2.2 0 0 1 .2.2c0 .2 0 .3-.3.5-3.6 2.9-8 6.2-9.9 6.2a2.4 2.4 0 0 1-2.2-2.1c0-2.4 5.3-10.2 8.3-14.6-2.7-.2-3.6-.7-3.6-1s.5-1.2.8-1.2a9.6 9.6 0 0 0 3.4 1.3z"/><path fill="#00acd4" d="M46.8 27.8v.7c0 1.3.8 2.2 2.5 2.2s2.8-.1 6-2.5l.5-.4a.2.2 0 0 1 .2.2c0 .2 0 .3-.3.5-3.6 2.9-5.8 3.6-7.7 3.6s-4.1-1.4-4.1-3.6 3.3-7.1 6.1-7.1a1.9 1.9 0 0 1 1.7 1.6c0 1.2-3 3.7-4.9 4.8zm3.8-4.8a.4.4 0 0 0-.4-.4c-1.1 0-3.2 3.2-3.2 4.3s3.6-2.9 3.6-3.9z"/><path fill="#00acd4" d="M60.5 30.8c-.6 0-1.5 1-2.6 1s-1.1-.3-1.1-.7 1-1.2 1.8-1.2h1.2c1.8-1.2 4.9-4.8 4.9-6.9 0-.5-.1-.7-.4-.7-2 0-6.5 4.4-7.4 6.6-1.6 4.5-6.7 17.7-11.9 17.7a1.6 1.6 0 0 1-1.6-1.4c0-3.6 6.9-11.5 10.8-15.1 3.2-6.4 6.5-12.5 8.2-12.5a.7.7 0 0 1 .6.7c0 .2-.5.5-.8.8s-3.1 4.1-4.3 6.9c1.4-1.4 5.2-4.9 7.3-4.9a2.4 2.4 0 0 1 2.2 1.9c0 2.2-2.8 5.5-5.1 7.2h.2a12.1 12.1 0 0 0 6.7-2c.3-.3.4-.4.6-.4s.2.1.2.3l-.5.5a12.6 12.6 0 0 1-7.8 2.2zm-7.2 1c-3.7 3.8-8.9 10.6-8.9 12.9 0 .6.4.7.6.7s4.8-6.8 8.3-13.6z"/><path fill="#00acd4" d="M82.1 22a1.6 1.6 0 0 1 1.5 1.7c0 1.6-3.2 4.1-3.2 6.8 0 .4.1.5.4.5s1.9-.3 5.1-2.9c.3-.2.4-.3.6-.3a.2.2 0 0 1 .2.2c0 .1-.1.2-.4.5-3.5 2.9-4.9 3.5-6.4 3.5a2 2 0 0 1-2.2-1.9c0-3.1 3.5-5.3 3.5-6.8s-.1-.2-.3-.2-6.8 4.9-9.9 8.6c-1 1.3-1.2 2.1-1.8 2.1S68 32.7 68 32.2C68 28 78.2 7.9 84.3 7.9a1.5 1.5 0 0 1 1.5 1.5c0 2.5-7.5 11.2-12.6 15.9a24.5 24.5 0 0 0-2.3 5.1c3.3-3.5 8.2-8.4 11.2-8.4zm2.8-12.7a.4.4 0 0 0-.4-.4c-2 0-10.1 13.8-10.1 14.1 1.4-1.3 10.5-11.2 10.5-13.7z"/><path fill="#00acd4" d="M101.9 28.2l.6-.4a.2.2 0 0 1 .2.2c0 .2 0 .3-.3.5-3.6 2.9-5.1 3.3-6.5 3.3s-2.4-2.9-3-2.9-3.9 4.4-6.7 4.4a1.7 1.7 0 0 1-1.7-1.4c0-3.9 6.4-9.6 10.1-9.6a1.6 1.6 0 0 1 1.6 1.6c0 .6-.5 1.8-.9 1.8s-.6-.2-.6-.4.6-1 .6-1.6-.1-.5-.6-.5c-2.1 0-7.7 5.4-7.7 8.6a.3.3 0 0 0 .3.3c1 0 3.2-2.1 4.6-3.6s1.8-2.2 2.5-2.2 1.5 4.3 3.1 4.3 1.3 0 4.4-2.4z"/><path fill="#00acd4" d="M113.7 22.8c.9 0 1.7.7 1.7 1.2s-3.1 4.6-3.1 7.8c0 .6.2.7.4.7s3.8-1.8 7.1-4.3l.5-.4a.2.2 0 0 1 .2.2c0 .2 0 .3-.3.5-3.6 2.9-6.7 5-8.6 5s-2.3-.4-2.3-1.9c0-3.7 3.8-6.3 3.8-7.7h-.1c-1.5 0-9.6 8.1-11.4 8.1-.3 0-.8-.8-.8-1.2s2.5-5.5 5-8.2a5.8 5.8 0 0 1 3.2-1.9c.2 0 .3.2.3.4a20.1 20.1 0 0 1-1.4 2 36.6 36.6 0 0 0-3 5.9c.8-.6 6.9-6.2 8.8-6.2z"/><path fill="#00acd4" d="M128 28.2l.6-.4a.2.2 0 0 1 .2.2c0 .2 0 .3-.3.5-3.6 2.9-6 4.2-7.5 4.2a1.9 1.9 0 0 1-2.1-1.9c0-2.9 4.8-8.6 6.1-8.6s1.4.3 1.4.5-.1.4-.5.9c-2.4 2.7-4.7 5.8-4.7 7.5s.3.6.5.6 3.1-1 6.3-3.5zm1.2-11a2.6 2.6 0 0 1-2.3 2.2c-.6 0-1-.3-1-.9s1.7-2.2 2.3-2.2a.9.9 0 0 1 1 .9z"/><path fill="#00acd4" d="M130.8 27.8v.7c0 1.3.8 2.2 2.5 2.2s2.8-.1 5.9-2.5l.6-.4a.2.2 0 0 1 .2.2c0 .2 0 .3-.3.5-3.6 2.9-5.8 3.6-7.7 3.6s-4.1-1.4-4.1-3.6 3.3-7.1 6.1-7.1a1.9 1.9 0 0 1 1.7 1.6c0 1.2-3.1 3.7-4.9 4.8zm3.8-4.8a.4.4 0 0 0-.4-.4c-1.2 0-3.2 3.2-3.2 4.3s3.6-2.9 3.6-3.9zm53.9-16.7a3.6 3.6 0 0 1 3.7 3.5c0 7.3-8.3 18.3-15.6 18.3-2.6 0-3.3-1.3-3.3-2s.8-1 1.3-1 .3.3.3.4.5 1.8 1.8 1.8c5.8 0 12.1-11.3 12.1-17.3 0-1.4-.7-1.9-1.5-1.9-3.5 0-12.5 9.7-14.2 14.4-3.9 11.3-6.8 19.9-14.4 19.9-5.1 0-10.8-5.8-10.8-15.3 0-6.4 3.8-10.8 7.6-10.8s4.9 1.8 6.1 4.7a7.7 7.7 0 0 1 3.9-1.4c.7 0 .9.2.9.4s-.7.8-1.1.8a5.6 5.6 0 0 0-3.4 1.2 15.2 15.2 0 0 1 .7 4.5c0 5.8-2 8.7-3.9 8.7a3.6 3.6 0 0 1-3.3-3.9 11.7 11.7 0 0 1 4.4-9c-.9-3-2.7-4.7-4.7-4.7s-4.9 3.6-4.9 8.1c0 9.6 4.4 15.5 9.4 15.5s7.6-8.9 10.2-18.1c1.9-6.8 4-13.5 7.2-16.2a7.5 7.5 0 0 1-2.3.3c-2.7 0-4.3-.5-6.9-.5s-4.5 1.1-4.5 3.6 1.4 6 4.8 6a3.9 3.9 0 0 0 1.4-.4c.2 0 .5.2.5.3a3.3 3.3 0 0 1-2.4.8c-3.4 0-7-2.5-7-6.4s4.1-5.8 8.8-5.8c3.1 0 5.4 1.1 8.5 1.1.5 0 2.2-1.9 3.4-1.9a.7.7 0 0 1 .8.8c0 1.4-2.6 1.9-3.8 2.2s-2.1 4.3-2.4 5.4-.9 3.8-1.3 5.6c2.7-4.1 9.8-11.7 13.9-11.7zm-28.4 17.2a13 13 0 0 0-3.2 8.1c0 2 .8 2.8 1.4 2.8s2.2-3.1 2.2-7.2a20 20 0 0 0-.4-3.7zm18.8-17.7zM195 28.2c.3-.3.4-.4.6-.4a.2.2 0 0 1 .2.2c0 .2-.1.3-.4.5-3.6 2.9-5.9 4.2-7.5 4.2a1.9 1.9 0 0 1-2.1-1.9c0-2.9 4.9-8.6 6.2-8.6s1.3.3 1.3.5 0 .4-.4.9c-2.4 2.7-4.7 5.8-4.7 7.5s.2.6.4.6 3.1-1 6.4-3.5zm1.2-11a2.7 2.7 0 0 1-2.3 2.2c-.7 0-1-.3-1-.9s1.7-2.2 2.2-2.2a1 1 0 0 1 1.1.9z"/><path fill="#00acd4" d="M205.8 28.2c.3-.3.4-.4.6-.4a.2.2 0 0 1 .2.2c0 .2-.1.3-.4.5-3.2 2.5-8.1 4.5-9.7 4.5a2.4 2.4 0 0 1-2.5-2.2c0-4.1 5.7-8.8 8.7-8.8a1.3 1.3 0 0 1 1.4 1.2 2.7 2.7 0 0 1-1.2 2.2.9.9 0 0 1-.6-.6c0-.3 1-.9 1-1.7a.4.4 0 0 0-.4-.4c-2 0-6.1 5.3-6.1 8.3a.8.8 0 0 0 .9.9 20.6 20.6 0 0 0 8.1-3.7z"/><path fill="#00acd4" d="M216.6 28.2l.6-.4a.2.2 0 0 1 .2.2c0 .2 0 .3-.3.5-3.3 2.5-8.2 4.5-9.7 4.5a2.3 2.3 0 0 1-2.5-2.2c0-4.1 5.6-8.8 8.6-8.8a1.3 1.3 0 0 1 1.4 1.2 2.9 2.9 0 0 1-1.1 2.2.9.9 0 0 1-.6-.6c0-.3 1-.9 1-1.7a.5.5 0 0 0-.5-.4c-2 0-6.1 5.3-6.1 8.3a.8.8 0 0 0 .9.9 20 20 0 0 0 8.1-3.7z"/><path fill="#00acd4" d="M230.1 27.8a.2.2 0 0 1 .2.2c0 .2-.1.3-.4.5s-4.5 2.9-6.5 2.9h-.3c-1.4 1.4-2.9 2.5-4.2 2.5a3.1 3.1 0 0 1-3.2-2.8c0-3.6 4.9-9 8.9-9a1.9 1.9 0 0 1 2.1 1.8 12 12 0 0 1-2.6 6.3h.3a7.8 7.8 0 0 0 5.1-2.1c.3-.2.4-.3.6-.3zm-11.8 3.6c0 .7.4 1.2.9 1.2a4.9 4.9 0 0 0 2.7-1.5c-.3-.2-.5-.4-.5-.6a2.5 2.5 0 0 1 1.5-1.3l.4.2a9.7 9.7 0 0 0 2-5.4c0-1-.4-1.2-.7-1.2-2.1 0-6.3 5.6-6.3 8.6z"/><path fill="#00acd4" d="M240.1 28.2c.3-.3.4-.4.6-.4a.2.2 0 0 1 .2.2c0 .2-.1.3-.4.5-2.6 2.2-6.8 5-9.2 5a2.4 2.4 0 0 1-2.5-2.4c0-5.6 12.3-22.7 17.4-22.7a1.3 1.3 0 0 1 1.4 1.3c0 5.4-12.1 15.5-14.6 17.3a9.1 9.1 0 0 0-1.3 4.5c0 .8.3.9.6.9s4.5-1.7 7.8-4.2zm-6.5-2.8c4.5-3.8 12.8-12.1 12.8-15.4a.4.4 0 0 0-.4-.4c-1.6 0-10.3 11.9-12.4 15.8z"/><path fill="#00acd4" d="M248.3 28.2l.6-.4a.2.2 0 0 1 .2.2c0 .2 0 .3-.3.5-3.6 2.9-6 4.2-7.5 4.2a1.9 1.9 0 0 1-2.1-1.9c0-2.9 4.9-8.6 6.1-8.6s1.4.3 1.4.5 0 .4-.5.9c-2.3 2.7-4.6 5.8-4.6 7.5s.2.6.4.6 3.1-1 6.3-3.5zm1.3-11a2.7 2.7 0 0 1-2.3 2.2c-.7 0-1.1-.3-1.1-.9s1.8-2.2 2.3-2.2a1 1 0 0 1 1.1.9z"/></svg>