<svg xmlns="http://www.w3.org/2000/svg" width="500" height="500" viewBox="0 0 500 500"><title>Artboard 15</title><g id="Layer_1" data-name="Layer 1"><rect x="82" y="82.2" width="335.7" height="335.68" rx="26.1" ry="26.1" fill="#87c663"/><path d="M151,352.1l44,65.7H392.4s24.1-.7,25.2-26.1c1-20.4,0-72.9,0-72.9l-70-89.4Z" fill="#304423" opacity="0.2"/><path d="M281.8,347.4c19.6.1,39.3-.3,59-.5V219l-92.6-65-91.8,65.7V346.9Z" fill="#fff" stroke="#fff" stroke-linecap="round" stroke-linejoin="round" stroke-width="13.71"/><polyline points="120.2 234.6 248.3 142 375.7 233.4" fill="none" stroke="#fff" stroke-linecap="round" stroke-linejoin="round" stroke-width="25.19"/><path d="M266.4,272.1l-.4.5L250.8,298a.7.7,0,0,0,0,.9L266,324.2l.3.4h.1V314h.8c5.1,0,10.3-.1,15.4,0a7.9,7.9,0,0,0,7.5-4.4L307,280.3a1.7,1.7,0,0,1,.2-.5H307a17.4,17.4,0,0,1-10.4,3.1H266.4Zm-24.5,10.6H209.1a1,1,0,0,0-1,.5c-1.3,2.5-2.7,5-4.1,7.5a16,16,0,0,0-1.3,3,14,14,0,0,0-.9,8.1,14.7,14.7,0,0,0,14.7,12.1h25.4Zm-13.5-40.9.3-.6c5.1-8.7,10.1-17.5,15.2-26.3.4-.6,1-1.3,1-1.9a4.2,4.2,0,0,0-1-2c-1.6-2.7-3.1-5.4-4.9-7.9-4.4-6.4-11.6-7.5-17.3-5.6a14.2,14.2,0,0,0-7.6,6.7l-12.4,21.4-.3.5Zm41.9,9a2.1,2.1,0,0,1,.4.6l10.5,18.1,5.5,9.7c.2.2.4.4.6.4,3.6,0,7.2.1,10.8-.1a13.7,13.7,0,0,0,8.5-3.3c5.3-4.6,7.4-12,3.5-18.8s-8.4-14.4-12.5-21.6l-.3-.4Z" fill="#87c663"/><path d="M179.6,265.6c.6-3.1,2.6-5.6,4.1-8.3s3.4-5.9,5.1-8.9l.3-.6-9.4-5.3h.4l29.5-.6a1.2,1.2,0,0,1,1.2.7l14.3,25.7c.1.1.1.3.3.6l-9.6-5.5-.3.4-14.7,25.5a18.1,18.1,0,0,0-2.6,10.2v.9c-.1-.2-.2-.3-.2-.4-5.8-9.9-11.6-19.8-17.3-29.7a26.5,26.5,0,0,1-1.1-3Z" fill="#87c663"/><path d="M270.6,195.4l1.2.3a7.4,7.4,0,0,1,4.8,3.7l7.8,13.3.6,1.1,9.3-5.5a1.6,1.6,0,0,1-.3.6l-14.4,25.8c-.1.3-.3.5-.8.4l-29.3-.4h-.6l9.3-5.3-.3-.5-14.6-25.3a19,19,0,0,0-6.7-7.1l-1.8-1Z" fill="#87c663"/><path d="M266.4,272.1V283h30.2a17.4,17.4,0,0,0,10.4-3.1h.2a1.7,1.7,0,0,0-.2.5l-16.9,29.3a7.9,7.9,0,0,1-7.5,4.4c-5.1-.1-10.3,0-15.4,0h-.8v10.6h-.1l-.3-.4-15.2-25.3a.7.7,0,0,1,0-.9L266,272.6Z" fill="#87c663"/><path d="M241.9,282.7V314H216.5a14.7,14.7,0,0,1-14.7-12.1,14,14,0,0,1,.9-8.1,16,16,0,0,1,1.3-3c1.4-2.5,2.8-5,4.1-7.5a1,1,0,0,1,1-.5h32.8Z" fill="#87c663"/><path d="M228.4,241.8l-27-15.7.3-.5,12.4-21.4a14.2,14.2,0,0,1,7.6-6.7c5.7-1.9,12.9-.8,17.3,5.6,1.8,2.5,3.3,5.2,4.9,7.9a4.2,4.2,0,0,1,1,2c0,.6-.6,1.3-1,1.9-5.1,8.8-10.1,17.6-15.2,26.3Z" fill="#87c663"/><path d="M270.3,250.8l27-15.4.3.4c4.1,7.2,8.3,14.4,12.5,21.6s1.8,14.2-3.5,18.8a13.7,13.7,0,0,1-8.5,3.3c-3.6.2-7.2.1-10.8.1-.2,0-.4-.2-.6-.4l-5.5-9.7-10.5-18.1A2.1,2.1,0,0,0,270.3,250.8Z" fill="#87c663"/></g></svg>