<svg id="Layer_1" data-name="Layer 1" xmlns="http://www.w3.org/2000/svg" width="1.3in" height="0.4in" viewBox="0 0 92 29.3"><title>Artboard 5 copy 2</title><path d="M13.6,23.9C8.1,23.9,4,20.7,4,13.6V2.3H8.3V13.5c0,4.5,2,6.8,5.4,6.8s5.4-2.3,5.4-6.8V2.3h4.2V13.6C23.3,20.7,19.2,23.9,13.6,23.9Z" fill="#fac67a"/><path d="M27.6,23.3V2.3h4.2v21Z" fill="#fac67a"/><path d="M35.5,24,34,23.4,43.9,1.7l1.5.5Z" fill="#fac67a" stroke="#fac67a" stroke-miterlimit="10"/><path d="M57.3,23.9c-5.6,0-9.7-3.2-9.7-10.3V2.3H52V13.5c0,4.5,1.9,6.8,5.3,6.8s5.4-2.3,5.4-6.8V2.3h4.2V13.6C66.9,20.7,62.8,23.9,57.3,23.9Z" fill="#fac67a"/><path d="M84.7,23.3l-5.5-7.9-5.7,7.9H68.8l7.8-10.7L69.2,2.3h4.9l5.2,7.5,5.2-7.5h4.7L81.8,12.6l7.8,10.7Z" fill="#fac67a"/></svg>