<svg xmlns="http://www.w3.org/2000/svg" width="1080" height="1080" viewBox="0 0 1080 1080"><title>Artboard 2</title><g id="Head"><polygon points="715.6 427.5 715.6 591.3 362.5 591.3 362.5 396.5 613 392.8 624.9 405 635.1 391.9 630.2 388 633.2 380.6 642.3 369.8 653.1 406.3 644 412.5 651.7 425.4 658.6 437.7 675.9 442.7 684.4 430.4 676.9 426.8 683.4 421.5 685.3 413.3 675.3 411.2 676.3 408.4 691.2 396.7 687.4 389.8 700.4 374.5 702.5 413 709.3 415.9 715.6 418.6 715.6 427.5" fill="#f26322"/><g id="_Group_" data-name="&lt;Group&gt;"><path d="M296.1,669Zm0,0Zm0,0Zm0,0Z" fill="#221f1f"/><path d="M352.1,539.4v7.8l20.7,3.6V540.7Zm0,0v7.8l20.7,3.6V540.7Zm0,0v7.8l20.7,3.6V540.7Zm0,0v7.8l20.7,3.6V540.7Z" fill="#221f1f"/><path d="M296.1,669Z" fill="#f26322"/><path d="M297.4,670.4l-.4-.4a.8.8,0,0,1-.4-.4l-.4-.4-.2-.3.4.5a1.2,1.2,0,0,0,.5.5.1.1,0,0,0,.1.1Z" fill="#221f1f"/><path d="M741.7,564.9V314.2H714.1l.2.3h27.3V565h86.2l-29,105.8a21.1,21.1,0,0,1-2.7,5.9,20.6,20.6,0,0,0,2.8-6l29-105.8Zm-6.9,113.3h45a12.5,12.5,0,0,0,9.1-3.9,12.4,12.4,0,0,1-9,3.8Zm7,37.6a19.3,19.3,0,0,1-5.6,13.6,19.3,19.3,0,0,0,5.6-13.7V685.2h0ZM569.6,813.1l158.6-86.3a11,11,0,0,0,2.8-2,13.5,13.5,0,0,1-2.7,2Zm35.9-492c0-2.3,0-4.6-.2-6.8H338.4V479.2h0v78.6l2.5.7,2.8.7h0l1.5.4V321.1ZM540,829.3h0l2.1-1.2-2.1,1.2ZM351.8,726.9a12.6,12.6,0,0,1-6.6-11.1V678.3H300.7a12.6,12.6,0,0,1-12.2-9.3l-26.4-94.2L287.9,669a12.6,12.6,0,0,0,12.2,9.3h45v37.5a12.5,12.5,0,0,0,6.6,11L536.6,827.5l3.3,1.8h.1l-3.3-1.8Z" fill="#221f1f"/><path d="M734.8,571.8V321.1H345.2V571.8H261.3l.8,3L288.5,669a12.6,12.6,0,0,0,12.2,9.3h44.5v37.5a12.6,12.6,0,0,0,6.6,11.1L536.7,827.5l3.3,1.8h0l2.1-1.2,1.2-.6,26.3-14.4,158.7-86.3a13.5,13.5,0,0,0,2.7-2l1-1.2a1.8,1.8,0,0,0,.5-.7,11.9,11.9,0,0,0,2.3-7.2V678.2h45.1a12.4,12.4,0,0,0,9-3.8l.5-.5h0l.3-.4h.1a2.1,2.1,0,0,0,.4-.6h.1a13.3,13.3,0,0,0,1.8-3.8l26.6-97.1Zm50.6,95.3a5.8,5.8,0,0,1-5.6,4.3h-52v44.3a5.6,5.6,0,0,1-3,5L540,821.4,355.1,720.7a5.8,5.8,0,0,1-3-5V671.4H300.7a4.8,4.8,0,0,1-2.4-.6H298l-1-.7h0l.4.4-.4-.4a9951643238214.9,9951643238214.9,0,0,0-.8-.8c-.1-.1-.2-.2-.2-.3h0c0,.1,0,.1.1.1h0a5.7,5.7,0,0,1-.8-1.3,1.4,1.4,0,0,0-.2-.6l-24.7-88.4h81.7V328.1H727.8V578.7h81.8Z" fill="#f26322"/></g><path d="M727.8,578.7V328.1H352.1V539.4l20.7,1.3V348.8H707.1V578.7H372.8V550.8l-20.7-3.6v31.5H270.4l24.7,88.4a1.4,1.4,0,0,1,.2.6,5.7,5.7,0,0,0,.8,1.3h0l.3.3a1.2,1.2,0,0,0,.5.5.1.1,0,0,0,.1.1l1,.7h.3a4.8,4.8,0,0,0,2.4.6h51.4v44.3a5.8,5.8,0,0,0,3,5L540,821.4,724.8,720.7a5.6,5.6,0,0,0,3-5V671.4h52a5.8,5.8,0,0,0,5.6-4.3l24.2-88.4ZM707.1,706.8,595,767.8l-9.4,1.9-3.3-9.6-16.9,16.3c-1.5,1.4-4.2.2-3.8-1.9l6.7-31.5L556,748.3,541.1,725l-14.9,23.3L513.9,743l6.7,31.5a2.2,2.2,0,0,1-3.8,1.9l-16.9-16.3-3.3,9.6-13-2.5L372.8,706.8V671.4H707.1Z" fill="#221f1f"/><path d="M707.1,671.4v35.4L595,767.8l-9.4,1.9-3.3-9.6-16.9,16.3c-1.5,1.4-4.2.2-3.8-1.9l6.7-31.5L556,748.3,541.1,725l-14.9,23.3L513.9,743l6.7,31.5a2.2,2.2,0,0,1-3.8,1.9l-16.9-16.3-3.3,9.6-13-2.5L372.8,706.8V671.4Z" fill="#f26322"/><path d="M741.8,685.2h38.1a19.2,19.2,0,0,0,14.1-6,19.6,19.6,0,0,1-14,6Zm-7,30.6a11.8,11.8,0,0,1-2.3,7.1,11.9,11.9,0,0,0,2.3-7.2V678.3h0ZM582.4,814.2,731.6,733a22,22,0,0,0,2.5-1.7l-2.5,1.6ZM734.7,321.4V571.9h83.9L792,669a12.4,12.4,0,0,1-1.7,3.7,13.3,13.3,0,0,0,1.8-3.8l26.6-97.1H734.8V321.1H605.5c0-2.3,0-4.6-.2-6.8-.5-8.8-2.6-17.2-7.2-24.4-19.4-30.6-83.8-21.1-83.8-21.1l-38.9,41.5-2.8,4H365.7v.2H338.3V436.8h0V479h0v86h.1v-7.2l2.5.7,2.8.7h0l1.5.4v12.1H261.3l.8,3-.8-2.9h83.9V428.8h0V321.4ZM348.5,732.9a19.5,19.5,0,0,1-10.2-17.2V685.2H300.7a19.8,19.8,0,0,1-18.9-14.3L252.2,565h-.1l29,105.8A19.7,19.7,0,0,0,300,685.2h38.1v30.6A19.8,19.8,0,0,0,348.3,733L533.2,833.6l6.6,3.6h.2l-6.6-3.5Z" fill="#221f1f"/><path d="M827.8,565l-29,105.8a21.1,21.1,0,0,1-2.7,5.9l-1.4,1.8-.7.7a19.6,19.6,0,0,1-14,6H741.8v30.6a19.3,19.3,0,0,1-5.6,13.6l-.3.4-1,.9-.8.6-2.5,1.6L582.4,814.2l-35.7,19.4-6.6,3.6H540l-6.6-3.5L348.5,732.9a19.5,19.5,0,0,1-10.2-17.2V685.2H300.7a19.8,19.8,0,0,1-18.9-14.3L252.2,565h86.2v-7.2l2.5.7,2.8.7h0l1.5.4v12.1H261.3l.8,3L287.9,669a12.6,12.6,0,0,0,12.2,9.3h45v37.5a12.5,12.5,0,0,0,6.6,11L536.6,827.5l3.3,1.8h.1l2.1-1.2,1.2-.6,26.3-14.4,158.6-86.3a11,11,0,0,0,2.8-2l1-1.2a1.8,1.8,0,0,0,.5-.7,11.9,11.9,0,0,0,2.3-7.2V678.3h45a12.5,12.5,0,0,0,9.1-3.9l.5-.5h0l.3-.4h.1a2.1,2.1,0,0,0,.4-.6h.1a13.3,13.3,0,0,0,1.8-3.8l26.6-97.1H734.8V321.1H605.5c0-2.3,0-4.6-.2-6.8-.5-8.8-2.6-17.2-7.2-24.4-19.4-30.6-83.8-21.1-83.8-21.1l-38.9,41.5-2.8,4H365.7l20.5-22.5,20.8,12c2.6-2.1,5.2-4,7.9-5.8l-3.1-24.2,55-25.1L480,266.1a193.4,193.4,0,0,1,22.5-5.3l4.6-17.9h65.7l4.7,17.9a191.8,191.8,0,0,1,22.4,5.3l13.2-17.4,55,25.1-3,24.2c2.6,1.8,5.2,3.7,7.8,5.8l20.9-12,20.3,22.4.2.3h27.3V565Z" fill="#221f1f"/><path d="M628.4,688.1v19.3c0,4.4-2,6.4-6.4,6.4H611.3c-4.3.1-6.5-2-6.5-6.4V688.1c0-4.4,2.1-6.5,6.5-6.5H622C626.4,681.6,628.4,683.7,628.4,688.1Zm-4.3,19.1v-19c0-1.8-.6-2.5-2.5-2.5h-9.8c-1.8,0-2.5.6-2.5,2.5v19c0,1.9.7,2.6,2.5,2.6h9.8C623.4,709.8,624.1,709.1,624.1,707.2Z" fill="#fff"/><path d="M592.1,701.1l6.6,12.8h-4.8l-6.6-12.7h-7.8v12.7h-4.4V681.6h16.1c4.4,0,6.4,2.1,6.4,6.5v6.6C597.6,698.8,595.8,700.8,592.1,701.1Zm1.1-6.4v-6.6c0-1.8-.6-2.5-2.5-2.5H579.4v11.6h11.3C592.5,697.2,593.2,696.5,593.2,694.7Z" fill="#fff"/><path d="M566.7,681.6v25.8c0,4.4-2,6.4-6.4,6.4H550.1c-4.5.1-6.5-2-6.5-6.4V681.6H548v25.6c0,1.9.7,2.6,2.5,2.6h9.2c1.8,0,2.6-.7,2.6-2.6V681.6Z" fill="#fff"/><path d="M536.1,688.1v19.3c0,4.4-2.1,6.4-6.5,6.4H513V681.6h16.6C534,681.6,536.1,683.7,536.1,688.1Zm-4.4,19.1v-19c0-1.8-.7-2.5-2.6-2.5H517.4v24.1h11.7C530.9,709.8,531.7,709.1,531.7,707.2Z" fill="#fff"/><polygon points="504.1 681.6 504.1 713.9 499.7 713.9 484 688.3 484 713.9 479.8 713.9 479.8 681.6 484.6 681.6 499.9 706.7 499.9 681.6 504.1 681.6" fill="#fff"/><polygon points="472.7 681.6 472.7 685.7 456.3 685.7 456.3 695.4 470 695.4 470 699.5 456.2 699.5 456.2 709.9 472.7 709.9 472.7 714 451.8 714 451.9 681.6 472.7 681.6" fill="#fff"/><polygon points="793.4 598.3 776.5 633.5 776.5 650.6 764.1 650.6 764.1 633.5 747.2 598.3 760.7 598.3 770.4 621 780 598.3 793.4 598.3" fill="#fff"/><polygon points="757 639.6 757 650.5 722.8 650.5 722.8 598.2 735.2 598.2 735.2 639.6 757 639.6" fill="#fff"/><polygon points="715.6 639.6 715.6 650.5 681.4 650.5 681.4 598.2 693.8 598.2 693.8 639.6 715.6 639.6" fill="#fff"/><path d="M659,598.3H641.9l-16,52.3h12.9l3-11.1h16.7l3.1,11.1H675Zm-14.4,30.6,5.6-20.4,5.5,20.4Z" fill="#fff"/><path d="M610.8,631.6c4.9-.8,7.2-4,7.2-9.9V608.5c0-7-3.4-10.3-10.4-10.3H578.4v52.3h12.4v-18h7.3l8.8,18h12.9Zm-5.3-10.7c0,1-.4,1.3-1.4,1.3H590.8V608.8h13.3c1,0,1.4.3,1.4,1.4Z" fill="#fff"/><polygon points="554.7 598.3 537.9 633.5 537.9 650.6 525.5 650.6 525.4 633.5 508.4 598.3 522 598.3 531.7 621 541.3 598.3 554.7 598.3" fill="#fff"/><polygon points="479.5 609 479.5 618.4 498.4 618.4 498.4 629.1 479.5 629.1 479.5 639.8 503.1 639.8 503.1 650.6 467 650.6 467 598.2 503.1 598.2 503.1 609 479.5 609" fill="#fff"/><polygon points="459.9 639.6 459.9 650.5 425.6 650.5 425.6 598.2 438.1 598.2 438.1 639.6 459.9 639.6" fill="#fff"/><polygon points="418.5 639.6 418.5 650.5 384.2 650.5 384.2 598.2 396.6 598.2 396.6 639.6 418.5 639.6" fill="#fff"/><path d="M361.7,598.3H344.5l-15.9,52.3h12.8l3-11.1h16.8l3,11.1h13.5Zm-14.4,30.6,5.5-20.4,5.5,20.4Z" fill="#fff"/><polygon points="335.4 598.2 319.3 650.5 305.1 650.5 289 598.2 302.5 598.2 312.4 637.3 322.2 598.2 335.4 598.2" fill="#fff"/><path d="M632.2,386.1c1.3-.6,5.8-8.1,6.5-10.1s3.1-5.3,3-4.5-2.6,9.1-2.7,10.8.8,5.4-.7,5.4-.7-2-1.2-1.9-2.1,1.6-3.2,2.1S631.1,386.5,632.2,386.1Zm17.6,52.2c-1.4.8-2.5-.3-3.8-1.4s-3-2.3-4.3-1.1-1.1,1.7-1.9,2.2-2.6-.1-3.9.3-1.7,1.9-3,2-1.6-1.2-1.2-2.2c1.4-3.3,4-6.5,3.8-10-.3,1.2-2.2,1-3.2.2s-1.9-2.1-3.1-2a10.1,10.1,0,0,1-1.7.3c-4.2.2,3.5-8.6,4.4-9.4s2.7-2.1,3-3.8-1.6-3.9-1.1-6a5.1,5.1,0,0,1-5.2-1.5,2.2,2.2,0,0,1-2.9-.2,22.2,22.2,0,0,0,10.6-9.7,3.8,3.8,0,0,0,4.2,2.8c0,1.9.5,4.1,2.2,4.4a8.6,8.6,0,0,0,2.2-.2c1.2,0,2.3.9,3.4,1.5s2.6,1.1,3.5.2a2.4,2.4,0,0,1-1.7,2.3,2.7,2.7,0,0,1-2.8-.8c-.4-.5-.6-.9-1.2-1.1s-3.2,1.5-4.9.7-.8-.7-1.3-.9-1.9,1.5-2,2.8l-.3,5.8c.1.6,0,1.3.4,1.8s1.9.3,3.1,1.3a5.4,5.4,0,0,1,.9,2.2c.2.8-.1,1.6.7,2s3.7-.4,3.2-1.1c1,.2.5,1.7.6,2.8s2.2,2.5,3.3,3.6,1.1,2.1,1.5,2.4,2.3-.8,1.7-1.2a1.8,1.8,0,0,1,.5,2.2,13.3,13.3,0,0,1-1.4,1.9C650.6,433.4,649.4,436.2,649.8,438.3Zm50.5-59.9v.3a10.3,10.3,0,0,1-.7,2.1c-1,2.2-2,4.5-3,6.6s-.3,2.9-.3,4.7-1.8,5.3-2.2,8.1c-.2,1.1-.1,1.9-.8,2.8s-1.8,1.3-1.8,2,.9,1.7.4,2.4-.5.5-.3.8.8.5,1.3.4a8,8,0,0,0,3.2-1.9c.4,1.3,1.3,2.1,1.9,3.2a3.7,3.7,0,0,1,.6,3.5l-.4.4a1.2,1.2,0,0,1-1-.2c-1.5-1-3.4-2.1-5.1-1.5s-2.3,2-3.4,3.1l-.7.5c-.8.2-1.1-1.1-.9-1.9a4.1,4.1,0,0,1,.7-1.7,1.6,1.6,0,0,0,.4-1.3c0-.7-1-1.1-1.7-1a5.5,5.5,0,0,0-1.9,1.2,3.5,3.5,0,0,1-1.9,1,.4.4,0,0,1-.4-.2.3.3,0,0,1,0-.4c.1-.5-1.2-.4-2,0s-1.1-.4-1.6-1.2-1.2-.1-1.2-.7.2-.4.3-.6c2.5-2,5.1-4.1,8.2-5.2a35.9,35.9,0,0,0,3.5-1.2,5.8,5.8,0,0,0,3-4.7,16.9,16.9,0,0,1,1.8-4.3c.6-.5-.4-2.2-.9-2.4s-3,.8-3.6.8a.2.2,0,0,1-.4-.1c-.2-.1,0-.5.2-.7s0-1.4-.4-2.1,2-2.1,3.4-2.9a12.3,12.3,0,0,0,5-6.4c.4-1.1.6-2.4,1.4-3.2s.6-.6.9-.4a.9.9,0,0,1,.4.6A4.8,4.8,0,0,1,700.3,378.4ZM719,420.9c-3.7-6.6-7.4-13.3-11.1-19.8,1.9.9,4.4.9,4.4-.4s-1.9-3.7-1.7-5.2c1.8.6,4-.6,3.5-1.6s-4.6-2.4-6.6-5.2c1.6-.6,3.8-.2,4.6-1.8s-4-3.1-6.1-4.9-1.8-4.8-2.6-7.1-3.6-4.8-5.6-3.3a5.5,5.5,0,0,0-1.2,1.9c-3.3,7.1-15.4,16.2-16,16.9s2.7,2.2,4.3,1.5a5.1,5.1,0,0,0,5.2,3.1,24.7,24.7,0,0,1-13.2,10.6c-1.6.5-3.5,1-4.3,2.4s-.3,2.4,1.9,3.4a7.2,7.2,0,0,0,9,2.3,10.5,10.5,0,0,1-7.3,11.5c-1.2.4-2.6.8-2.6,2s1.6,1,2.2,1.8,4.9,1.1,7.4,1.8c-2.4,3.1-5,4.8-7.5,8a3.7,3.7,0,0,1-2.1,1.8,4.2,4.2,0,0,1-2.2-.3c-5.2-1.8-9.9-3.2-14-7l7.2-1.4a2.2,2.2,0,0,0,1.4-.5c.9-1.1-.6-2.6-1.8-3.3a33.9,33.9,0,0,1-15.3-17.8,25.9,25.9,0,0,0,7.8,1.7c1,0,2.6.1,3.5-.7s0-2.4.3-2.7,1.9-1.4,3.1-2,2-1.9,1.4-3-1.9-1-3-1.1c-5.3-.4-9.7-5.4-9.8-10.6a7.8,7.8,0,0,0,6.1-1.3c.6-.5,2.6-.7,2.8-1.4s-1.4-2.5-2.9-3.2a23.1,23.1,0,0,1-13-15.7c-.3-1.4-.7-2.9-2-3.5s-2.9,1.1-3.8,2.4L626,388.9c-.4.7-.9,1.8-.2,2.2s2.2-.5,3.1,0,2.6,0,4.9-.1a21.5,21.5,0,0,1-13,13.2c-1.1.5-2.4.8-3.1,1.6s-1.2,2.4-.3,3.1,1.6-.4,2.6.4c3,2.6,3.2,3.8,7,4.5-2.9,5.4-3.3,7.8-8.3,11.6a7.3,7.3,0,0,0-2.8,3c-.5,2,1.3,4.1,3.4,4.5s4.2-.5,6-1.6c-.9,5.5-5,10-9.3,13.6s.2,3.4-3.5,7.4c6.3-3.6,3.6-4.5,9.9-8.2a4.7,4.7,0,0,0,5.2,1.7c.4,4,6.5,5.6,9,2.5a7.7,7.7,0,0,0,8.8,3.8c3.7-1.2,3.6-5.5,3.7-9.5,4.1,3.3,4.2,2.6,4.7.4,9.1.3,16.5,8.8,21.1,9.1,1.1.1,2.4-.1,2.8-1a6.3,6.3,0,0,0,.3-2.4c.4-1.9,3.2-2.1,4.1-3.9s-.5-3.7-.5-5.5,2.2-4,3.6-5.8,2.1-5,.1-6.1c-.6.4-1.1,1.3-1.9,1.3s-5.4-1-4.3-2.4,6.5-3.8,7.5-7.3c0,1.2,2.6,1.1,3.7.3s.8-1.9,2-2.1c3.5-.7,4.7,6.6,8,5.3-.6,1.1-.7,3.5-1.9,3.8s-2.3.5-2,1.7.4,1.8-.7,2.1-.7,1.7-1.6,1.6-1.3-1.8-2.2-3.2a4.4,4.4,0,0,0-2.7,4.8c.2,2.1,3.4,2.8,4.1,3.8s-1.3,2.1-1.9,3.3a9.5,9.5,0,0,1,8.7,7.9c.7,4.9,2.1,13.4,8.4,12.7a9.3,9.3,0,0,0,3.4-1.3,13.8,13.8,0,0,0,3.5-2.2c1.9-1.6,4.6-4.6,2.6-5.7s-4,.5-3.6-.6Z" fill="#221f1f"/><path d="M345.2,539h0l-6.8-.4h-.1l-5.2-.3,2,5.9,3.2.6h.1l6.8,1.2h0l6.9,1.2v-7.8Zm0,0h0l-6.8-.4h-.1l-5.2-.3,2,5.9,3.2.6h.1l6.8,1.2h0l6.9,1.2v-7.8Zm17.3,1h0l10.3.6Zm-17.3-1-6.8-.4h-.1l-5.2-.3,2,5.9,3.2.6h.1l6.8,1.2h0l6.9,1.2v-7.8l-6.9-.4Zm361.9-2c-2.8-9.2-8.2-26.6-10.4-29.3s-6.7-15.2-9.4-19.1l-3.6-5.2h-.1l-1.1-1.6-1.8-2.6-.9-1.2c-3.5-5.1-7.2-10.1-8.6-11.2a9.3,9.3,0,0,1-1.9-2.4h0c-.8-1.2-1.7-2.8-2.7-4.5a25.5,25.5,0,0,0-1-2.6,76.5,76.5,0,0,0-7.2-13.4,46.7,46.7,0,0,0-8.1-9.1,32.8,32.8,0,0,0-3.8-2.7,86.3,86.3,0,0,1-7.7-7.7l-1.2-1.9h0l-1.8-3h0l-2.3-3.5-4-6h-.4l-2.1-3.5-.5-.7h0a.1.1,0,0,0-.1-.1.1.1,0,0,0-.1-.1,8.3,8.3,0,0,0-.8-1.2l-1.2-1.6-.6-.8h0c-6.5-8.5-13.8-16.7-19.7-19l-11.7-6.4h-.6l-1.4-.2-3.5-.6-2.2-.3-24.3-4-4.2-.7L504.5,362l-9.5-1.5-5.4-.9-3.1-.6-7.4-1.2-5.9-.9c-1.8,0-20.7.3-31.6,1.2s-25.8,7.9-27.3,9.4a58.6,58.6,0,0,1-4.9,4c-3.3-.6-5.2.6-7.3,1.8s-16.1,10.9-29.3,20.5l-3.5,2.6-4.4,3.3h0l-2.4,2.5-10.4,10.4-6.9,7h0l-6.8,6.9h-.1l-8.7,8.7c-2.7,3.3-4.7,5.9-5.3,7.3s-7.9,11.8-7.9,14.6S314,466,314,469s.6,7.6.6,9.7-.9,5.8-.6,8.2,2.1,11.1,3.4,13.8H314a6.1,6.1,0,0,0-6,7.4c2.7,12.6,9.5,40.6,16,45.1a24.9,24.9,0,0,0,5.6,2.3l8.7,2.3h.1l2.5.7,2.8.7h0l1.5.4h0l6.9,1.8,10.4,8.6,10.3,8.6h90.1c.2-1.8.5-4,.8-6.7a7.5,7.5,0,0,1,2.8-5.3l18.9-13a5.9,5.9,0,0,1,4.3-.9l95.9,17.5a4.5,4.5,0,0,1,3.1,2.1l3.9,6.3h8.7l-7.6-12a7.2,7.2,0,0,0-4.8-3.1l-52.3-9.8c3.1-5.5,12.3-21.9,20.5-35.6,11.5-8.1,22-21.3,29.6-32.1a16.4,16.4,0,0,0,6.9.5c5.5,1.2,5.9,6.4,10.5,8.2s11.6,6.6,13.6,9.1,4.8,10.8,7.3,11.8,8.1,2.5,9.6,5,4,13.3,4.2,16.6,3.3,5.1,5,13.1,3.3,9.9,6.3,12.2,4.4,12,4.4,12a32,32,0,0,0,1.1,4.1h51.6V537.3A.4.4,0,0,1,707.1,537Zm-271-170.7c4.3-.6,32.9-3.7,38.3-3.3,0,0,.6,3.6,1.9,8.5-9.8,2.4-38.6,15.8-42.6,18.8a7.9,7.9,0,0,1-4.2-1.2c-2.8-6.7-10.1-11.3-12.8-14.9C418.5,371.2,431.9,366.9,436.1,366.3ZM334.7,443.2a3.8,3.8,0,0,1,.4-1.3.4.4,0,0,1,.1-.3c0-.1.1-.2.1-.3l.3-.5.3-.5.3-.5a.5.5,0,0,1,.3-.4,4.3,4.3,0,0,1,.4-.7l.3-.5.3-.4.7-.9h.1a.1.1,0,0,1,.1-.1l1.5-2,.8-.9.4-.5.9-.9c1-1.2,2-2.3,3.2-3.5h0l1.6-1.7,1.8-1.8,1-1,.7-.7,1.4-1.3.4-.4h0l1.7-1.7,5.2-4.7,3.5-3,2.2-1.8,1.8-1.4,1.7-1.2a18.8,18.8,0,0,1,2.4-1.8l.8-.6,1.4-1c3.8-2.7,6.7-4.7,8.4-6.5l2-2c5.1-4.7,16.1-13.4,19.2-14.4s5.8-2.4,7.6-.9,5.4,9,7.4,14.8a17.7,17.7,0,0,1,1.1,4.9c0,4.3-.6,11-2.4,12.2a21.4,21.4,0,0,1-9.4,3c-5.5.6-5.5,4.3-8.2,5.5s-7,4.2-11.6,4a2,2,0,0,0-1.1,0h-.7l-1.5.3-.8.2h-1l-.4.2-1,.3-1.4.5-1.2.5-1.4.6-.9.4-2.7,1.2-1.4.8-1,.5a26.1,26.1,0,0,0-2.9,1.8c-1.4.9-3.3,1.8-5,2.7s-4,2.1-4.2,3.3,0,5.5,0,7.3-1.5,3.6-2.4,4.6a4.9,4.9,0,0,0-1.1-1.4l-.2-.3-.3-.3-.5-.5-.6-.5a1.2,1.2,0,0,0-.5-.5h-.1l-.5-.4h0l-.8-.7-.8-.6-1.4-.9-.6-.4-.6-.4-1.3-.7-.8-.4-.6-.3h-.1a3.8,3.8,0,0,0-1.3-.4,12.3,12.3,0,0,0-2.7-.2h-2l-.7.2h-.1l-.6.2h-.1l-.6.2-1.2.4-.6.2-.5.2Zm37,39.8a5.2,5.2,0,0,0,1.1-1c2-1.6,3.7-3.4,3.9-4.2s7.3-8,9-8,10.6-7.5,12.6-10.1a11.1,11.1,0,0,1,3.6-2.6c-1.3,5.4-2.3,10.9-3,14.5-.9,5.2-7,18.2-8.2,24-.4,1.8-4.2,10.6-9.2,21.8l-8.4-5.3a24,24,0,0,0-.3-3.7c-.2-1.9-.5-3.6-.5-3.6s-1.7-7.8-1.7-11.9S371.8,485.9,371.7,483Zm-51,.3c.3-2.5,0-11.9.6-14s4.9-15.2,6.4-16.4,7.4-3.9,10.6-3.9h.4c.1,0,.2,0,.2.1h.6l-.6,1.4a11.2,11.2,0,0,0-.5,1.3v.2a10.4,10.4,0,0,1-.4,1v.5c-.1.2-.1.4-.2.6s-.4,1.7-.5,2.4a.9.9,0,0,0-.1.5,5.8,5.8,0,0,0,.1,3.1,5.9,5.9,0,0,0,1.2,1.4h.1l.6.8.4.3,2.5,2.7.4.6a6,6,0,0,1,1.1,1.4l.3.5c.1.3.2.5.1.7l-.5.6-.3.2a9.5,9.5,0,0,1-1.8,1.5c-.1.1-.2.3-.4.4l-1.5,1.2-.5.4-.4.3h-.1a6,6,0,0,0-.8.8.2.2,0,0,0-.2.2l-.5.5v.6a1.3,1.3,0,0,0,.3.8c0,.2.1.3.1.5l.3.5.8,1.7h0v.2h0a18.4,18.4,0,0,1,1.2,3.2v.4a.9.9,0,0,1-.1.5c-.6,1.8-1.5,15.2-.6,16.4h-3.5c-4.9.1-12-.1-12-.1C322.2,494.5,320.4,485.7,320.7,483.3Zm52.1,57.4-10.3-.7-10.4-.6-6.9-.4h0l-6.8-.4h-.1l-5.2-.3,2,5.9,3.2.6h.1l6.8,1.2h0l6.9,1.2,20.7,3.6h0l47.8,8.4c-3.9,3.7-11.5,5.8-15.4,6.4l-1.9-.3-1.5-.3-.8-.2h-.9l-22.8-4.5-1.8-.4-2.7-.6-2.6-.5-3.9-.8-3.1-.7H363l-.5-.2-2.4-.5-1.2-.2-3.3-.8-1-.2-1.3-.3-1.2-.3-1.9-.4-1.5-.3-3.5-.9h0l-4.4-1-1.6-.5-.8-.2h-.1l-1.7-.4-1.3-.4-2.2-.6-1.3-.4-1.9-.7-.4-.2-.8-.3c-.1,0-.2,0-.2-.1l-1.1-.6a497582161916.3,497582161916.3,0,0,0-.2-.2c-2.4-2.9-9.6-27.5-12.3-37a2.8,2.8,0,0,1,2.8-3.5h36.1l.9.4.9.4,1.4.6.8.5c1.5.7,3,1.6,4.7,2.6l10.3,6.4,2.5,1.6,1.2.7,6.7,4.2,1,.5.5.3,1,.6,1.5.8.8.4h.4a7.5,7.5,0,0,0,1.3.6c6.3,2.1,17.3,2.1,17.3,2.1l20.6,10.3s3.4,4.6,3.2,7.8L391,541.8ZM453.4,571l-16-7.5a21,21,0,0,0,.8-9.4l18.6,7.6C455.2,564,454.1,566.2,453.4,571Zm7-12.1c-2.1-2.4-10.3-11.2-13.3-12.4s-11-1.8-11-1.8l-2.4-4.3c6.1.3,12.8,2.1,14.6,3s6.7,5.5,8.2,7,6.1,6.7,6.1,6.7Zm5.9-144.3-2.2,1-1.5.6a56,56,0,0,0-6.1,3.3c-7,4.2-21,14.7-30.1,21.5-3.1,4.7-6.2,12.2-9.2,18.7-3.8,11.4-9.9,28.1-9.9,28.1-1.8,6.1-5.8,16.1-6.4,18.9s-2.5,12.6-3.8,18a38,38,0,0,1-6.8-1.9c2.9-7.1,6.7-17.4,7.3-20.4s7.8-19.7,14-33.8c1.2-7,4.7-19,6-25.1,3.4-3.7,11.6-15.8,11.6-15.8,6.6-3.1,10.8-7.9,22.4-13.1,1.7-.7,3.4-1.5,5.4-2.2l1.9-.8c4.4-1.8,9.5-3.7,14.5-5.5l2.6-1,4.7-1.6.9-.3.9-.3.6-.2.7-.2,3.8-1.3.9-.3,2-.6s2.2,2.2,4,3.7h-.4l-3.8,1.3-3.7,1.3-.9.3-2.7,1h-.1l-7.5,2.8-1.1.4-1.1.5-1.6.6-3.8,1.6Zm18.5,114.9c-1.9,3.6-3.1,4.2-5.5,10.3-1.7,4.2-3.7,9.4-3.7,9.4l-6.3,5.2c3.3-8.8,4.5-11.6,6-15.2s2.9-8.3,7.3-16.4,15.5-23.4,18-28.9,13.9-22.8,17-30.1l1.5-3.7.3-.7c1.3-3.6,3.1-8.2,4.9-13.1l.3-.8c1.4-4,2.9-8.2,4.1-11.9l.6-1.9.6-1.8c.3-1,.6-1.9.8-2.8s.1-.4.2-.6l.6-2.4.3-1c0-.2.1-.3.1-.5l.3-1.3a40.6,40.6,0,0,0,3.9,5.2l-.5,1.5h0c-.3.9-.6,2.1-1.1,3.5a1.7,1.7,0,0,1-.2.5,3090632051225.7,3090632051225.7,0,0,1-.4,1.2,18.7,18.7,0,0,1-.7,2.2l-.6,1.8c-.2.8-.5,1.5-.8,2.4s-.3.9-.5,1.4q-1.3,3.9-2.7,8.1l-.6,1.5-1.5,4.4c-.2.4-.3.9-.5,1.3a2.4,2.4,0,0,0-.2.8l-.8,2-.5,1.4c-.2.5-.3,1-.5,1.5l-.6,1.6c-.1.1-.1.3-.2.5s-.1.4-.2.6l-.8,2.1a3.6,3.6,0,0,1-.4.9c-.1.4-.3.8-.4,1.2l-.3.7-.2.3c-2.4,5.5-12.4,20.7-14.3,23.7C501.8,501.8,486.6,525.8,484.8,529.5Zm66.8-18.9a48.1,48.1,0,0,0-7.3,10.1c-1.1,2.2-13.4,25.2-17.2,31.3l-7.1-1.3c3.2-5.2,12.4-20.9,14-22.4s10.3-15.5,12.1-18.3,21-16.7,23.7-20.3C566.2,498.2,553.7,508.8,551.6,510.6Zm31.6-36.1c-.6-6.1-4.6-22.8-6.4-26.8-2.8-6-9.1-20.9-9.1-20.9l3.7-4.3c2.1,3,8.8,17.7,10.6,24.6a198.2,198.2,0,0,1,3.6,24C584.1,473.9,583.2,474.5,583.2,474.5ZM602,433.1h0c-.3-.8-10.3-26.1-25.3-35.1a58.6,58.6,0,0,0,6-4.7,54.2,54.2,0,0,0,8.5-9.6c3.9,2.2,11,6.5,15.1,9.2a16.6,16.6,0,0,1,3,2.3c1.9,1.8,3.7,6.7,3.7,7.6s-.9,10.6-2.8,14.2S602,433.1,602,433.1Zm93.9,130.7c-4.2,0-13.6,3.3-14.9,4.2,1-4.2-.3-7.5,1.3-10s1.2-6.1,2.1-7.3,2.7-2.7,3-3.9-7.6-.3-7.6-1.8,3.4-4.6,3.7-6.1-6.1-15.2-6.1-17-.7-3,.3-3.7a25.8,25.8,0,0,0,3.9-3.3c.7-.6-6.9-2.1-10.9-1.5-1.8-.6-.7-3.9,1.5-5.5s5-2.2,4.9-2.7-6.7-2.5-11.6-2.5c-.9-1.5-5.4-6-6.9-6.7s-8.2-3.6-8.8-5.4-12.8-18.3-16.2-20.7-8.2-12.7-10-14.3a37,37,0,0,1-5.8-7.8,21,21,0,0,1-1.5-3.1,4.6,4.6,0,0,0-.3-.9c-.5-2.6.3-9.2.4-12.9h0a8.1,8.1,0,0,0-.1-1.7,11.6,11.6,0,0,1,.1-1.7h0c.5-3.9,2.6-11.6,2.1-18.3a54.8,54.8,0,0,1,7,7.8,23.3,23.3,0,0,1,2.6,4.9h.1a34.5,34.5,0,0,1,1.3,4.4h0c.8,3,1.3,5.1,2.3,5.9l2.2,1.3,6.6,3.5c2.9,1.6,5.6,3.4,6.7,5a16.5,16.5,0,0,1,1.8,2.5c3.6,5.4,9.9,15.7,10.7,19s.6,6.1,1.5,7,11.2,13.4,13.4,15.2,12.4,18.9,14.5,24.6,5.2,17,6.1,19.8,3.1,6.9,2.2,8.5-1.6,3.9-1,5.1,4.6,4,6.4,7.9,2.4,14.9,3.1,16.2C700.5,565,700.2,563.8,695.9,563.8ZM345.2,539h0l-6.8-.4h-.1l-5.2-.3,2,5.9,3.2.6h.1l6.8,1.2h0l6.9,1.2v-7.8Z" fill="#221f1f"/><path d="M706,567.8c-5.5-2.8-5.8-4-10.1-4s-13.6,3.3-14.9,4.2c1-4.2-.3-7.5,1.3-10s1.2-6.1,2.1-7.3,2.7-2.7,3-3.9-7.6-.3-7.6-1.8,3.4-4.6,3.7-6.1-6.1-15.2-6.1-17-.7-3,.3-3.7a25.8,25.8,0,0,0,3.9-3.3c.7-.6-6.9-2.1-10.9-1.5-1.8-.6-.7-3.9,1.5-5.5s5-2.2,4.9-2.7-6.7-2.5-11.6-2.5c-.9-1.5-5.4-6-6.9-6.7s-8.2-3.6-8.9-5.4-12.7-18.3-16.1-20.7-8.2-12.7-10-14.3-7-8.8-7.6-11.8.6-11.9.3-14.6,2.8-12.2,2.1-20.1c2.2,1.9,8,7.6,9.8,12.8s2.1,9.1,3.6,10.3,12.8,6.1,15.5,9.8,11.6,17.6,12.5,21.5.6,6.1,1.5,7,11.2,13.4,13.4,15.2,12.4,18.9,14.5,24.6,5.2,17,6.1,19.8,3.1,6.9,2.2,8.5-1.6,3.9-1,5.1,4.6,4,6.4,7.9S705.4,566.5,706,567.8Z" fill="#fff"/><path d="M613,402.8c0,.9-.9,10.6-2.8,14.2s-8.2,16.1-8.2,16.1h0c-.3-.8-10.3-26.1-25.3-35.1,0,0,8.9-5.9,14.5-14.3,5.3,3,16.5,9.8,18.1,11.5S613,401.9,613,402.8Z" fill="#fff"/><path d="M585.6,471.1c-1.5,2.8-2.4,3.4-2.4,3.4-.6-6.1-4.6-22.8-6.4-26.8-2.8-6-9.1-20.9-9.1-20.9l3.7-4.3c2.1,3,8.8,17.7,10.6,24.6A198.2,198.2,0,0,1,585.6,471.1Z" fill="#fff"/><path d="M569.8,489.7c-3.6,8.5-16.1,19.1-18.2,20.9a48.1,48.1,0,0,0-7.3,10.1c-1.1,2.2-13.4,25.2-17.2,31.3l-7-1.3c3.1-5.2,12.3-20.9,13.9-22.4s10.3-15.5,12.1-18.3S567.1,493.3,569.8,489.7Z" fill="#fff"/><path d="M462.6,557.1l-2.2,1.8c-2.1-2.4-10.3-11.2-13.3-12.4s-11-1.8-11-1.8l-2.4-4.3c6.1.3,12.8,2.1,14.6,3s6.7,5.5,8.2,7S462.6,557.1,462.6,557.1Z" fill="#fff"/><path d="M536.1,426.5c-1.8,6-12.4,37.1-15.2,43.4s-12.5,20.7-14.3,23.7c-4.8,8.2-20,32.2-21.8,35.9s-3.1,4.2-5.5,10.3c-1.7,4.2-3.7,9.4-3.7,9.4l-6.3,5.2c3.3-8.8,4.5-11.6,6-15.2s2.9-8.3,7.3-16.4,15.5-23.4,18-28.9,13.9-22.8,17-30.1,13-34,14.6-42.5A40.6,40.6,0,0,0,536.1,426.5Z" fill="#fff"/><path d="M456.9,561.7c-1.7,2.3-2.8,4.5-3.5,9.3l-16-7.5a21,21,0,0,0,.8-9.4Z" fill="#fff"/><path d="M335.1,544.2l85.6,15c-4,3.7-11.6,5.8-15.5,6.4-11.6-2.1-74.9-14.4-78-18.1s-9.6-27.5-12.3-37a2.8,2.8,0,0,1,2.8-3.5s33,.3,36.1,1.5c8.8,3.3,29.5,18.5,35.9,20.7s17.3,2.1,17.3,2.1l20.6,10.3s3.4,4.6,3.2,7.8L391,541.8l-57.9-3.5Z" fill="#fff"/><path d="M343.8,468.7c-.6,1.2-6.7,5.2-7,6.4s3.3,6.4,2.7,8.2-1.5,15.2-.6,16.4c-3.6.3-15.5,0-15.5,0-1.2-5.2-3-14-2.7-16.4s0-11.9.6-14,4.9-15.2,6.4-16.4,9.4-4.9,11.8-3.7c-2.4,4.9-3,9.8-2.4,11S344.4,467.5,343.8,468.7Z" fill="#fff"/><path d="M494.5,404c-.9.6-26.9,8.7-38,15.5-7,4.2-21,14.7-30.1,21.5-3.1,4.7-6.2,12.2-9.2,18.7-3.8,11.4-9.9,28.1-9.9,28.1-1.8,6.1-5.8,16.1-6.4,18.9s-2.5,12.6-3.8,18a38,38,0,0,1-6.8-1.9c2.9-7.1,6.7-17.4,7.3-20.4s7.8-19.7,14-33.8c1.2-7,4.7-19,6-25.1,3.4-3.7,11.6-15.8,11.6-15.8,6.6-3.1,10.8-7.9,22.5-13.1s27.6-10.9,38.8-14.3C490.5,400.3,492.7,402.5,494.5,404Z" fill="#fff"/><path d="M476.3,371.5c-9.8,2.4-38.6,15.8-42.6,18.8a7.9,7.9,0,0,1-4.2-1.2c-2.8-6.7-10.1-11.3-12.8-14.9,1.8-3,15.2-7.3,19.4-7.9s32.9-3.7,38.3-3.3C474.4,363,475,366.6,476.3,371.5Z" fill="#fff"/><path d="M418.5,400.6c0,4.3-.6,11-2.4,12.2a21.4,21.4,0,0,1-9.4,3c-5.5.6-5.5,4.3-8.2,5.5s-7,4.2-11.6,4-16.4,5.4-19.4,7.6-8.8,3.9-9.1,6a59.2,59.2,0,0,0,0,7.3c0,1.6-1.6,3.6-2.5,4.6-2.4-3.7-9.1-8.2-12.1-8.8s-6.7.6-9.1,1.5c0-4.4,13.6-18.6,24.3-28s18.8-13.6,22.2-17.3,17.6-15.2,21.2-16.4,5.8-2.4,7.6-.9S418.5,396.4,418.5,400.6Z" fill="#fff"/><path d="M592.6,578.7H462.9c.2-1.8.5-4,.8-6.7a7.5,7.5,0,0,1,2.8-5.3l18.9-13a5.9,5.9,0,0,1,4.3-.9l95.9,17.5a4.5,4.5,0,0,1,3.1,2.1Z" fill="#fff"/><path d="M605.5,321.1v.3c-.1,2.2-.2,4.4-.5,6.7a131,131,0,0,1-3.8,20.7,165.5,165.5,0,0,1-9,25.5l-.5,2-1.9,8.5L579,393.3,535.6,428h0l-6.9,5.6-4.5,3.5-31-7s-5.2-11.8-10.3-22h0a35.9,35.9,0,0,0-1.7-3.4,6.1,6.1,0,0,1-.5-1.2,24.3,24.3,0,0,1-2.2-8.7,31.2,31.2,0,0,1,1.6-12.3l.5-7.4c-.9-2.7-1.3-9.7-1.5-17.3-.1-3-.2-6.1-.2-9-.1-8.9,0-16.6,0-16.6l-7.6-2.6-1.7-1.5-.2-.2a6,6,0,0,1-1.6-6.5l.2-.3a4.1,4.1,0,0,1,.5-.9l4.1-5.9,2.8-4,38.9-41.5s64.4-9.5,83.8,21.1c4.6,7.2,6.7,15.6,7.2,24.4C605.5,316.5,605.5,318.8,605.5,321.1Z" fill="#221f1f"/><path d="M510.9,324.4a187,187,0,0,1,19,6.8,29,29,0,0,0,9,2.6,30.7,30.7,0,0,0,10.4-1.4l30.2-7.8a2.5,2.5,0,0,0,1.6-.8,2,2,0,0,0,.4-1.3,29.7,29.7,0,0,0,.2-4.2c.1-2.2,0-4.5-.4-4.4-15.1,6-31.1,10.9-47.4,10-2.4-.1-5-.4-6.8-2s-2.4-4.9-2.2-7.6c.5-8.1,2.8-14,7.3-20.8-1.5-2.1-4.3-2.8-6.8-3.4s-5.1-1-8.1.6a10,10,0,0,0-3,2.3c-7.3,7.3-11.3,11.9-18.5,19.2a3.2,3.2,0,0,1-2.9,1c-1.8-.3-2-1.9-2.1-3.2a31.1,31.1,0,0,1,1.5-11.4c-1.2.5-11.8,12.5-18.1,20.4a3.2,3.2,0,0,0,1.3,4.8h.2C487.8,322,499.2,321.3,510.9,324.4Z" fill="#fff"/><path d="M539.5,313.2c1.3.3,7.1,1.7,15.1-3.3,13.4-8.4,29.6-12.5,35.1-5.8s6.7,17.4,6.5,22.9a19.8,19.8,0,0,0,4.6-2.3c.3-.2.3-1.1.3-2.1s-.2-1.9-.2-2.3a57.5,57.5,0,0,0-1.8-9.2,76.2,76.2,0,0,0-7.4-17.6c-3.1-5.3-7-9.7-12.6-12.5a62.6,62.6,0,0,0-18-6,86.9,86.9,0,0,0-19.1-1.4,77,77,0,0,0-17.8,2.4c-6.5,1.8-11.7,5.4-16.7,9.8s-10.3,11.1-10.3,11.1,3.5-1,4.1-1.3a35.4,35.4,0,0,0,10.5-6c3.5-3,6.8-4.9,11.2-5.1a31,31,0,0,1,4.3.2,18.5,18.5,0,0,1,8.1,2.9,7,7,0,0,1,1.9,1.6,8,8,0,0,1,1.6,4.9C538.9,294.8,531.3,311.5,539.5,313.2Z" fill="#fff"/><path d="M594.6,342.3c-2.4,12.8-8.9,31.3-13.3,40.7a4.8,4.8,0,0,1,.9-1.1l.8-.9.8-.9a12.4,12.4,0,0,0,1.4-1.8l.6-1,.6-1a69.8,69.8,0,0,0,4.1-8.7c1.2-3.1,2.2-6.1,3.2-9.2l2.7-9.5c.7-3,1.4-6,2-9A42,42,0,0,1,594.6,342.3Z" fill="#fff"/><path d="M486.6,361.7c.4,4.9,1,9.7,1.8,14.6l.2.6-.2.7a89.1,89.1,0,0,0-2.6,11.1l-.3,2.6a3.1,3.1,0,0,0,.1,1h0l.3.6c.5,1.8,1.2,3.6,1.8,5.4,1.3,3.7,2.7,7.3,4.3,10.9.8,1.8,1.5,3.6,2.4,5.4s.8,1.7,1.2,2.6l.9,1.6a46.9,46.9,0,0,0,4.5,2.1,47.7,47.7,0,0,0,5.7,2c2.2.7,6.1,2,7.6,1.6s32.1-19.3,32.1-19.3l.3-2.9s-32.3,17.3-33.8,17.3-13.6-4.7-13.6-4.7a154.2,154.2,0,0,1-7.1-18c-.4-1.1,5.1-6.5,6.1-6.3a82,82,0,0,1,8.6,1.8c.3.2,4.2,3.6,9,7.1l4.2,3.9,29.4-23.5c11.4-8.2,22.7-20.7,28.3-30.9l-3.4.3-.3.4c-16.1,20.2-27.2,31.6-39.9,31.7s-13-9.7-24.5-12.1c-8.7-2-9.7,5.2-14.3,2.5-7.6-4.2-6.9-23-5-44.5h-3.2c-.2,1.5-.3,3.1-.4,4.5-.3,4.9-.6,9.9-.6,14.8S486.3,356.9,486.6,361.7Z" fill="#fff"/><path d="M531.8,388.4l-13.5,8.1-8.7-6.3,2.3-14.7s7.1,8.3,9.9,9.9A29.4,29.4,0,0,0,531.8,388.4Z" fill="#221f1f"/><path d="M496.2,378.7c2-.8,7.9-4.4,7.9-4.4l-13.5,18.5-1.1-3.3L492,378S494.4,379.5,496.2,378.7Z" fill="#221f1f"/><path d="M495.4,330.1c4.9-.3,8.9,3.6,12,7.3,0,0-2.1,17.7-3,25.7-3,.1-4,1.6-6.1,1.6s-2.3-1.2-3-3.2C493.9,357.3,494.8,333.8,495.4,330.1Z" fill="#fff"/></g></svg>